<svg width="184" height="70" viewBox="0 0 184 70" fill="none" xmlns="http://www.w3.org/2000/svg">
<path d="M39.0423 16.459C38.8757 17.2923 38.603 18.0802 38.2545 18.868C38.1484 19.2619 37.9818 19.6558 37.8606 20.0346C37.6939 20.4739 37.4212 20.8678 37.194 21.2012C36.9667 21.5951 36.694 21.9284 36.4061 22.3223C36.2395 22.5495 36.1789 22.7768 36.1334 23.1101C36.0274 23.0495 35.9668 23.1101 35.9668 23.2768V23.2162C35.8001 23.3828 35.5729 23.5495 35.4062 23.7767C34.679 24.61 33.9518 25.5039 33.2851 26.3978C33.1791 26.5038 33.1185 26.6705 33.0579 26.7917C32.7246 27.0189 32.4973 27.2917 32.27 27.625C31.8307 28.1249 31.3156 28.6249 30.8156 29.14C29.8611 30.0339 28.9218 30.9884 27.9673 31.9277L25.9068 33.7761C25.7402 33.9427 25.5735 34.0033 25.5129 34.2306C25.4069 34.5033 25.1796 34.6245 24.9524 34.7305C24.6797 34.7911 24.4524 34.8972 24.2857 35.1245C24.1191 35.2911 24.2251 35.3972 24.3918 35.4578C24.0585 35.685 23.7706 35.9123 23.3313 35.9577C23.104 35.9577 22.8919 36.1244 22.9373 36.3971C22.9979 36.5638 22.8313 36.6244 22.7101 36.7304C22.4828 36.8971 22.2101 37.0031 21.9223 37.1243L22.0889 36.791C21.9829 36.8971 21.9223 37.0183 21.9223 37.1243C21.7556 37.291 21.6496 37.397 21.4829 37.5182C20.7557 38.0182 20.0285 38.5182 19.2406 38.9727C18.6801 39.2454 18.1195 39.5938 17.5589 39.9272C16.9984 40.2605 16.3923 40.5483 15.7106 40.6544L16.3317 40.1544V40.0484L16.2257 39.9878C15.8318 39.9878 15.4985 40.215 15.1651 40.3211C13.6046 41.0483 11.9229 41.5483 10.1352 41.6089C9.90792 41.6089 9.68066 41.6695 9.46856 41.6695C9.40796 41.6695 9.3625 41.7301 9.3625 41.7755C9.3019 41.8361 9.42311 41.8816 9.46856 41.8816C10.1352 42.0482 10.7563 41.9876 11.3624 41.8816C12.4835 41.7755 13.4834 41.3816 14.4985 41.0483C14.8924 40.8816 15.3318 40.715 15.7863 40.6544C14.8924 41.2756 13.8925 41.6089 12.8774 41.821C11.9229 42.0482 10.923 42.1543 9.96852 42.3209C9.69581 42.3815 9.40796 42.3815 9.13525 42.3209C8.57468 42.2149 8.13531 42.3815 7.7414 42.7149C7.57475 42.8815 7.40809 42.9421 7.30204 43.1694C7.30204 43.23 7.36264 43.2754 7.46869 43.2754H7.40809C7.30204 43.6087 7.07478 43.7754 6.84752 43.942C6.74147 44.0481 6.74147 44.1087 6.78692 44.2147L6.22635 44.7753C6.1203 44.8814 6.0597 45.048 5.95364 45.1692C5.68093 45.4419 5.78699 45.8965 5.39307 46.1692C5.05976 46.3358 4.89311 46.7297 4.72645 47.063C4.39314 47.563 4.10528 48.063 3.89318 48.6235C3.83257 48.7296 3.78712 48.8963 3.72652 48.9569C3.10535 49.6235 2.83264 50.5174 2.33268 51.2446C1.93876 51.7445 1.71151 52.3051 1.4994 52.9263C1.39334 53.0323 1.33274 53.199 1.27214 53.3202C1.04488 53.7141 0.544917 53.7141 0.31766 53.3202C0.044951 52.6536 -0.182306 52.0324 0.211606 51.3052C0.772175 50.184 1.37819 49.1841 1.99936 48.1236L3.16595 45.9419C3.43866 45.5025 3.78712 44.9874 4.12043 44.5481C4.6204 43.6542 5.07491 42.7603 5.74154 41.927C5.80214 41.821 5.84759 41.7604 5.84759 41.6543C6.01425 41.4271 5.95364 41.1544 5.78699 40.9271C5.62033 40.821 5.51428 40.6544 5.34762 40.4877C5.01431 40.215 4.78706 39.7605 4.5598 39.3666C4.45374 39.0939 4.39314 38.8666 4.39314 38.5333C4.45374 38.2606 4.66585 38.0788 4.95371 38.2C5.40823 38.3667 5.78699 38.5333 6.2415 38.7606L6.57481 38.9272C7.13538 39.1545 7.40809 39.1545 7.802 38.6545C8.13531 38.2606 8.42317 37.8212 8.69588 37.3061C9.02919 36.685 9.3625 36.1395 9.86247 35.579C9.96852 35.4729 10.0897 35.3063 10.1352 35.1396C10.6351 34.2457 11.3018 33.4124 11.8623 32.5186C12.0896 32.2459 12.3017 31.8974 12.529 31.5641C12.9229 31.0035 13.2562 30.3975 13.7561 29.8824C13.8622 29.7763 13.9834 29.6097 14.0289 29.443C14.5288 28.4885 15.256 27.5947 15.9227 26.7008C16.9832 25.1857 18.3316 23.8525 19.3921 22.292C20.3466 20.9436 21.4526 19.777 22.5283 18.4892C23.1495 17.7014 23.8161 16.9742 24.5433 16.2469C24.9372 15.7924 25.4372 15.4137 25.9371 15.0804H26.1038C26.2099 15.141 26.1644 15.1864 26.1038 15.3076V15.3682C26.0432 15.4743 26.1038 15.5349 26.2099 15.5955C26.3159 15.5955 26.3765 15.5349 26.4371 15.5349C26.7098 15.5955 26.831 15.8076 26.7704 16.0954C26.7704 16.0954 26.7502 16.1308 26.7098 16.2015C26.2099 16.8227 25.922 17.5499 25.316 18.0953C25.0433 18.368 24.7554 18.7165 24.4827 19.0498C23.8161 19.9437 23.0889 20.7769 22.3616 21.6254C22.0889 22.0193 21.8617 22.4586 21.5283 22.8526C21.0284 23.4737 20.5284 24.1403 20.0739 24.807L18.9073 26.322C18.8013 26.5493 18.6346 26.7159 18.6801 26.9886C18.5134 27.2159 18.3467 27.4886 18.0589 27.6553C17.9528 27.7159 17.8316 27.8219 17.7862 27.9886C17.7256 28.0946 17.6801 28.2158 17.6195 28.2613C17.1196 28.5946 16.8317 29.0946 16.7256 29.6551C16.6196 30.0945 16.3317 30.4884 15.9984 30.7157C15.4985 31.1096 15.1651 31.5489 14.8318 32.0641L14.4985 32.5034H14.6652L14.4985 32.6701C14.4379 33.0034 14.2713 33.2912 13.938 33.5034C13.7713 33.564 13.6652 33.7306 13.6046 33.8973L13.438 34.0639H13.6046C13.3774 34.5639 13.0441 35.0184 12.6502 35.4123L12.7108 35.4729C12.6047 35.5335 12.5441 35.6396 12.5441 35.7456V35.4123L12.4835 35.4729C12.4229 35.579 12.3775 35.6396 12.5441 35.7456C12.3775 35.8517 12.3169 35.9729 12.1502 36.0789C11.8775 36.2456 11.7108 36.4729 11.6502 36.8668C11.5896 37.2607 11.2563 37.594 10.923 37.8212C10.5897 38.0485 10.3018 38.3212 10.0897 38.6545C10.0897 38.7151 10.0291 38.8818 10.0897 38.8818C10.1958 38.9878 10.2564 38.8818 10.3624 38.8212C10.5291 39.2151 10.8018 39.3211 11.1957 39.2605C11.8623 39.1999 12.4835 39.0333 13.0895 38.7606C13.9228 38.4273 14.7106 38.094 15.4985 37.7C16.7256 37.1395 17.9074 36.4728 19.074 35.685C19.4679 35.4123 19.9072 35.1851 20.3618 34.8972C20.6951 34.7305 21.0284 34.5033 21.3162 34.276C22.4374 33.3821 23.5585 32.4883 24.619 31.5944C25.9068 30.5339 27.0734 29.4127 28.2552 28.2461C28.3612 28.1855 28.4218 28.0795 28.4824 28.0189C29.9369 26.9583 30.8914 25.4433 32.1185 24.1706C33.4669 22.6101 34.6941 20.9284 35.8001 19.2013C36.3001 18.368 36.8 17.5196 37.2546 16.6257C38.1484 14.7773 37.8757 13.1108 36.5879 11.5957C36.1486 11.0352 35.588 10.5352 34.9668 10.2019C33.9063 9.58073 32.8458 9.03531 31.664 8.74745C30.8308 8.52019 30.0429 8.41414 29.2097 8.35354C27.1946 8.29293 25.1342 8.45959 23.1192 8.7929C21.0587 9.18681 18.9831 9.74738 16.9681 10.4746C16.4075 10.7019 15.8469 10.8685 15.2863 11.0352L15.453 10.7625C15.1803 10.8231 14.953 10.9291 14.6652 11.0352H15.2863C15.0591 11.2624 14.7258 11.3685 14.4531 11.5351C13.5592 11.9291 12.6653 12.3684 11.832 12.8229C11.3321 13.0956 10.7715 13.4441 10.2109 13.6562C9.98367 13.9895 9.65036 14.2168 9.211 14.3228C8.93829 14.4289 8.71103 14.5955 8.42317 14.7773C7.36264 15.3985 6.57481 16.3378 5.68093 17.1863C5.40823 17.459 5.01431 17.8074 4.95371 18.3074L4.78706 18.4741C4.16588 19.0952 3.72652 19.8225 3.39321 20.6557C3.28716 20.989 3.16595 21.3224 3.16595 21.7163C3.16595 22.1102 3.10535 22.5041 3.10535 22.8374C3.04475 23.6252 3.33261 24.2313 3.89318 24.6858C4.28709 24.9585 4.681 25.2463 5.05976 25.4736C5.68093 25.7463 6.34756 26.0342 6.95358 26.2614C7.18083 26.322 7.28689 26.3675 7.28689 26.6553C7.28689 26.7614 7.45354 26.822 7.55959 26.8826L7.89291 27.0492C7.99896 27.1553 7.99896 27.322 7.89291 27.3826C7.78685 27.4886 7.6202 27.5492 7.49899 27.6098C7.43839 27.6704 7.49899 27.7159 7.55959 27.7765C7.72625 27.8371 7.72625 27.9431 7.55959 28.0037C7.39294 28.0037 7.16568 28.0643 6.99903 28.0037C6.10515 28.0037 5.31732 27.6704 4.5901 27.2159C3.69622 26.6553 2.90839 25.9281 2.34783 24.9736C2.18117 24.7009 2.01451 24.4131 1.95391 24.0797C1.33274 22.1859 1.28729 20.2315 2.22662 18.3832C2.45388 17.8832 2.78719 17.4287 3.0599 16.9287C3.84772 15.8076 4.84766 14.8076 5.80214 13.7926C5.86274 13.6865 5.96879 13.5653 6.07485 13.5199C7.07478 12.8987 7.92321 12.0048 8.92314 11.3988C9.71096 10.8988 10.4836 10.3383 11.3775 10.0049C12.0441 9.77768 12.6653 9.38377 13.2713 9.00501C13.9986 8.61109 14.8318 8.27778 15.6197 8.05053C16.0742 7.88387 16.5741 7.71721 16.9681 7.48996C17.5286 7.15665 18.1346 7.05059 18.7558 6.92939C19.4224 6.82334 20.1042 6.70213 20.7708 6.42942C21.1647 6.26277 21.6041 6.20217 22.0586 6.15671C22.7252 6.05066 23.407 5.88401 24.0736 5.71735C25.0281 5.55069 26.028 5.49009 26.9825 5.49009C27.2552 5.49009 27.4825 5.49009 27.7704 5.42949C28.437 5.36889 29.1642 5.42949 29.8308 5.49009C30.8914 5.59615 31.8458 5.8234 32.8458 6.05066C33.0124 6.11126 33.2397 6.11126 33.4063 6.21732C34.3608 6.65668 35.4213 7.05059 36.3152 7.77782C37.6636 8.9444 38.603 10.3989 38.9363 12.1866C39.209 13.5805 39.209 15.0349 38.9969 16.4893L39.0423 16.459ZM8.08986 15.3985L8.02926 15.4591C8.02926 15.4591 7.99391 15.4793 7.92321 15.5197C7.92321 15.5197 8.02926 15.4591 8.08986 15.4137V15.3985ZM10.2109 11.7169C10.2109 11.7169 10.1049 11.7169 10.0443 11.7775C9.93822 11.8381 9.87762 11.8836 9.77157 12.0048L10.1049 11.8381C10.1049 11.8381 10.2715 11.7775 10.2109 11.7321V11.7169ZM13.8925 39.4878C13.8925 39.4878 13.8319 39.3817 13.7258 39.3817C13.4986 39.3211 13.2713 39.4423 13.1047 39.4878C12.2714 39.7605 11.423 39.9878 10.5291 40.0484L9.96852 40.215L9.90792 40.2756C9.90792 40.3362 9.90792 40.3817 9.96852 40.3817C10.0291 40.4423 10.0746 40.4423 10.1352 40.4423C10.1958 40.4423 10.3018 40.3817 10.3624 40.5029H10.1352C10.0291 40.5029 9.96852 40.5635 9.96852 40.6089C9.96852 40.6544 10.0746 40.715 10.1352 40.715C10.9685 40.7756 11.7563 40.6089 12.5441 40.2756C12.5441 40.2756 12.6047 40.2756 12.6047 40.215C12.6653 40.215 12.6653 40.1544 12.6047 40.109H12.5441C12.5441 40.109 12.4835 40.109 12.4381 40.0484C12.8926 39.8817 13.2259 39.6545 13.7258 39.7757H13.7864C13.8925 39.7151 13.9531 39.609 13.8925 39.5029V39.4878ZM10.4836 38.7606L10.3776 38.8212C10.3776 38.8212 10.3776 38.7606 10.4382 38.7151C10.4382 38.6545 10.4988 38.6545 10.4988 38.7151V38.7757L10.4836 38.7606ZM11.6048 40.2756C11.6048 40.2756 11.6048 40.3362 11.5442 40.3362C11.5442 40.3362 11.5644 40.316 11.6048 40.2756ZM12.3926 40.0484H12.4532L12.3926 40.109C12.1653 40.109 11.9532 40.1696 11.7714 40.215L12.3926 40.0484ZM12.0593 10.5958C12.0593 10.5958 12.0593 10.6564 11.9987 10.6564C11.9987 10.6564 11.9381 10.717 11.9381 10.7625C11.9381 10.7019 11.9987 10.7019 12.0441 10.7019C12.0441 10.7019 12.0441 10.6665 12.0441 10.5958H12.0593ZM13.2865 11.6563L12.9532 11.823C12.6199 11.9291 12.4532 12.0957 12.5593 12.1563C12.7259 12.1563 12.8926 12.0503 12.9986 11.9291C13.1047 11.8684 13.2259 11.7624 13.2713 11.6563H13.2865ZM34.3457 7.52026C34.3457 7.4142 34.2396 7.293 34.1184 7.24755C33.9518 7.1415 33.7851 7.08089 33.6184 7.02029C31.3762 6.18702 29.043 5.95976 26.6341 6.18702C26.2402 6.18702 25.9068 6.24762 25.5129 6.29307C24.9524 6.35367 24.3918 6.39912 23.8312 6.56578C23.3919 6.67183 22.9979 6.95969 22.4828 6.79304C22.4222 6.79304 22.3768 6.79304 22.3162 6.85364C21.8768 7.12635 21.3617 7.12635 20.8617 7.18695C20.6345 7.24755 20.4072 7.3536 20.1951 7.3536C19.6345 7.45966 19.1952 7.68691 18.6801 7.97477C18.4073 7.97477 18.0589 8.03538 17.7862 8.14143C16.4984 8.53534 15.2712 9.03531 14.044 9.59588C13.7107 9.70193 13.3774 9.82313 13.1501 10.1564C13.0441 10.1564 12.9835 10.1564 12.9229 10.217C12.8623 10.217 12.8623 10.2776 12.8168 10.2776H12.9229C13.0289 10.217 13.0895 10.1716 13.1501 10.1716C13.3774 10.0655 13.6046 10.0049 13.7713 9.94434C15.2257 9.32317 16.6196 8.77775 18.074 8.32323L18.6952 7.98992C19.5285 7.98992 20.2557 7.71722 21.0435 7.55056C21.8768 7.3233 22.6646 7.15665 23.5585 7.05059L25.2402 6.88394C25.3463 6.88394 25.5735 6.88394 25.6341 6.71728C25.6947 6.44457 25.9068 6.44457 26.0735 6.49003H29.5884C29.3612 6.55063 29.1339 6.55063 28.9218 6.55063H28.134C27.9067 6.55063 27.6946 6.55063 27.4673 6.61123C27.1946 6.61123 26.9674 6.61123 26.7401 6.71728C26.9674 6.77788 27.1946 6.77788 27.4067 6.77788C29.1945 6.77788 30.9217 6.94454 32.6034 7.39905C32.8306 7.39905 33.0427 7.45966 33.2245 7.39905C33.4518 7.33845 33.6639 7.39905 33.7851 7.56571C33.8912 7.67176 34.0578 7.73237 34.179 7.79297C34.2396 7.79297 34.2851 7.73237 34.3457 7.73237V7.56571V7.52026ZM13.7258 31.3823C13.7258 31.3823 13.7864 31.3217 13.8319 31.3217C13.8319 31.2611 13.8925 31.2156 13.8925 31.155C13.8319 31.2156 13.7864 31.2156 13.7864 31.2611C13.7258 31.2611 13.7258 31.3217 13.7258 31.3671V31.3823ZM13.9531 31.049C14.1198 30.8823 14.2864 30.6551 14.3925 30.3824C14.1198 30.549 13.9531 30.7763 13.9531 31.049ZM17.9225 37.5788C17.7559 37.6394 17.5892 37.7455 17.468 37.9121C17.1953 37.9121 17.0287 38.0182 16.8468 38.1849C16.3469 38.2455 15.8924 38.4121 15.6197 38.806H15.2863C15.2257 38.9121 15.1197 39.0333 15.0136 39.1393C15.2409 39.0787 15.453 38.9727 15.6348 38.806C16.1348 38.806 16.5287 38.5788 16.862 38.1849C17.0893 38.1849 17.3165 38.0788 17.4832 37.9121C17.6498 37.8061 17.8165 37.7455 17.9377 37.5788H17.9225ZM16.5287 10.3079L16.4681 10.2473C16.4681 10.2473 16.362 10.3079 16.3014 10.3079C16.2408 10.3079 16.2408 10.3686 16.2408 10.3686C16.2408 10.4292 16.2408 10.4746 16.3014 10.4292C16.4075 10.4292 16.4681 10.4292 16.5287 10.3686V10.3079ZM17.4832 39.5938C17.4832 39.5938 17.3165 39.6545 17.2559 39.6545C17.1953 39.6545 17.1953 39.7151 17.1499 39.7605H17.3165L17.4832 39.5938ZM18.7104 37.1395C18.5437 37.2001 18.4376 37.2455 18.3164 37.4122C18.4831 37.3516 18.5892 37.3061 18.7104 37.1395ZM19.5436 26.019H19.483L19.5436 25.9584V26.019ZM19.7709 36.4728C19.7709 36.4728 19.8315 36.4122 19.8769 36.4122H19.8163L19.7557 36.4728H19.7709ZM33.7851 8.86865C33.5124 8.59594 33.1185 8.47474 32.7246 8.36869C31.2095 7.86872 29.7096 7.70206 28.1491 7.70206C27.028 7.76267 25.8614 7.80812 24.6797 7.92932C23.2858 8.09598 21.9374 8.38384 20.5436 8.7626C20.3163 8.8232 20.1497 8.92925 19.9224 9.03531C20.1497 9.26256 20.3618 9.20196 20.589 9.14136C21.4223 8.9141 22.2707 8.74745 23.1646 8.58079C24.8918 8.18688 26.6795 8.08083 28.4673 8.12628C29.1339 8.12628 29.8157 8.18688 30.4823 8.23233C31.4822 8.39899 32.3761 8.62624 33.3306 8.8535C33.4972 8.9141 33.6033 9.02016 33.7699 8.8535L33.7851 8.86865ZM20.7102 35.7911H20.6496L20.5436 35.8971C20.3163 35.9577 20.0891 36.1244 19.9224 36.3365C20.1951 36.2304 20.3618 36.1092 20.5436 35.8971C20.6042 35.8365 20.6496 35.8365 20.6496 35.8365C20.7102 35.8365 20.7557 35.7759 20.7102 35.7759V35.7911Z" fill="#E6E6E5"/>
<path d="M56.9199 38.3667C56.7532 38.4273 56.5866 38.4273 56.4199 38.4728C54.6322 38.7455 52.8444 38.9727 50.996 39.0333C50.3749 39.0939 49.7082 39.1394 49.1022 39.1394C48.0417 39.2 46.9812 39.0333 45.9206 38.9727H45.254L45.1479 39.0333C45.1479 39.0939 45.2085 39.1394 45.254 39.1394C45.3601 39.2 45.4813 39.2454 45.5873 39.2454C46.4206 39.4727 47.3145 39.5182 48.2083 39.5182C49.4355 39.5788 50.6627 39.5182 51.8899 39.4121C53.0565 39.2454 54.2382 39.1394 55.4048 39.0182C55.7987 38.9576 56.1927 38.8515 56.5714 38.7909H56.6775C56.6775 38.7909 56.6775 38.897 56.6169 38.897L56.4502 39.003C56.223 39.0636 56.0108 39.1091 55.7836 39.1091C53.1626 39.503 50.4809 39.7757 47.8447 39.7757C46.6781 39.7757 45.4964 39.6697 44.3753 39.4424C43.3753 39.2151 42.4815 38.7152 41.7542 37.988C41.2543 37.488 40.9664 36.9274 40.7998 36.2002C40.6937 35.473 40.4058 35.3669 39.8453 35.8669L39.012 36.5335C39.012 36.5335 38.9059 36.6396 38.8453 36.7002H39.012C39.012 36.7002 38.9059 36.8062 38.8453 36.8668C38.4514 37.0941 38.0121 37.3668 37.6182 37.7001C37.5121 37.8061 37.3454 37.8667 37.1788 37.9273L36.8455 38.2607C36.7849 38.3667 36.6788 38.4879 36.5728 38.5334H36.4061C36.3001 38.6394 36.1789 38.8061 36.1334 38.9727C36.0728 39.306 35.8001 39.4272 35.6334 39.6394C35.5274 39.7454 35.4062 39.806 35.3001 39.806C35.0729 39.7454 34.9062 39.8666 34.9062 40.0787C34.8456 40.306 34.679 40.5181 34.5123 40.6999C33.8911 41.4877 33.1185 42.1543 32.3912 42.821C32.2246 43.0482 31.664 42.927 31.558 42.5937C31.4519 42.427 31.3913 42.2604 31.164 42.1543C30.9368 42.0483 30.8913 41.8816 30.9368 41.6544C30.9368 41.2605 30.9974 40.8211 30.8307 40.4272C30.7701 40.1545 30.9368 39.8666 31.058 39.6394C31.8458 38.291 32.6185 37.0183 33.4063 35.7305C33.6336 35.3366 33.8457 35.0033 34.1335 34.6094C34.3608 34.3367 34.6941 34.3367 34.8608 34.7154C34.9214 34.8215 34.9214 34.9882 34.9668 35.1094C35.1335 35.3821 35.3607 35.5033 35.6334 35.3366C35.8001 35.276 35.9061 35.17 36.0728 35.0639C36.5728 34.6245 37.0727 34.17 37.5878 33.7761C38.3151 33.1549 39.0423 32.4883 39.9362 32.0944C40.1634 32.0338 40.3755 31.9278 40.6634 31.8672C41.0573 31.7611 41.3906 31.8672 41.5573 32.2611C41.9512 33.0489 42.3451 33.7761 42.3906 34.67C42.3906 34.776 42.3906 34.8972 42.4512 35.0639C42.4512 35.3366 42.6178 35.5639 42.8905 35.6851C42.9966 35.7457 43.1178 35.7911 43.1632 35.8517C44.451 36.2456 45.7388 36.579 47.0721 36.579C47.572 36.579 48.072 36.6396 48.5871 36.6396C48.8598 36.7002 49.1477 36.7002 49.4204 36.6396C49.9809 36.579 50.587 36.579 51.1475 36.579C52.602 36.6396 54.0564 36.3517 55.5109 36.4123C55.7836 36.4123 56.1321 36.3062 56.4654 36.2456H56.9653C57.0714 36.2456 57.1926 36.3062 57.1926 36.4729C57.2532 36.579 57.1926 36.7002 57.0865 36.7456C56.9199 36.8517 56.7532 36.9729 56.526 36.9729C56.3593 37.0335 56.1927 37.0335 56.026 37.0789C55.9654 37.0789 55.9199 37.1395 55.9199 37.1395C55.9199 37.2456 55.9805 37.3062 56.0866 37.3062C56.2533 37.2456 56.4805 37.2456 56.7078 37.2456C57.1471 37.1395 57.3744 37.3516 57.435 37.6395C57.4956 37.9122 57.2683 38.1395 56.935 38.3061L56.9199 38.3667ZM40.4967 32.8368L40.4361 32.7762V32.8368H40.4967ZM54.7988 37.3062C53.7383 37.3668 52.7383 37.4728 51.7233 37.4728C49.7082 37.5334 47.7538 37.5789 45.7994 37.4122C45.6934 37.3516 45.5267 37.3062 45.5267 37.5183C45.9812 37.7455 46.4812 37.6849 46.9206 37.8516H46.1933C46.5872 38.0789 47.0266 38.1243 47.4811 38.1243C49.3295 38.2304 51.1627 38.1849 53.0111 37.9576C53.1171 37.897 53.2383 37.897 53.3444 37.8516H51.1021C51.3748 37.7455 51.7233 37.7455 52.0566 37.6849C52.8444 37.6243 53.6171 37.5789 54.3443 37.4577C54.4503 37.4577 54.511 37.4577 54.5716 37.3971C54.6776 37.3971 54.7988 37.3971 54.7988 37.291V37.3062ZM51.1172 37.8667C50.8445 37.9273 50.6173 37.9728 50.3294 37.9728H47.6478C47.4205 37.9728 47.1478 37.9122 46.9206 37.8667C48.3144 37.9273 49.7082 37.8667 51.1172 37.8667ZM54.0261 37.8061C54.0261 37.8061 53.9201 37.7455 53.8595 37.7455C53.7989 37.7455 53.6928 37.7455 53.6322 37.8061H54.0261Z" fill="#E6E6E5"/>
<path d="M79.7211 35.1851C79.8878 35.6245 79.6151 35.7457 79.3272 35.8063C78.6 35.9729 77.994 36.3668 77.3122 36.7001C76.3577 37.1395 75.4638 37.4274 74.4033 37.4274C73.4034 37.4274 72.3428 37.5334 71.3277 37.594C70.1612 37.7607 69.04 37.7001 67.8583 37.488C67.1311 37.3819 66.3432 37.2607 65.616 37.0486C65.4494 36.988 65.2827 36.988 65.1766 36.9426C64.7373 36.8819 64.5555 36.9426 64.3434 37.3365C64.2373 37.6698 64.1161 38.0031 63.9495 38.3364C63.5555 38.8364 63.0556 39.3363 62.6162 39.8514C62.5556 39.912 62.5102 40.0181 62.5556 40.0181C62.8283 40.412 62.4496 40.5181 62.2223 40.6393C61.4345 41.1998 60.5406 41.5332 59.6013 41.7604C57.5408 42.1543 56.0864 40.6999 55.7985 39.2454C55.7379 38.6849 55.6318 38.1849 55.6318 37.6243C55.6318 36.791 55.9045 36.0638 56.4197 35.382C57.0408 34.4882 57.8741 33.7003 58.7074 32.9731C58.9801 32.7004 59.374 32.5792 59.8285 32.5338C60.0558 32.4732 60.2679 32.5944 60.2679 32.7004C60.2679 32.8671 60.0406 32.8671 59.9346 32.9731C59.874 32.9731 59.8285 32.9731 59.8285 33.0337C59.7679 33.0943 59.7679 33.1398 59.7679 33.2004L59.9346 33.367H60.0406C60.48 33.2004 60.9345 33.1398 61.2072 32.7459C61.4799 32.352 61.6466 32.352 61.995 32.5792C63.8889 33.867 66.0251 34.2609 68.2522 34.4276C69.0855 34.4882 69.9339 34.5336 70.7672 34.4882L73.9488 34.3215C74.4487 34.2609 74.9487 34.2155 75.4638 34.2155C75.8577 34.2155 76.1911 34.2155 76.5244 34.1094C76.8577 34.0488 77.191 33.9428 77.5243 33.9428C77.7516 34.0034 77.9788 33.8822 78.1909 33.7761L78.8121 33.5034C79.206 33.3367 79.3727 33.4428 79.4787 33.8367C79.5393 34.0034 79.5393 34.2306 79.706 34.3367C79.8726 34.6094 79.9332 34.8366 79.706 35.1245V35.2305L79.7211 35.1851ZM62.1768 35.8517L61.3436 34.7912C61.0709 34.5185 60.783 34.4579 60.4497 34.6851C60.283 34.7912 60.1164 34.9124 60.0103 35.0184L59.3437 35.5184C58.7831 35.8517 58.3438 36.3062 58.1771 36.9729C58.2832 36.9729 58.3438 37.0789 58.2377 37.2001C58.0711 37.5334 57.8438 37.8667 57.7378 38.2606C57.6772 38.594 57.7378 38.7606 58.0711 38.7606C58.7377 38.8212 59.3589 38.7606 59.9649 38.4273C60.7982 37.9879 61.4799 37.4274 61.9799 36.7001C62.0859 36.5941 62.1465 36.4274 62.2526 36.3062C62.3132 36.1396 62.3132 35.9729 62.192 35.8669L62.1768 35.8517ZM59.268 39.9878C59.6619 40.1545 59.9346 39.9878 60.2679 39.8211V39.7605L60.2073 39.6999H59.8134C60.0406 39.5939 60.2073 39.4272 60.4345 39.2454C59.9346 39.306 59.4346 39.4121 58.9801 39.5787C58.9195 39.5787 58.9195 39.6393 58.9195 39.6848C58.9195 39.7908 58.9801 39.7908 59.0255 39.7908C59.0861 39.8514 59.1316 39.8514 59.1922 39.8514C59.1922 39.912 59.2528 39.9575 59.2528 39.9575L59.268 39.9878ZM61.389 40.6544L61.283 40.5484C61.1769 40.609 61.0557 40.609 60.9497 40.609C60.4951 40.7756 60.0558 40.8817 59.5558 41.0483L59.3892 41.1544C59.3892 41.1544 59.3286 41.215 59.3286 41.2604C59.3286 41.3059 59.3892 41.321 59.4346 41.3665H59.5407C59.9346 41.3665 60.3285 41.2604 60.7679 41.0938C60.9345 41.0332 61.2072 40.9271 61.3284 40.7605C61.389 40.7605 61.389 40.6544 61.389 40.6544ZM64.0101 38.6394C64.0101 38.6394 63.904 38.7455 63.904 38.8061V38.7455C63.904 38.7455 63.9646 38.6849 64.0101 38.6394ZM64.0101 38.3061H64.1161C64.0555 38.4121 64.0101 38.5334 64.0101 38.6394V38.3061ZM69.04 35.5184C69.3127 35.5184 69.6006 35.579 69.8278 35.579H72.1762C72.2822 35.579 72.4489 35.5184 72.6307 35.7457H71.0702C71.2368 35.8517 71.3429 35.8517 71.4035 35.8517C72.7973 35.9123 74.1457 35.7457 75.479 35.6851C75.6456 35.6851 75.8729 35.6245 76.0395 35.579C76.2062 35.5184 76.3123 35.5184 76.4335 35.3517C76.6607 35.079 76.9334 34.9578 77.2667 34.8518C77.494 34.7912 77.7061 34.7457 77.9334 34.6245C77.994 34.6245 78.0394 34.5639 77.994 34.4579C77.994 34.3973 77.8879 34.3973 77.8273 34.4579C77.7213 34.4579 77.6 34.5185 77.5546 34.5185C76.994 34.7912 76.4335 34.9124 75.8274 34.973C74.873 35.079 73.9336 35.2002 72.9791 35.2457C71.752 35.2457 70.5248 35.3517 69.2976 35.4123C69.237 35.4123 69.1309 35.4123 69.0703 35.5184H69.04ZM78.2515 35.7911C77.9182 35.6245 77.6304 35.8972 77.3576 36.0184C76.8577 36.2456 76.3577 36.4577 75.8426 36.5183C75.282 36.6244 74.7215 36.685 74.1609 36.7456C72.6458 36.8062 71.1914 36.9122 69.6915 36.9122C69.4642 36.9122 69.2521 36.9122 69.0249 37.0183C69.1309 37.185 69.3582 37.185 69.5248 37.185C69.9187 37.2456 70.3127 37.291 70.752 37.2456C72.1004 37.2456 73.4337 37.1395 74.7821 37.0789C75.782 37.0183 76.6759 36.8062 77.5243 36.2911C77.7516 36.1244 78.0849 36.0638 78.2515 35.7911ZM74.6154 35.5184H73.7215V35.4578H74.6154V35.5184ZM75.6759 35.3517H75.6153C75.6153 35.3517 75.6759 35.2911 75.7214 35.2911L75.782 35.3517H75.6759Z" fill="#E6E6E5"/>
<path d="M97.2045 36.5183L96.7045 36.685C94.9167 37.3061 93.129 37.9122 91.4018 38.6394C89.7201 39.306 88.0536 40.0938 86.4325 40.8211L84.4781 41.6089C84.2508 41.7149 83.9781 41.8361 83.7508 42.0483V42.1543L83.8569 42.2149C84.2508 42.1089 84.6447 41.9422 85.0235 41.7604C86.1446 41.2604 87.2657 40.7605 88.3717 40.3059C88.9323 40.0332 89.5383 39.8666 90.0989 39.6393C91.826 38.7454 93.6138 38.1243 95.3561 37.3971C95.7955 37.2304 96.3106 37.1243 96.75 37.0637C96.856 37.0031 96.9772 37.0031 97.0227 37.1243C96.9621 37.1849 96.9166 37.2304 96.856 37.2304C94.7955 37.897 92.7805 38.6848 90.8261 39.5787C89.099 40.3665 87.3112 41.0938 85.5234 41.8664C85.0841 42.0331 84.6296 42.2604 84.1296 42.4876C83.6902 42.7149 83.2357 42.8815 83.0691 43.3815C83.0085 43.4876 82.9024 43.6088 82.7964 43.6542C82.2964 43.9875 82.0691 44.4875 81.7964 45.0026C81.2358 46.0631 80.6298 47.0631 80.0693 48.0781C79.842 48.4721 79.6299 48.8054 79.5693 49.1993C79.4026 49.3053 79.236 49.472 79.1299 49.6387C78.6906 50.6386 77.9633 51.5325 77.3422 52.4869C77.1755 52.7142 77.0695 52.9869 76.9483 53.2142H77.1149C77.0543 53.3808 77.0089 53.4869 76.8422 53.6081C76.115 54.108 75.6756 54.8353 75.1151 55.5625C75.009 55.6685 74.9484 55.8352 75.009 56.0625C75.009 56.3352 74.8423 56.5624 74.6757 56.7897C73.5546 58.0775 72.494 59.4107 71.3729 60.6985C70.9335 61.3197 70.3729 61.8651 69.8578 62.4257C68.1761 64.1074 66.555 65.7739 64.8279 67.3496C64.1006 68.0162 63.3128 68.6374 62.4795 69.1979C62.3129 69.304 62.1462 69.3646 62.0402 69.4706C60.8736 70.2585 59.7525 70.1373 58.6313 69.304C58.4647 69.1979 58.298 69.0767 58.1919 68.9101C57.4041 67.6223 56.8436 66.3345 57.192 64.774C57.4647 63.2135 58.0253 61.8196 58.7071 60.4107C59.3737 59.0623 60.2676 57.8351 60.9493 56.5018C61.222 56.0019 61.5705 55.5473 61.9493 55.0474C62.7825 54.0474 63.5098 52.9263 64.5249 51.9718C64.8582 51.6991 65.146 51.3507 65.4187 51.0173C65.6914 50.6234 66.0399 50.2295 66.4793 49.8962L66.6459 49.7296C67.0398 49.2296 67.5398 48.8357 68.0398 48.4418C68.6003 48.0024 69.1003 47.4873 69.6609 46.9873C70.8275 46.0328 72.1153 45.139 73.4636 44.4117C73.797 44.2451 74.1303 44.0178 74.4636 43.7906C74.8575 43.5179 75.2969 43.2906 75.6908 43.0633C76.6452 42.5634 77.5391 42.1695 78.433 41.6695C79.0996 41.2756 79.7814 41.0483 80.448 40.7756C80.5541 40.6696 80.7813 40.609 80.948 40.5484L81.2813 40.3817C82.0691 39.9878 82.4024 38.2 81.9025 37.5334C81.6752 37.3061 81.4025 37.1395 81.1146 37.0334C80.3874 36.7607 79.6602 36.7607 78.933 36.6395C78.5997 36.6395 78.3118 36.6395 77.9785 36.5789C77.9179 36.5789 77.8724 36.5789 77.8724 36.5183C77.8118 36.4123 77.933 36.4123 77.9785 36.4123C78.4785 36.4123 78.933 36.3517 79.3723 36.3517C79.539 36.3517 79.7662 36.4123 79.9329 36.2456C79.8268 36.2456 79.7663 36.185 79.7056 36.185C79.2057 36.185 78.7057 36.1244 78.1451 36.1244C77.6906 36.1244 77.2513 36.185 76.7968 36.185C76.6907 36.185 76.5695 36.185 76.524 36.079C76.524 35.9729 76.6301 35.8517 76.6907 35.8517L77.1301 35.685C77.63 35.6244 78.0845 35.5184 78.5845 35.4578L79.0239 35.3517C78.9178 35.1245 79.0845 35.1851 79.1905 35.1851C79.3572 35.1851 79.5238 35.1851 79.6299 35.1245C79.736 35.1245 79.9632 35.1245 79.9026 34.9578C79.9026 34.8518 79.736 34.8518 79.6299 34.8518C78.9027 34.9124 78.2361 34.9578 77.5694 35.1245C77.4028 35.1245 77.2361 35.1851 77.0695 35.1851L77.0089 35.1245V35.0184C77.1149 34.9124 77.2816 34.7912 77.4482 34.7457C78.3421 34.473 79.2966 34.2458 80.2359 34.3064C81.2964 34.367 82.1297 34.8063 82.6448 35.8214C83.0388 36.6092 83.3115 37.3819 83.4781 38.2303L83.6448 38.7303C83.7054 39.003 83.9175 39.1242 84.2659 39.0636C84.3265 39.003 84.4326 38.9576 84.5387 38.897C85.7658 38.2303 87.1142 37.7758 88.3869 37.1698C89.3868 36.7153 90.5079 36.382 91.5685 36.0032C92.4624 35.7305 93.3562 35.382 94.2501 35.1093C94.9167 34.9427 95.644 34.8366 96.3106 34.7154C96.4772 34.6548 96.6439 34.6548 96.8106 34.776C96.9166 34.8821 96.9166 35.1093 96.8106 35.1699C96.5833 35.276 96.4166 35.3366 96.1894 35.3972C95.8561 35.5032 95.4622 35.5638 95.1288 35.7911H95.0682C94.9016 35.8517 94.6743 35.7305 94.5683 36.0184C94.7349 36.0184 94.9016 35.9123 95.0682 35.8517C95.0682 35.7911 95.1288 35.7911 95.1288 35.7911C95.2955 35.7911 95.4622 35.7911 95.6894 35.7305C95.8561 35.6699 96.0833 35.6699 96.25 35.7911C96.4166 35.8972 96.5833 35.8517 96.8106 35.8517C96.9166 35.8517 97.0378 35.9123 97.1439 35.9578C97.3711 36.0184 97.4166 36.3971 97.2045 36.5183ZM78.7057 45.2299C78.7057 45.2299 78.5997 45.1693 78.5391 45.1693C77.9785 45.5026 77.4179 45.7904 76.918 46.0631C75.918 46.5631 74.9635 47.1843 74.0091 47.7903C73.8424 47.8509 73.7818 48.0175 73.6758 48.1236C73.3424 48.2297 73.0546 48.3963 72.7213 48.6236C71.3274 49.578 70.1002 50.684 68.7518 51.7446L68.3579 52.1385C67.6307 52.9263 66.9035 53.6535 66.1763 54.4262C66.0096 54.5929 65.7823 54.8201 65.5551 54.9262C65.2218 55.0928 65.0551 55.2595 65.0551 55.6534C64.9945 56.0928 64.7824 56.32 64.2673 56.6079C64.3733 56.3806 64.4946 56.1534 64.54 55.9867C63.9794 56.4261 63.5855 57.0472 63.1462 57.5472L63.0401 57.8199C62.9795 57.9866 63.0401 58.0472 63.2674 58.1532C62.9947 58.4865 62.6007 58.7744 62.4341 59.2138H62.3735C62.4795 59.2744 62.4795 59.3804 62.4795 59.4865C62.3735 59.7137 62.2523 59.8804 61.9796 59.941C61.7523 60.0016 61.6463 60.2137 61.4796 60.3804C61.313 60.6531 61.2069 61.0015 61.0857 61.2742C60.919 61.6681 60.813 62.0621 60.5857 62.3954C60.4191 62.6226 60.3585 62.8347 60.2524 63.062L59.5858 64.8497C59.3585 65.3497 59.2525 65.8497 59.2525 66.4102C59.2525 66.5163 59.2525 66.683 59.4191 66.683C59.5858 66.683 59.6918 66.7436 59.7524 66.8496C59.9797 67.0163 60.2524 67.0163 60.4797 66.9102L60.813 66.683C61.4796 66.1224 62.2068 65.6224 62.8735 65.0013C63.8734 64.0013 64.8885 62.9408 65.949 61.9257C66.1763 61.653 66.3429 61.3651 66.6156 61.1379C67.2368 60.6985 67.7368 60.1379 68.2367 59.5774L69.4033 58.4108C70.0699 57.5775 70.7972 56.7897 71.4183 55.8958C72.1456 54.9413 72.8728 54.002 73.6606 53.1536C74.1606 52.5324 74.6151 51.9264 75.0544 51.3052C75.2817 51.0779 75.4484 50.8052 75.5544 50.5174C75.7817 50.078 76.0544 49.6235 76.3877 49.2296C77.1149 48.2751 77.6755 47.2752 78.2815 46.2752C78.5088 45.9419 78.3876 45.548 78.6754 45.2753C78.736 45.2147 78.736 45.1693 78.6754 45.1693L78.7057 45.2299ZM60.9948 68.0768C61.3887 67.9707 61.722 67.7435 62.0553 67.5162C62.8431 66.9557 63.5098 66.289 64.1764 65.6224C64.4491 65.3952 64.6764 65.1225 64.7976 64.8346C64.7976 64.6679 64.9036 64.5619 65.0703 64.5013C65.6308 64.274 65.9642 63.7741 66.3581 63.3347C66.4187 63.2286 66.4641 63.1074 66.3581 63.062C66.2975 62.9559 66.1914 63.0014 66.1308 63.1226C65.9642 63.2286 65.8581 63.4559 65.6914 63.5771C65.1309 63.8044 64.737 64.2437 64.3431 64.6982C63.1159 65.8648 61.8281 66.986 60.313 67.7738C60.207 67.8344 60.0858 67.8798 60.0858 68.0465L60.8736 67.8798C60.813 67.9859 60.813 68.1071 60.9796 68.1071L60.9948 68.0768ZM69.3276 62.259C69.3276 62.259 69.1609 62.1984 69.1003 62.259L68.7064 62.5923C67.8731 63.3801 67.0853 64.2134 66.2975 65.0013C65.8429 65.4558 65.4036 65.8951 64.9491 66.289C63.8279 67.289 62.7068 68.3041 61.3735 68.9707C61.2675 69.0313 61.1463 69.1373 61.0402 69.2434C60.9796 69.2434 60.9796 69.304 60.9796 69.3494L61.0402 69.41C61.2069 69.41 61.3736 69.3494 61.4796 69.304C62.0402 69.0767 62.4795 68.804 62.9341 68.4707C63.6007 68.0314 64.2218 67.4708 64.7824 66.9557C65.6763 66.1224 66.5096 65.2285 67.4035 64.4407C67.6307 64.274 67.9034 64.0468 68.0701 63.8195C68.3428 63.3801 68.6912 62.9862 69.07 62.6529L69.2973 62.4257V62.259H69.3276ZM63.3431 58.1835H63.2825L63.3431 58.1229V58.1835ZM65.6914 54.4414C65.6914 54.4414 65.6914 54.5474 65.752 54.502C65.8126 54.502 65.8581 54.4414 65.9187 54.3959C65.8581 54.3353 65.8126 54.2899 65.8126 54.3353C65.752 54.3959 65.7066 54.3959 65.7066 54.4414H65.6914ZM66.9186 50.8658C67.1913 50.8052 67.3731 50.6386 67.5398 50.3053C67.2671 50.4719 67.1004 50.6386 66.9186 50.8658ZM69.3276 60.1985C69.4336 60.0925 69.4336 59.9713 69.4942 59.9258C69.2215 60.0319 69.1003 60.1985 68.9336 60.3652L68.1458 61.0924H67.9792C67.8731 61.2591 67.7519 61.4257 67.7065 61.653V61.759C67.7065 61.759 67.8731 61.8196 67.9337 61.759C68.3731 61.1985 68.8882 60.6985 69.3276 60.1985ZM68.161 51.8203C68.161 51.8203 68.161 51.8809 68.2216 51.8809C68.2822 51.9415 68.4943 51.7143 68.4943 51.6082V51.5476C68.3882 51.487 68.161 51.7143 68.161 51.8203ZM68.7821 49.1993C68.7821 49.1993 68.8427 49.1993 68.8882 49.1387C68.9488 49.1387 68.9488 49.0781 68.8882 49.0781H68.8276L68.767 49.1841L68.7821 49.1993ZM71.0699 58.032C70.8426 58.1987 70.676 58.3653 70.6305 58.6532C70.176 58.9865 69.7366 59.3198 69.57 59.8198C70.0699 59.4865 70.4032 59.1532 70.6305 58.6532C70.8578 58.4865 71.0244 58.2593 71.0699 58.032ZM70.9032 60.6531C70.5093 60.7137 70.176 60.9258 69.9487 61.3197C69.9487 61.3803 69.8881 61.4863 69.9487 61.4863C70.0093 61.5924 70.1154 61.5469 70.2214 61.4863C70.4941 61.2591 70.7214 61.047 70.8881 60.6531H70.9032ZM70.282 47.9721C70.5093 47.9115 70.6154 47.8054 70.782 47.6994C70.5548 47.76 70.4487 47.866 70.282 47.9721ZM70.9487 47.5327C71.2214 47.4721 71.388 47.3055 71.6153 47.1994C72.6152 46.5328 73.6758 45.851 74.6908 45.139C74.7514 45.139 74.7969 45.0784 74.8575 44.9723C74.8575 44.9723 74.8575 44.9117 74.7969 44.8662C74.7969 44.8056 74.7363 44.7602 74.6908 44.7602C74.2515 44.9268 73.797 45.0935 73.5697 45.4874C73.403 45.7147 73.2364 45.8813 73.0091 45.9874L72.0092 46.6086C71.6153 46.8813 71.1759 47.1085 70.9487 47.563V47.5327ZM72.5698 56.3049C72.5698 56.3049 72.6304 56.1988 72.5698 56.1382C72.5092 56.1382 72.4637 56.1382 72.4031 56.1988C72.0698 56.6988 71.6153 57.1533 71.4032 57.7139C71.8425 57.32 72.2971 56.8806 72.5698 56.32V56.3049ZM72.1759 48.4872C72.1759 48.4872 72.1152 48.5478 72.1152 48.5933C72.1152 48.5933 72.1355 48.5731 72.1759 48.5327C72.1759 48.5327 72.2819 48.4721 72.2819 48.4266C72.2819 48.4266 72.2466 48.4468 72.1759 48.4872ZM72.2819 59.1077H72.2213V59.1683L72.2819 59.1077ZM72.4486 48.3206C72.6152 48.2145 72.7819 48.0933 72.8879 47.9872C72.7213 48.0478 72.5546 48.1539 72.4486 48.3206ZM73.0091 58.2593C73.0091 58.2593 72.9031 58.2593 72.9031 58.3199C72.8425 58.3805 72.797 58.4259 72.797 58.4865L72.9637 58.3805C72.9637 58.3805 72.9637 58.2744 73.0243 58.2744L73.0091 58.2593ZM73.1758 55.411C73.1758 55.411 73.1152 55.3504 73.0697 55.4716H73.1303L73.1909 55.411H73.1758ZM73.6758 48.3206V48.1539H74.0091L73.6758 48.3206ZM74.0091 47.1994H73.903C73.903 47.1994 73.8424 47.3055 73.903 47.3055C73.9636 47.3055 74.0091 47.2449 74.0697 47.2449C74.0091 47.2449 74.0091 47.1843 74.0091 47.1843V47.1994ZM74.2818 47.9872L74.0091 48.1539C74.0091 48.1539 74.1757 48.0478 74.2818 47.9872ZM75.2363 46.4722H75.3423C76.1301 46.0328 76.9028 45.6844 77.63 45.1238V45.0632C76.7362 45.2905 76.0695 45.7904 75.2817 46.2298C75.2817 46.2298 75.2615 46.25 75.2211 46.2904C75.2211 46.2904 75.1605 46.3964 75.2211 46.457L75.2363 46.4722ZM75.8574 44.4572C76.1907 44.3511 76.4786 44.1845 76.6452 43.8966C76.7059 43.836 76.7059 43.73 76.6452 43.6694C76.5846 43.6694 76.4786 43.6694 76.418 43.73C76.2513 43.9572 76.0241 44.1693 75.8574 44.4572ZM77.3725 52.896C77.3725 52.896 77.4785 52.8354 77.5391 52.79L77.3725 52.9566C77.3725 52.9566 77.3119 53.0172 77.2664 53.0627C77.2664 53.0021 77.327 52.9566 77.3725 52.896ZM77.8724 52.2748L77.9785 52.0021C77.9785 52.1082 77.9179 52.2294 77.8724 52.2748ZM78.6603 44.4572C78.5542 44.5178 78.433 44.6238 78.327 44.7299L78.7663 44.6238C78.933 44.5178 79.1602 44.5178 79.2057 44.2905C79.2663 44.1845 78.933 44.2299 78.6451 44.4572H78.6603ZM79.4935 49.5477C79.4935 49.4417 79.5541 49.3205 79.5541 49.2144C79.6147 49.2144 79.6147 49.1538 79.6602 49.1538C79.7208 49.0932 79.7208 49.0478 79.7663 49.0478C79.8117 49.0478 79.8723 49.1084 79.8268 49.1538C79.7662 49.4265 79.6602 49.6538 79.4935 49.8811C79.3875 49.7144 79.4935 49.6538 79.4935 49.5477ZM82.7964 27.6401C82.7357 27.3068 82.9024 27.019 83.1297 26.8069C84.0235 25.8069 84.978 24.8524 86.0992 24.0646L87.4324 23.2313C87.6597 23.0647 87.9324 23.0041 88.1596 23.0647C88.3263 23.0647 88.4323 23.1253 88.5535 23.1707C88.6141 23.2768 88.6596 23.4434 88.5535 23.5041C88.4475 23.6101 88.2808 23.6101 88.2202 23.7768C88.3263 23.8828 88.4475 23.8374 88.4929 23.8374C88.9323 23.7768 89.1141 24.0646 89.2808 24.3373C89.3868 24.504 89.3414 24.6706 89.2202 24.7767C89.0535 24.9433 89.0535 25.0494 89.2808 25.1706C89.3414 25.2312 89.2808 25.3373 89.2202 25.3979C88.599 25.7312 88.0536 26.1251 87.493 26.5644C87.3263 26.7311 87.0991 26.7917 86.8718 26.8372C86.5991 26.8978 86.3719 27.0644 86.2052 27.2917C86.4325 27.4583 86.4325 27.5189 86.2658 27.625C86.2052 27.6856 86.0992 27.731 86.0386 27.731V27.4583C85.8719 27.5189 85.7658 27.625 85.5992 27.6856C85.5386 27.7462 85.4931 27.8522 85.5386 27.9128C85.5992 27.9128 85.6446 27.9734 85.7658 27.9734C85.8264 27.9734 85.8264 27.9128 85.8719 27.9128C85.5992 28.3068 85.2053 28.534 84.872 28.8067C84.6447 29.034 84.372 29.2006 84.2053 29.4733C83.6448 29.64 83.3721 29.14 82.9782 28.9734C82.9782 28.9128 82.9176 28.8673 82.9176 28.8067C82.8569 28.4128 82.8115 28.0189 82.8115 27.6401H82.7964ZM84.4781 40.2605H84.3114C84.1447 40.2605 84.0387 40.3211 84.0841 40.3666H84.3114C84.3114 40.3666 84.4174 40.3059 84.4781 40.2605ZM86.6597 39.306C85.9931 39.4121 85.3719 39.6393 84.8114 39.9726V39.912C84.7053 40.0181 84.5841 40.1393 84.5387 40.2453C85.3719 40.0787 85.9931 39.806 86.6597 39.2909V39.306ZM87.2809 26.3978L87.3869 26.3372C87.4475 26.2766 87.493 26.2766 87.4476 26.2311C87.4476 26.2311 87.3869 26.2311 87.3869 26.2917C87.3263 26.2917 87.3263 26.3523 87.2809 26.3978Z" fill="#E6E6E5"/>
<path d="M116.597 37.9122C116.491 37.9728 116.37 38.0182 116.264 38.0182C115.991 38.0182 115.764 38.1849 115.537 38.2909C113.915 39.1242 112.234 39.912 110.507 40.5786C108.446 41.3665 106.37 42.1391 104.189 42.5937C102.84 42.8209 101.507 43.0482 100.113 42.9876C98.9468 42.927 97.9317 42.5937 97.0378 41.7604C96.3712 41.0938 95.9773 40.2453 95.8106 39.2454C95.75 38.6242 95.75 37.9576 95.75 37.3516C95.75 35.9577 96.25 34.776 97.0984 33.7155C97.765 32.8822 98.6134 32.155 99.3861 31.4732C100.174 30.8066 101.068 30.6399 102.007 30.5793C102.674 30.5793 103.234 30.852 103.568 31.4126C104.068 32.2459 104.462 33.1398 104.522 34.2003C104.583 34.8215 104.416 35.3669 103.962 35.8214C103.628 36.2153 103.295 36.5486 103.068 37.0486C102.901 37.3213 102.674 37.4879 102.447 37.6091C101.325 38.2303 100.204 38.6697 99.0377 39.0636C98.871 39.1242 98.6437 39.1242 98.4771 39.1242C98.4165 39.1242 98.3104 39.1242 98.3104 39.0181C98.3104 38.9575 98.4165 38.9121 98.4771 38.9121C98.5831 38.8515 98.7043 38.8515 98.8104 38.8515C99.5982 38.6848 100.325 38.397 101.053 38.0182L101.28 37.8516V37.7455L101.219 37.6849C101.053 37.7455 100.886 37.7455 100.78 37.7909C99.9921 38.1243 99.1589 38.3515 98.265 38.6242C98.1589 38.6242 97.9923 38.6848 97.8711 38.7303C97.6438 38.8363 97.6438 39.1242 97.8105 39.2908C97.9165 39.3969 98.0832 39.4575 98.2498 39.5181C98.9164 39.7454 99.5982 39.7908 100.31 39.7908C101.265 39.7302 102.265 39.6242 103.219 39.5181C104.174 39.3515 105.068 39.1242 105.961 38.7909H106.128C107.689 38.397 109.204 37.7303 110.704 37.1092L113.325 36.1092C113.885 35.9426 114.446 35.7153 115.006 35.4881L115.506 35.3214C115.9 35.2154 116.127 35.382 116.127 35.7608C116.127 36.0335 116.233 36.2153 116.4 36.4274C116.627 36.6547 116.673 36.9274 116.461 37.1546C116.355 37.3213 116.355 37.4273 116.461 37.5485C116.521 37.6546 116.521 37.7758 116.567 37.8819L116.597 37.9122ZM98.3256 37.6394C98.3862 37.8061 98.5528 37.7 98.6589 37.7C98.9316 37.594 99.2195 37.4728 99.4467 37.3061C99.4467 37.2455 99.5073 37.2455 99.5073 37.2455C99.5073 37.1849 99.4467 37.1395 99.4467 37.1395L99.5528 37.0334L99.6134 36.9274C99.6134 36.8668 99.5528 36.8213 99.5073 36.8668C99.2346 36.9274 98.9467 37.0334 98.674 37.1395C98.568 37.1395 98.4468 37.2001 98.4468 37.3061C98.3407 37.4122 98.2801 37.5334 98.3407 37.6394H98.3256ZM99.4467 37.1395V37.2001V37.1395ZM99.5073 35.3517C99.5073 35.685 99.6134 35.7911 99.8406 35.7456C100.28 35.6396 100.674 35.4729 101.068 35.2457C101.522 34.973 101.856 34.579 102.189 34.1245C102.25 34.0185 102.25 33.8518 102.189 33.7306C102.083 33.6246 101.962 33.6246 101.856 33.67C101.356 33.7306 100.962 34.0033 100.628 34.2306C100.356 34.3972 100.189 34.6245 99.9012 34.7306C99.6285 34.8972 99.4619 35.0639 99.5073 35.3517ZM99.674 32.6701C100.007 32.5034 100.341 32.3368 100.735 32.2156C101.068 32.1095 101.462 32.0489 101.856 31.9883C101.962 31.9277 102.022 31.9277 102.128 31.9277L102.295 31.8217C102.295 31.7156 102.189 31.7156 102.128 31.7156C101.962 31.655 102.068 31.6095 102.128 31.6095C102.189 31.5489 102.295 31.5489 102.234 31.4429C102.234 31.3823 102.174 31.3823 102.128 31.3368C101.795 31.3368 101.401 31.3368 101.068 31.5035C101.007 31.5035 100.962 31.6096 100.962 31.6702C101.128 31.8368 101.068 31.8974 100.901 31.9429C100.401 32.0489 99.9467 32.1701 99.674 32.6701ZM99.7346 40.7756C100.628 41.1695 101.522 40.8816 102.416 40.9423C101.977 41.0029 101.583 41.0483 101.128 41.1695C101.189 41.2756 101.295 41.2756 101.356 41.2756C102.871 41.215 104.371 41.0029 105.825 40.4877C105.886 40.4877 105.931 40.4271 105.992 40.3817C106.052 40.3817 106.052 40.3211 105.992 40.2756C105.992 40.2756 105.931 40.2756 105.886 40.215H105.825C106.052 40.109 106.28 39.9878 106.492 39.8817C106.598 39.8817 106.719 39.8817 106.598 39.6545C105.477 39.9272 104.416 40.2756 103.249 40.4423C102.128 40.6089 100.962 40.6695 99.7346 40.7756ZM112.143 39.5484C112.037 39.4424 111.916 39.4424 111.81 39.4878C111.37 39.6545 110.855 39.7605 110.476 39.9272C109.188 40.4877 107.901 40.8816 106.628 41.321C104.78 41.8816 102.886 42.2149 100.931 42.2149C100.704 42.2149 100.431 42.2755 100.144 42.2755C100.083 42.2755 100.038 42.3361 100.038 42.4422C100.038 42.4422 100.098 42.5028 100.144 42.5028C101.038 42.6088 101.871 42.6088 102.765 42.5634C104.052 42.3967 105.34 42.124 106.567 41.6695C108.082 41.1695 109.582 40.6089 111.037 39.9878C111.431 39.8817 111.825 39.7605 112.158 39.5484H112.143ZM102.371 33.0185C101.977 32.9125 101.583 33.0185 101.25 33.1852C100.916 33.2913 100.628 33.5185 100.583 33.9124C101.022 33.5791 101.583 33.3519 102.204 33.2913C102.265 33.2913 102.31 33.2913 102.371 33.2307C102.431 33.17 102.431 33.1246 102.431 33.1246C102.431 33.064 102.371 33.0185 102.371 33.0185ZM101.477 36.0941C101.477 36.0941 101.416 36.0335 101.416 36.0941C101.25 36.0941 101.144 36.2608 101.022 36.3668C100.962 36.3668 100.916 36.4274 100.916 36.4274C100.81 36.4274 100.81 36.488 100.856 36.488C100.856 36.5486 100.916 36.488 100.916 36.488L101.022 36.382C101.189 36.3214 101.356 36.3214 101.462 36.1547V36.0941H101.477ZM102.371 37.2607H102.31V37.3213L102.371 37.2607ZM103.431 40.7756H103.371L103.431 40.715L103.492 40.7756H103.431ZM105.052 40.3817L105.84 40.215C105.401 40.4877 104.886 40.5483 104.28 40.6695C104.613 40.4423 104.84 40.4423 105.068 40.3968L105.052 40.3817ZM116.612 38.094C116.506 38.094 116.385 38.0334 116.279 38.0334C116.385 38.0334 116.506 38.0334 116.612 38.094Z" fill="#E6E6E5"/>
<path d="M140.915 37.4728C141.021 37.9728 140.642 38.0334 140.294 38.2C139.233 38.6546 138.067 39.0333 136.946 39.3666C133.643 40.4878 130.295 41.3816 126.946 42.1543C125.098 42.5937 123.265 42.8815 121.356 42.9876H120.295C119.629 42.8815 118.947 42.8815 118.28 42.8815C117.659 42.8815 117.114 42.8209 116.553 42.6543C115.493 42.3816 114.599 41.3665 114.493 40.306C114.432 39.6393 114.432 39.0182 114.493 38.3515C114.553 38.0182 114.659 37.6849 114.826 37.3516C115.099 36.685 115.447 36.1244 115.887 35.5639C116.508 34.8366 117.114 34.17 117.735 33.5034C118.462 32.8368 119.129 32.2156 120.083 31.9429C120.25 31.8823 120.356 31.7762 120.477 31.7156C121.098 31.2157 121.826 31.0945 122.492 30.9884H123.719C124.341 30.9884 124.841 31.2157 125.34 31.4884C125.613 31.655 125.84 31.8823 125.962 32.2156C126.234 32.8368 126.462 33.5034 126.462 34.17C126.522 34.67 126.401 35.0639 126.068 35.3972C125.84 35.7305 125.568 36.0638 125.401 36.3971C125.295 36.6244 125.128 36.7304 124.962 36.8516C124.568 37.0789 124.174 36.8516 124.068 36.4577C124.007 36.0184 124.068 35.6245 124.295 35.2305L124.628 34.67C124.856 34.2761 124.734 34.0488 124.401 33.9428C124.007 33.8367 123.613 33.7761 123.235 33.7761C122.568 33.8821 121.947 34.0488 121.341 34.4427C120.901 34.7154 120.447 35.0033 120.053 35.3972C118.992 36.3971 117.932 37.4122 117.144 38.6394C116.75 39.2 116.75 39.5939 117.538 39.6393C118.432 39.806 119.326 39.7454 120.492 39.806C121.492 39.8666 122.735 39.7454 124.007 39.5333C124.962 39.3666 125.901 39.1394 126.856 38.9121C127.916 38.6849 128.916 38.4121 129.992 38.1849C131.446 37.9122 132.779 37.4577 134.188 37.1244C134.582 37.0183 134.976 36.8971 135.355 36.685C135.461 36.6244 135.628 36.5183 135.749 36.5183L139.552 35.5184C139.824 35.4578 140.052 35.4123 140.339 35.4123C140.612 35.3517 141.006 35.6396 140.839 35.9729C140.779 36.2456 140.9 36.4729 141.067 36.7001C141.233 36.8668 141.233 37.0941 141.067 37.3213C141.006 37.3819 140.9 37.4274 140.961 37.488L140.915 37.4728ZM116.993 40.715C118.614 40.9423 120.235 40.9423 121.856 40.9423H122.583C122.477 41.0029 122.356 41.0029 122.189 41.0029C121.689 41.0029 121.129 41.0029 120.568 41.0635C120.462 41.0635 120.341 41.1241 120.235 41.1241C120.235 41.1241 120.174 41.1847 120.235 41.1847V41.2453C120.401 41.3513 120.568 41.3513 120.795 41.3513C122.25 41.2907 123.704 41.1847 125.159 40.8514C125.431 40.7908 125.719 40.7453 125.992 40.5787C126.219 40.5787 126.431 40.5181 126.613 40.412C126.446 40.4726 126.219 40.4726 125.992 40.5787H125.098C125.825 40.306 126.613 40.1848 127.34 39.9575C127.507 39.8969 127.674 39.9575 127.84 39.7302C127.507 39.6696 127.219 39.7908 127.007 39.8363C124.159 40.5029 121.31 40.8968 118.341 40.6241C117.902 40.5635 117.508 40.5635 117.053 40.5635C116.947 40.5635 116.826 40.5029 116.826 40.6241C116.826 40.6847 116.932 40.7302 116.993 40.7302V40.715ZM134.597 39.5939L134.491 39.5333C134.325 39.5333 134.158 39.5939 134.037 39.6393C132.143 40.1999 130.234 40.6999 128.28 41.1544C125.598 41.821 122.856 42.3816 120.068 42.2149C119.447 42.2149 118.841 42.1543 118.22 42.1543C117.826 42.0937 117.493 42.0937 117.159 42.0937C117.099 42.0937 117.053 42.1543 116.993 42.1543C117.053 42.2149 117.053 42.2604 117.099 42.2604L117.72 42.427C119.447 42.6543 121.189 42.6543 122.916 42.5331C124.537 42.427 126.098 42.0331 127.658 41.6392C129.613 41.1392 131.567 40.5787 133.476 40.0787L134.537 39.7454C134.537 39.7454 134.643 39.6393 134.597 39.5787V39.5939ZM117.886 37.0183C117.886 37.0183 117.886 37.0789 117.826 37.1244C117.886 37.1244 117.886 37.0638 117.932 37.0638V37.0032C117.932 37.0032 117.932 36.9425 117.871 37.0032L117.886 37.0183ZM119.568 35.4578C119.568 35.4578 119.568 35.3972 119.629 35.3972C119.629 35.3972 119.689 35.3366 119.689 35.2911C119.689 35.3517 119.629 35.3517 119.583 35.3517C119.583 35.3517 119.583 35.3871 119.583 35.4578H119.568ZM120.007 33.0034H120.068C120.174 32.9428 120.341 32.9428 120.462 32.8974C121.189 32.5035 121.916 32.3368 122.704 32.2762C123.144 32.2762 123.659 32.2762 124.098 32.2156H124.371C124.477 32.155 124.537 32.1095 124.537 32.0489C124.537 31.9883 124.477 31.8823 124.431 31.8217C124.371 31.7611 124.325 31.7156 124.204 31.7156C123.931 31.655 123.644 31.6096 123.538 31.6096C122.81 31.549 122.31 31.7156 121.75 31.8368C121.644 31.8974 121.477 31.9429 121.356 32.0641C121.083 32.3368 120.735 32.458 120.462 32.6247C120.295 32.6853 120.129 32.7913 120.023 32.8974V33.0034H120.007ZM124.477 33.3367C124.477 33.3367 124.371 33.2307 124.25 33.2307C123.462 33.064 122.735 33.1701 121.962 33.4579C121.795 33.5185 121.568 33.6246 121.401 33.8973C121.856 33.7912 122.129 33.7306 122.462 33.67C123.022 33.564 123.628 33.5034 124.189 33.5034C124.295 33.5034 124.462 33.5034 124.462 33.3367H124.477ZM123.689 40.8211H123.628L123.689 40.7605H123.795L123.689 40.8211ZM124.856 40.5938C124.856 40.5938 125.022 40.5938 125.083 40.5332C125.022 40.5938 124.916 40.5938 124.856 40.6393H124.75C124.75 40.6393 124.81 40.5787 124.856 40.5787V40.5938ZM128.704 39.4727C128.931 39.4727 129.143 39.4121 129.371 39.306C129.143 39.3666 128.871 39.306 128.704 39.4727ZM137.703 38.6849C137.309 38.7455 136.976 38.8515 136.582 38.9121C136.522 38.9121 136.415 38.9121 136.415 39.0182C136.643 39.1242 136.809 39.0182 136.976 38.9576C137.249 38.897 137.476 38.8515 137.703 38.6849ZM138.037 37.0032C138.037 37.0032 138.037 36.8971 137.931 36.9425L137.87 37.0032C137.87 37.0032 137.87 37.0638 137.931 37.0638L138.037 37.0032Z" fill="#E6E6E5"/>
<path d="M183.654 16.959C183.593 17.1257 183.427 17.1257 183.26 17.0651C183.154 16.959 182.987 16.8378 182.866 16.6712C182.427 16.2318 181.866 16.0046 181.245 15.8379C180.245 15.5652 179.185 15.3985 178.17 15.2773C176.442 15.0501 174.7 14.838 172.912 14.7774C172.746 14.7168 172.518 14.7168 172.352 14.7168C169.897 14.6562 167.428 14.4441 165.034 14.4441C164.64 14.4441 164.307 14.5047 163.974 14.6713C163.58 14.838 163.14 14.8986 162.686 15.0046C162.519 15.0652 162.292 15.1713 162.413 15.444C162.474 15.5046 162.413 15.6106 162.352 15.6712L161.519 16.5045C161.353 16.6712 161.08 16.4439 160.959 16.6712C160.853 16.8378 161.019 17.0045 160.898 17.1711C160.792 17.3984 160.625 17.6105 160.398 17.7923C160.231 17.8984 160.065 18.065 160.171 18.3529H160.11L159.277 18.9741C159.004 19.1407 158.838 19.3074 158.716 19.5952H158.777C157.989 20.0952 157.383 20.7164 156.929 21.4436L156.762 21.6102C156.535 21.8375 156.262 22.0042 156.035 22.2314C155.08 23.1859 154.141 24.1252 153.247 25.2009C153.02 25.4282 152.853 25.6403 152.747 25.9281C152.58 26.0948 152.414 26.2008 152.293 26.4281C152.232 26.4281 152.187 26.4887 152.126 26.5341C151.959 26.7008 151.793 26.8069 151.687 26.9887L149.111 29.6703C148.884 29.8976 148.672 30.2309 148.49 30.5036C147.929 31.1702 147.369 31.852 146.702 32.3974V32.1247L146.475 32.3519C146.369 32.458 146.414 32.5792 146.535 32.5792C146.475 32.7458 146.429 32.8519 146.263 32.9125C145.475 33.2458 145.142 33.9124 144.748 34.5942C144.581 34.9881 144.414 35.3214 144.081 35.5941C143.914 35.7002 143.975 35.8669 144.081 35.9881C144.02 36.2153 143.808 36.3214 143.581 36.4274C143.414 36.488 143.354 36.5941 143.354 36.7607C143.414 37.094 143.248 37.3819 143.02 37.6546C142.793 37.5486 142.748 37.594 142.687 37.7607V37.9879C142.687 38.2152 142.627 38.4879 142.627 38.7151C142.566 38.8818 142.733 39.0485 142.899 38.9879C143.005 38.9879 143.127 38.9879 143.233 38.9272C143.899 38.7 144.626 38.5939 145.248 38.2L145.475 38.1394C147.096 37.7455 148.611 37.0789 150.278 36.8516C150.671 36.791 151.065 36.685 151.399 36.5789C152.565 36.079 153.747 35.7911 154.914 35.4123C155.474 35.2457 156.08 35.1851 156.641 35.079C156.701 35.0184 156.747 35.0184 156.807 35.079C156.868 35.079 156.974 35.1396 156.974 35.1851C156.974 35.2305 156.974 35.3517 156.913 35.4123C156.747 35.4729 156.58 35.579 156.413 35.6396C153.732 36.5941 150.99 37.488 148.202 38.2606C146.187 38.7606 144.172 39.4878 142.217 40.2756L141.763 40.4423C141.763 40.4423 141.657 40.5484 141.702 40.6696C141.763 40.7302 141.808 40.7302 141.93 40.7302L141.596 41.0635C142.324 40.9574 144.611 40.109 145.338 39.6696H145.278C145.445 39.6696 145.611 39.609 145.778 39.503C145.944 39.503 146.111 39.4424 146.217 39.3969C146.051 39.3969 145.884 39.4575 145.778 39.503H145.278C145.717 39.2757 146.172 39.1091 146.672 39.0485V39.2151L146.778 39.1545C146.838 39.0485 146.717 39.0485 146.672 39.0485C147.732 38.6091 148.793 38.3212 149.914 38.094V38.2606L150.02 38.2C150.02 38.1394 149.959 38.1394 149.914 38.1394C150.353 37.8667 150.868 37.7455 151.308 37.6395L151.035 37.9728C151.368 37.9122 151.656 37.8061 151.929 37.6395C152.096 37.6395 152.202 37.5789 152.368 37.5334C152.535 37.4728 152.702 37.4273 152.868 37.3667C153.035 37.3667 153.202 37.3061 153.308 37.2001L153.747 37.0334C153.914 37.0334 154.08 36.9728 154.247 36.8668V36.9274C154.58 36.8668 154.868 36.7607 155.201 36.6547L156.929 36.0941C157.095 36.0335 157.323 36.0335 157.489 35.9881C157.595 35.9881 157.656 36.0941 157.716 36.1547C157.777 36.3214 157.777 36.4274 157.656 36.5486C157.489 36.7153 157.216 36.8213 156.989 36.8819C155.762 37.3213 154.535 37.8364 153.308 38.2152C151.293 38.9424 149.278 39.609 147.217 40.1696C146.051 40.5029 144.869 40.9574 143.702 41.3968C143.081 41.624 142.414 41.8967 141.748 42.124L141.248 42.2907C141.248 42.2907 141.142 42.4573 141.142 42.5179C141.142 42.5785 141.248 42.624 141.308 42.624C141.475 42.5634 141.581 42.5634 141.702 42.5634C142.142 42.3967 142.536 42.2907 142.93 42.124C145.217 41.2301 147.505 40.4423 149.853 39.7757C152.308 39.1091 154.717 38.1546 157.065 37.2607C157.292 37.1546 157.504 37.0334 157.792 37.0334C157.792 37.2001 157.626 37.2607 157.519 37.3061C156.853 37.5789 156.186 37.8667 155.504 38.094L153.777 38.7606C153.156 39.0333 152.49 39.2606 151.823 39.4878C150.368 39.9878 148.914 40.4877 147.414 40.8211C146.354 41.0938 145.338 41.4877 144.278 41.8816C143.445 42.2755 142.551 42.6088 141.702 42.8361C141.263 43.0027 140.808 43.1088 140.354 42.8361C139.793 42.5634 139.293 42.2149 139.066 41.6089C138.9 41.215 138.793 40.8211 138.672 40.4423C138.506 39.9423 138.566 39.4424 138.778 38.9879C139.051 38.3667 139.399 37.7001 139.733 37.1395C140.46 36.0184 141.187 34.8972 141.96 33.7912C142.187 33.3973 142.46 33.0034 142.748 32.6701C143.581 31.549 144.475 30.4884 145.323 29.3673L145.49 29.2006C146.551 28.3674 147.217 27.1856 148.111 26.1857C148.838 25.3979 149.505 24.6252 150.293 23.898C150.732 23.4586 151.247 23.0647 151.58 22.5041C151.687 22.2769 151.914 22.1102 152.08 21.9435C152.58 21.4436 153.08 20.9891 153.535 20.4285C153.641 20.3224 153.808 20.1558 153.929 20.0952C154.823 19.474 155.489 18.6407 156.171 17.8529C156.504 17.4136 156.898 17.0196 157.292 16.6863C157.853 16.1258 158.353 15.6258 158.853 15.0652C158.913 14.9592 158.959 14.838 158.959 14.7319C159.019 14.5653 158.898 14.3986 158.732 14.338H158.232C155.656 14.2774 153.096 14.3986 150.52 14.5047C148.232 14.6713 145.944 14.8986 143.702 15.1713C141.748 15.444 139.854 15.7924 138.006 16.1712C136.718 16.3985 135.551 16.7318 134.324 17.0651C133.991 17.1711 133.657 17.2317 133.264 17.2923C133.491 17.1257 133.764 17.0196 134.051 16.959C135.9 16.3985 137.733 16.0046 139.581 15.6258C141.369 15.2925 143.157 15.0046 144.945 14.7925C146.338 14.6865 147.793 14.5198 149.247 14.3986C150.929 14.2925 152.656 14.1713 154.383 14.1259H159.307C159.58 14.1259 159.701 14.0198 159.641 13.8986C159.58 13.732 159.413 13.732 159.307 13.732H158.686C156.277 13.6714 153.883 13.732 151.474 13.838C146.551 14.1107 141.642 14.6713 136.839 15.8531C135.445 16.1864 133.991 16.5803 132.642 17.0802H132.536C131.976 17.3075 131.809 17.1408 131.809 16.5803C131.809 16.4136 131.809 16.3076 131.703 16.1258C131.476 15.8985 131.642 15.7318 131.87 15.6258C132.097 15.5197 132.37 15.3985 132.658 15.3531C133.385 15.1258 134.112 14.8531 134.839 14.5653C135.4 14.338 136.006 14.1713 136.566 14.0653L140.93 13.0654C141.763 12.8987 142.551 12.732 143.384 12.626C144.445 12.5199 145.445 12.3533 146.52 12.1866C146.747 12.1866 146.96 12.126 147.187 12.126C147.914 12.1866 148.641 12.0654 149.369 11.9594C149.535 11.8988 149.702 11.8533 149.868 11.8533C151.096 11.9594 152.323 11.6867 153.55 11.7473C154.171 11.7473 154.717 11.6412 155.338 11.6412C155.611 11.6412 155.959 11.6412 156.232 11.7018C156.732 11.7624 157.186 11.7624 157.626 11.6412C158.019 11.5806 158.459 11.5806 158.853 11.5806C159.747 11.6412 160.64 11.6412 161.534 11.5806C162.428 11.5806 163.216 11.2473 163.822 10.5807C164.61 9.6868 165.504 8.85352 166.398 8.0657L167.731 6.89911C168.913 5.89918 170.079 4.88409 171.367 3.94476C172.2 3.32359 173.049 2.77817 173.821 2.0964L176.064 0.581353C176.458 0.354096 176.791 0.187441 177.185 0.0207853C177.579 -0.0398167 177.745 0.0207853 177.973 0.354096C178.412 1.18737 178.412 1.41463 177.7 2.08125C177.533 2.18731 177.427 2.35396 177.261 2.52062L177.094 2.68727V2.62667C176.7 2.85393 176.306 3.06603 175.927 3.4145C175.7 3.58115 175.427 3.74781 175.367 4.08112C175.367 4.30837 175.2 4.41443 175.094 4.52048C174.761 4.79319 174.367 5.14165 173.927 5.2477C173.7 5.30831 173.488 5.35376 173.427 5.64162C173.321 5.86888 173.155 5.97493 172.928 5.97493C172.488 6.03553 172.14 6.24764 171.867 6.64155C171.2 7.08091 170.579 7.64148 170.019 8.20205L169.746 8.47476C169.746 8.47476 169.64 8.58081 169.579 8.64142C169.185 8.86867 168.791 9.03533 168.746 9.53529C168.746 9.76255 168.579 9.86861 168.413 10.0353C168.185 10.2019 168.019 10.3686 167.746 10.4746C167.635 10.4342 167.579 10.4898 167.579 10.6413C167.579 10.6413 167.519 10.8079 167.473 10.8685C167.246 11.3685 167.307 11.5958 167.867 11.7624C168.14 11.823 168.428 11.8685 168.701 11.823C169.655 11.823 170.549 11.9291 171.488 11.9897C172.776 11.9897 174.064 12.1563 175.397 12.2624C175.67 12.2624 176.018 12.323 176.291 12.3684C176.564 12.3684 176.791 12.429 177.079 12.429C178.867 12.5351 180.594 12.929 182.275 13.4896C183.003 13.7168 183.503 14.1562 183.609 15.0046C183.669 15.2773 183.775 15.5652 183.836 15.8985C183.896 16.2318 183.836 16.6257 183.669 16.959H183.654ZM132.476 17.5196C132.809 17.2923 133.097 17.2923 133.309 17.2923C133.082 17.3984 132.87 17.5196 132.476 17.5196ZM161.201 12.429C161.201 12.429 161.201 12.3684 161.14 12.3684C161.08 12.3078 160.974 12.2624 160.868 12.2624C160.247 12.2624 159.641 12.2018 159.019 12.2018C156.444 12.2624 153.823 12.2624 151.247 12.429C149.626 12.5351 148.066 12.5957 146.505 12.823C144.49 13.0502 142.536 13.3229 140.642 13.6562C138.627 14.0501 136.672 14.4895 134.779 15.0501C134.445 15.1561 134.112 15.3228 133.779 15.5046C133.612 15.5652 133.506 15.8985 133.551 15.944C133.718 16.05 133.824 15.944 133.945 15.944L134.385 15.7773C136.339 15.1561 138.354 14.7168 140.369 14.3229C142.551 13.9289 144.672 13.6562 146.854 13.429C148.535 13.2017 150.262 13.0351 151.944 13.0351C154.565 12.929 157.247 12.8078 159.883 12.8684C160.11 12.8684 160.322 12.8078 160.61 12.8078C160.671 12.8078 160.716 12.8078 160.716 12.7017C160.716 12.6411 160.656 12.6411 160.61 12.5957H155.686L155.626 12.5351H160.489C160.716 12.5351 160.928 12.5957 161.156 12.4745C161.216 12.4745 161.216 12.4139 161.216 12.4139L161.201 12.429ZM142.43 40.5938C142.263 40.6544 142.096 40.6999 141.99 40.6999C142.096 40.6393 142.263 40.6393 142.43 40.5938ZM142.763 40.4271L142.43 40.5938C142.536 40.5332 142.657 40.4877 142.702 40.4271H142.763ZM143.217 40.2605C143.323 40.1999 143.49 40.1544 143.657 40.0938L143.217 40.2605ZM144.005 39.9878C143.899 40.0484 143.778 40.0938 143.672 40.0938C143.778 40.0332 143.899 39.9878 144.005 39.9878ZM145.354 39.4878V39.6545H144.914L145.354 39.4878ZM146.581 32.564C146.581 32.564 146.687 32.458 146.747 32.3974C146.687 32.458 146.641 32.5034 146.641 32.564H146.581ZM149.49 12.8987H149.656C149.656 12.8987 149.55 12.9593 149.429 12.8987H149.49ZM150.444 25.307C150.384 25.413 150.338 25.413 150.278 25.5342C150.217 25.5948 150.05 25.6403 150.171 25.7009C150.171 25.7615 150.278 25.6403 150.338 25.5948C150.399 25.5342 150.444 25.4282 150.444 25.3221V25.307ZM152.005 37.6546H151.384L152.005 37.488V37.6546ZM152.444 37.488H152.005C152.171 37.488 152.338 37.4273 152.444 37.3819V37.488ZM152.944 37.3819H152.444L152.944 37.2152V37.3819ZM152.505 37.488C152.505 37.488 152.444 37.4879 152.444 37.5486V37.488H152.505ZM153.399 37.2152H152.959L153.399 37.0486V37.2152ZM153.838 37.0486H153.399L153.838 36.8819V37.0486ZM159.428 16.0955C159.201 16.2015 159.035 16.3227 158.928 16.5348C158.822 16.5954 158.701 16.7015 158.656 16.8075C158.762 16.7469 158.883 16.6409 158.928 16.5348C159.201 16.4742 159.322 16.3076 159.428 16.0955ZM160.156 15.3076C159.989 15.4137 159.822 15.5803 159.701 15.7621C159.928 15.7015 160.095 15.5349 160.156 15.3076ZM161.883 15.8076C161.883 15.8076 161.777 15.8682 161.716 15.9137C161.777 15.8531 161.822 15.8531 161.883 15.8531V15.7924V15.8076ZM181.881 15.5349C181.775 15.2016 181.488 15.3076 181.321 15.2016C181.215 15.141 181.048 15.141 180.927 15.141C179.079 14.7471 177.185 14.4744 175.291 14.3532C172.943 14.1865 170.594 14.0198 168.367 13.9138C167.246 13.8532 166.246 13.8532 165.292 13.8532C165.064 13.8532 164.852 13.7926 164.731 14.0198C164.625 14.1259 164.898 14.2471 165.292 14.2471L169.822 14.4138C171.155 14.4744 172.443 14.5198 173.791 14.5804C176.306 14.8077 178.821 15.0198 181.275 15.4743C181.442 15.5349 181.669 15.6409 181.897 15.5349H181.881ZM182.109 14.141L181.836 13.9744C181.336 13.8077 180.836 13.6411 180.276 13.5805C178.988 13.4138 177.7 13.1411 176.427 13.0199C174.973 12.9139 173.579 12.7472 172.185 12.626C170.503 12.5199 168.837 12.4593 167.095 12.3987C166.822 12.3987 166.534 12.2927 166.307 12.5654C166.473 12.8381 166.807 12.6714 167.034 12.732H167.534C167.367 12.7927 167.201 12.7927 167.095 12.7927H166.367C166.367 12.7927 166.307 12.8533 166.261 12.8987C166.322 12.8987 166.322 12.9593 166.367 12.9593C166.428 13.0199 166.534 13.0199 166.64 13.0199C168.428 13.126 170.155 13.2472 171.943 13.2926C174.458 13.3987 176.912 13.6865 179.382 13.9592C179.715 14.0198 180.048 14.0198 180.382 14.0653C180.548 14.0653 180.654 14.1713 180.821 14.1713C181.215 14.2774 181.609 14.3986 182.048 14.338L182.109 14.2774C182.109 14.2774 182.109 14.1713 182.109 14.1107V14.141ZM166.807 9.00503C167.367 8.67172 167.807 8.38386 168.14 7.77784C167.64 8.05055 167.185 8.44446 166.807 9.00503ZM173.458 3.58115C173.624 3.52055 173.73 3.4751 173.852 3.30844C173.685 3.36904 173.579 3.4145 173.458 3.58115ZM174.079 3.14179C174.246 3.08118 174.412 2.97513 174.518 2.80848C174.352 2.86908 174.185 2.97513 174.079 3.14179ZM174.518 4.70229H174.458V4.76289C174.458 4.76289 174.458 4.70229 174.518 4.70229ZM174.685 2.64182C175.185 2.47517 175.579 2.14185 175.912 1.74794C175.473 1.9752 175.018 2.24791 174.685 2.64182ZM176.412 1.41463C176.852 1.30858 177.2 1.08132 177.533 0.748009C177.594 0.748009 177.594 0.641955 177.594 0.641955C177.533 0.581353 177.488 0.581353 177.427 0.581353C177.033 0.808611 176.7 1.08132 176.427 1.41463H176.412Z" fill="#E6E6E5"/>
<path d="M175.548 38.7606C175.487 39.0939 175.381 39.1999 175.048 39.1545C174.942 39.1545 174.821 39.0939 174.714 39.0484C174.275 38.8818 173.76 38.9424 173.321 38.9878C172.093 39.0939 170.972 39.3817 169.806 39.6544C169.245 39.7605 168.639 39.9272 168.018 40.0484C166.457 40.3211 164.882 40.7756 163.321 41.2149C162.367 41.4877 161.427 41.8816 160.473 42.2755C160.246 42.3815 160.034 42.5482 159.806 42.7148C159.867 42.8209 159.867 42.8815 159.806 42.9876C159.64 43.1542 159.473 43.2603 159.246 43.3815C158.913 43.4875 158.685 43.7148 158.519 44.0481C158.064 44.8814 157.625 45.7752 157.231 46.6237C157.125 46.7903 157.064 47.0176 157.004 47.1842C157.11 47.1236 157.17 47.0782 157.231 47.0176C157.291 46.957 157.337 46.957 157.337 46.957C157.397 46.957 157.397 47.0176 157.397 47.063C157.291 47.3357 157.125 47.6842 156.897 47.9569C156.791 47.7903 156.897 47.6236 156.897 47.5175L156.564 47.8509C156.17 48.5175 155.776 49.2447 155.398 49.9719C155.292 50.1386 155.231 50.3658 155.17 50.5931C155.11 50.6537 155.004 50.6992 154.943 50.8204C154.383 51.7748 153.595 52.6687 153.322 53.8353C153.322 54.002 153.155 54.1686 152.989 54.2747C152.761 54.4413 152.595 54.608 152.716 54.8958C152.489 55.4564 151.989 55.8503 151.655 56.2897C151.489 56.1836 151.383 56.1836 151.262 56.3503C151.262 56.4109 151.262 56.4563 151.322 56.4563L151.655 56.2897C151.549 56.623 151.262 56.9109 151.034 57.1836C149.974 58.4714 148.747 59.5925 147.398 60.653C146.732 61.153 145.944 61.6075 145.171 61.9408C144.777 62.1075 144.383 62.1681 144.004 61.8802C143.898 61.7742 143.732 61.7136 143.611 61.653C143.05 61.4257 142.717 61.0318 142.489 60.4864L141.989 59.1531C141.883 58.7592 141.823 58.4259 141.823 58.032C141.883 56.9715 142.156 55.9109 142.656 54.9564C142.929 54.4565 143.217 53.8959 143.489 53.3353C143.883 52.4415 144.444 51.7142 145.05 50.9264C145.156 50.7598 145.323 50.5931 145.444 50.3658C146.338 48.972 147.565 47.8509 148.853 46.7297C148.913 46.6691 148.959 46.6691 148.959 46.6237C149.853 45.5025 151.246 44.8359 152.201 43.7148C152.307 43.6087 152.474 43.5481 152.595 43.4421L153.595 42.7148C154.549 42.0482 155.489 41.321 156.504 40.7604C157.231 40.3059 157.731 39.8059 158.064 39.0787L159.125 32.9882C159.519 32.8216 159.912 32.9276 160.185 33.2155C160.625 33.7155 161.14 34.17 161.412 34.776C161.64 35.1699 161.746 35.6093 161.806 36.0638V36.1244C161.912 36.4577 161.912 36.8516 161.806 37.1849H162.034C162.034 37.1849 161.927 37.2455 161.867 37.2455H161.806C161.806 37.3516 161.746 37.4122 161.746 37.5182C161.685 37.7455 161.579 37.9576 161.746 38.1848C162.018 38.4121 162.246 38.1848 162.473 38.1242C162.746 38.0636 162.973 37.9576 163.261 37.9576C163.761 37.897 164.261 37.7303 164.715 37.5637C165.776 37.2304 166.836 36.9425 167.957 36.8365C168.23 36.8365 168.579 36.7758 168.851 36.6698C170.245 36.3365 171.7 36.2759 173.154 36.1698C173.427 36.1092 173.715 36.1698 173.987 36.1698C174.548 36.2759 174.942 36.5031 175.108 37.0637C175.169 37.2304 175.214 37.397 175.336 37.5031C175.608 37.8364 175.669 38.2909 175.563 38.7303L175.548 38.7606ZM154.095 46.2449C154.095 46.2449 153.989 46.2449 153.928 46.3055C153.367 46.76 152.807 47.1388 152.246 47.6539C150.186 49.5023 148.216 51.4567 146.656 53.7444C146.489 54.0171 146.262 54.2444 146.035 54.4716C145.974 54.411 145.974 54.3656 145.929 54.4716H146.035C145.929 54.5777 145.807 54.7443 145.701 54.8655C145.535 55.0322 145.535 55.1989 145.595 55.4261C145.489 55.4867 145.429 55.5322 145.323 55.6534C145.216 55.7594 145.156 55.8806 145.323 56.0473H145.262L144.989 56.4866C145.05 56.7139 144.989 56.926 144.823 57.1078V56.6684C144.323 57.1078 144.262 57.729 144.035 58.2896C143.974 58.5168 144.035 58.5623 144.262 58.6229C144.701 58.7289 145.095 58.6229 145.429 58.3502L145.762 58.0774C146.595 57.4563 147.322 56.729 148.11 56.0624C148.383 55.7897 148.731 55.5019 148.943 55.1685C149.337 54.5474 149.837 54.002 150.231 53.4414C150.504 53.1081 150.792 52.7748 151.019 52.3809C151.746 51.2143 152.474 49.9719 153.08 48.6993C153.473 48.0327 153.973 47.4721 154.034 46.6388C154.034 46.5782 154.095 46.5782 154.14 46.5328C154.14 46.4722 154.201 46.3661 154.079 46.3055L154.095 46.2449ZM146.05 59.4258C145.944 59.3652 145.883 59.3652 145.777 59.3652L146.504 58.638C145.777 58.8653 145.171 59.4258 144.489 59.7592C144.323 59.8652 144.383 59.9864 144.429 60.0925C144.489 60.1531 144.489 60.2591 144.535 60.3197C145.201 60.2591 145.656 59.9258 146.05 59.4258ZM144.656 57.4108L144.823 57.0775C144.762 57.1836 144.716 57.3048 144.716 57.4108L144.55 57.8502C144.61 57.6835 144.656 57.5169 144.656 57.4108ZM149.459 58.3047C149.125 58.3653 148.898 58.532 148.671 58.7441C147.55 59.6379 146.489 60.5318 145.201 61.1984C145.095 61.259 145.035 61.3045 144.974 61.3651C144.913 61.4257 144.913 61.4712 144.913 61.4712C144.913 61.5772 145.02 61.5772 145.08 61.5772C145.474 61.5166 145.807 61.35 146.141 61.1378C147.262 60.4712 148.216 59.6228 149.156 58.7289C149.262 58.6229 149.322 58.4562 149.428 58.2896L149.459 58.3047ZM145.489 52.1081C146.156 51.487 146.656 50.7598 147.11 49.9871C146.444 50.6082 145.822 51.2749 145.489 52.1081ZM146.489 53.4414L146.55 53.502V53.4414H146.489ZM147.156 49.9719C147.428 49.8053 147.656 49.578 147.883 49.3053L148.777 48.4114C149.504 47.6842 150.231 46.957 151.019 46.2904C150.958 46.2298 150.958 46.1843 150.958 46.1843C150.958 46.1843 150.958 46.1237 151.019 46.1237V45.851C150.58 45.957 150.352 46.2904 150.065 46.5782C149.898 46.8055 149.792 47.0176 149.625 47.1994L149.459 47.366C149.292 47.5933 149.065 47.8206 148.898 47.9872C148.504 48.3811 148.11 48.775 147.731 49.2144C147.504 49.4417 147.231 49.6538 147.171 50.0022L147.156 49.9719ZM149.565 55.8352C148.837 56.4563 148.231 57.1836 147.55 57.8502C147.444 57.9562 147.383 58.1229 147.322 58.3047C148.11 57.7441 148.716 57.0169 149.337 56.2897C149.443 56.1836 149.504 56.017 149.565 55.8503V55.8352ZM148.231 50.9113C148.171 51.0173 148.125 51.184 148.065 51.3658C148.231 51.1991 148.337 51.0931 148.398 50.9113H148.231ZM148.398 50.7446V50.8507C148.398 50.8507 148.504 50.7901 148.504 50.7446H148.398ZM148.565 50.6386V50.7446C148.565 50.7446 148.625 50.684 148.625 50.6386L148.686 50.5779C148.686 50.5779 148.625 50.5779 148.58 50.6386H148.565ZM154.943 44.8814C154.943 44.8814 154.837 44.8208 154.776 44.8208C154.383 44.9874 154.11 45.2601 153.822 45.4874C152.14 46.7752 150.58 48.1084 149.186 49.6841C149.186 49.7901 149.246 49.8507 149.292 49.9568C149.913 49.3962 150.459 48.7902 151.08 48.2296C152.14 47.2751 153.201 46.3358 154.383 45.4874C154.61 45.3813 154.776 45.2147 154.943 45.048V44.8814ZM150.368 54.9413C150.034 55.1685 149.746 55.4413 149.64 55.8352C149.974 55.6079 150.262 55.3352 150.368 54.9413ZM150.595 56.8957H150.534C150.534 56.8957 150.474 57.0018 150.428 57.0624L150.262 57.5017C150.489 57.3957 150.595 57.1684 150.595 56.8806V56.8957ZM150.701 54.4868C150.595 54.5928 150.474 54.714 150.428 54.8807C150.534 54.7746 150.655 54.608 150.701 54.4868ZM151.322 53.5323C151.216 53.6383 151.095 53.805 151.049 53.9868C151.216 53.8808 151.277 53.7141 151.322 53.5323ZM151.216 45.654C151.489 45.7146 151.716 45.7146 151.943 45.4874C151.883 45.4268 151.837 45.3207 151.777 45.2147C151.549 45.2753 151.337 45.3813 151.216 45.6692V45.654ZM151.443 53.305L151.383 53.3656C151.383 53.3656 151.383 53.4717 151.322 53.4717C151.383 53.4717 151.428 53.4717 151.428 53.4111C151.428 53.4111 151.428 53.3757 151.428 53.305H151.443ZM156.367 41.9573H156.14C155.973 42.0634 155.807 42.124 155.64 42.23C154.473 42.8966 153.398 43.7451 152.398 44.5784C152.171 44.745 151.958 44.9117 151.837 45.1389H152.11V45.3056C152.277 45.245 152.443 45.1389 152.549 45.0329C152.716 44.9723 152.822 44.9268 152.716 44.6996L153.155 44.4268C153.383 44.4875 153.489 44.3662 153.595 44.2602H153.322C153.489 44.1541 153.655 44.0329 153.776 43.9875V44.0935C154.564 43.8663 155.11 43.4269 155.625 42.8663C156.125 42.7603 156.185 42.3664 156.352 41.9725L156.367 41.9573ZM152.564 44.8662V45.0329H152.292L152.564 44.8662ZM153.792 43.9117C153.792 43.9117 153.898 43.8057 153.958 43.7451V43.8057L153.792 43.9117ZM155.807 42.5633C155.807 42.5633 155.701 42.73 155.64 42.836H155.367C155.534 42.73 155.64 42.6088 155.807 42.5633ZM159.443 33.8973C159.443 33.7912 159.337 33.7912 159.049 33.8367L159.109 34.5639C159.216 34.5033 159.337 34.4578 159.337 34.3366C159.397 34.276 159.337 34.2306 159.231 34.17C159.337 34.1094 159.458 34.0639 159.458 33.8973H159.443ZM174.078 38.3667C174.078 38.3667 174.018 38.2606 173.972 38.2606C173.866 38.2 173.805 38.2 173.639 38.2C172.851 38.306 172.018 38.4273 171.23 38.5939C169.275 38.9878 167.321 39.4272 165.367 39.8817C163.973 40.215 162.518 40.6695 161.17 41.2301L160.503 41.5634C160.503 41.5634 160.397 41.6695 160.337 41.7301L160.397 41.8361C160.67 41.8967 160.897 41.7301 161.124 41.6695C162.806 41.0028 164.533 40.5029 166.321 40.109C168.775 39.5484 171.245 38.8818 173.76 38.5485C173.866 38.5485 173.927 38.4879 173.987 38.4879L174.093 38.3818L174.078 38.3667ZM161.397 39.9272C161.397 39.9272 161.458 40.0332 161.503 40.0332C161.609 39.9726 161.776 39.9272 161.943 39.9272C164.018 39.1999 166.185 38.7 168.366 38.2L170.942 37.7C171.109 37.6394 171.336 37.594 171.442 37.5334C171.548 37.4728 171.169 37.3667 171.503 37.3061H172.003C172.442 37.0789 172.896 37.2001 173.336 36.9122C173.002 36.7455 172.669 36.8516 172.336 36.8516C169.715 37.2455 167.139 37.7455 164.624 38.4121L162.17 39.0787C161.943 39.1848 161.73 39.306 161.549 39.3514C161.488 39.412 161.488 39.4575 161.488 39.5181C161.488 39.5181 161.549 39.5787 161.594 39.5787H161.821C161.655 39.6393 161.549 39.7453 161.427 39.8059C161.367 39.8665 161.367 39.912 161.367 39.912L161.397 39.9272ZM162.124 37.1395H162.064L162.124 37.0789V37.1395ZM165.033 38.7C164.867 38.7606 164.7 38.806 164.533 38.806C164.7 38.7454 164.867 38.7 165.033 38.7ZM165.7 38.5333C165.473 38.5939 165.306 38.6394 165.079 38.6394L165.7 38.5333ZM166.427 38.3667C166.2 38.4727 165.973 38.4727 165.761 38.5333C165.988 38.4273 166.2 38.3667 166.427 38.3667ZM167.094 38.2C166.867 38.2606 166.7 38.306 166.473 38.3667L167.094 38.2ZM167.2 38.2H167.094L167.2 38.1394H167.26C167.26 38.1394 167.321 38.2 167.2 38.2ZM168.321 37.9727H168.26C168.26 37.9727 168.26 37.9121 168.321 37.9121H168.427C168.427 37.9121 168.366 37.9727 168.321 37.9727ZM169.215 37.7455C168.988 37.8515 168.775 37.8515 168.488 37.9121C168.715 37.8061 168.988 37.8061 169.215 37.7455ZM170.003 37.5788C169.775 37.6849 169.503 37.7455 169.275 37.7455C169.503 37.6394 169.715 37.6394 170.003 37.5788ZM170.23 37.5788H170.063C170.063 37.5788 170.169 37.5182 170.23 37.5182H170.397C170.397 37.5182 170.291 37.5788 170.23 37.5788ZM172.29 37.3061H172.063C172.063 37.3061 172.169 37.3667 172.29 37.3667H172.351C172.351 37.3667 172.351 37.3061 172.29 37.3061Z" fill="#E6E6E5"/>
</svg>
