<svg width="147" height="70" viewBox="0 0 147 70" fill="none" xmlns="http://www.w3.org/2000/svg">
<path d="M57.7378 6.19864C57.5809 6.63296 57.337 7.00293 57.0233 7.29248C55.0539 9.31929 53.3286 11.4265 51.6033 13.5177C50.3485 14.9654 49.0065 16.3488 47.8389 17.7965C47.2115 18.5204 46.6538 19.3246 46.0264 20.0485C45.8696 20.2576 45.7127 20.5633 45.7127 20.7724C45.7127 21.1423 45.4687 21.2871 45.2422 21.4319C44.4579 21.5767 44.0571 22.1557 43.8305 22.8153C43.4297 23.1048 43.116 23.3944 43.116 23.9091C43.0463 24.4238 42.7152 24.7134 42.1749 24.9225C41.8612 25.0673 41.5475 25.2925 41.3035 25.582L37.7657 29.7804C37.6089 29.9252 37.6089 30.07 37.5217 30.2147L36.8072 30.7938C36.0927 31.6625 35.4653 32.4667 34.7682 33.2549C34.6113 33.3997 34.5416 33.6249 34.4545 33.834V33.7697C34.0536 34.0592 33.7399 34.3488 33.5831 34.7831C33.8271 34.7188 33.9839 34.4936 34.3673 34.4131C34.0536 34.7831 33.8271 35.137 33.5831 35.4265V34.767C33.3391 35.0566 33.0254 35.2013 32.7988 35.4909C31.3872 37.1638 29.8884 38.6759 28.6336 40.4936C28.1631 41.0726 27.6054 41.5874 27.0651 42.1665C26.6643 42.6008 26.2809 43.1799 25.8801 43.6946C25.7232 43.9198 25.8103 44.0646 26.0369 44.2094C24.939 44.6437 24.3116 45.448 23.6842 46.2362C23.4402 46.6062 23.1439 46.8957 22.8999 47.1852C22.7431 47.4104 22.7431 47.6196 22.9696 47.8448C22.6559 47.9895 22.3422 48.2147 22.0983 48.4238C21.4709 48.7938 21.07 49.3729 20.6866 49.8716C20.5298 50.0968 20.6169 50.3059 20.7563 50.4507C20.5123 50.5954 20.2858 50.8206 19.9721 50.9654C19.6584 51.1102 19.4144 51.3354 19.1878 51.6249C19.1181 51.7053 19.031 51.8501 19.1181 51.9145C19.1878 52.0592 19.3621 51.9145 19.519 51.9145C19.5887 51.9145 19.6758 51.834 19.6758 51.834C19.4493 52.2684 19.1356 52.7027 18.6476 53.0726C18.5779 52.7027 18.4036 52.6383 18.2467 52.7831L17.8459 53.2174C17.8459 53.2174 17.8459 53.3622 17.9156 53.3622C17.9156 53.4426 17.9853 53.4426 18.0725 53.3622C18.2293 53.3622 18.299 53.2978 18.3862 53.2174C18.2293 53.6517 17.9156 53.9413 17.5148 54.1665C17.2011 54.3917 16.9571 54.6812 16.8874 55.0351C16.6434 55.6142 16.26 56.1289 15.8592 56.6276C15.1446 57.3515 14.5172 58.1558 13.977 58.944C13.4367 59.6678 12.879 60.3917 12.2516 61.1155C12.0948 61.3407 11.8508 61.4855 11.6242 61.6303C11.694 61.4051 11.7811 61.196 11.9379 60.9064L11.8682 60.8421H11.7985C11.4848 60.9064 11.3977 61.1316 11.2408 61.3568C10.9271 61.7911 10.6134 62.3059 10.1429 62.6598L9.91633 62.885C9.91633 62.885 9.82919 63.1102 9.82919 63.1745C9.91633 63.2389 9.98604 63.2389 10.0732 63.1745C10.3869 62.9654 10.6309 62.7402 10.8574 62.4507C11.1014 62.1611 11.328 61.8716 11.6417 61.6464C11.572 62.0163 11.328 62.3059 11.084 62.5954C9.82919 64.2684 8.48726 65.8608 7.23247 67.4533C6.67479 68.1772 5.97768 68.7563 5.35029 69.4158C4.94945 69.8501 4.40919 70.1397 3.7818 69.9306C3.4681 69.8501 3.1544 69.9306 2.91042 69.9306C2.37016 69.9306 1.96932 69.7054 1.65563 69.3515C1.34193 68.9172 0.941093 68.6276 0.557685 68.2576C0.156849 67.9681 0 67.5981 0 67.1638C0 66.7295 0.0697106 66.2952 0.243987 65.8609C0.714534 64.4775 1.18508 63.1102 1.58592 61.6625C1.8299 60.7134 2.21331 59.7804 2.52701 58.9118C3.08469 57.6088 3.55524 56.3059 4.0955 54.9225L5.28058 51.8019C6.15196 49.6303 6.84906 47.3139 7.8773 45.1423C8.34784 44.1289 8.74868 43.0351 9.13209 41.9574C9.44578 41.0083 9.91633 40.0753 10.3172 39.0619C10.474 38.7724 10.5612 38.4828 10.718 38.1129C11.0317 36.8742 11.5894 35.6517 12.1296 34.4935C12.6873 33.3354 13.1579 32.1772 13.855 31.019L14.099 30.5204C14.4127 29.2818 14.8832 28.0592 15.4409 26.9654C15.7546 26.3863 15.9986 25.8716 16.2251 25.3729C16.626 24.649 16.9397 23.8448 17.2534 23.0566C17.5671 22.3327 17.9679 21.5284 18.3513 20.8045C18.7521 20.2255 18.9787 19.5659 19.2227 18.9868C19.6932 17.8287 20.2509 16.7348 20.7215 15.6571C22.29 12.6169 23.7887 9.49623 25.2701 6.45602C25.3398 6.2469 25.4269 6.0217 25.5838 5.7965C25.7406 5.65173 26.0543 5.65173 26.1415 5.7965C27.0129 7.0351 27.1697 8.19328 26.5423 9.49623C26.1415 10.3005 25.8278 11.0887 25.5141 11.8126C25.2004 12.3273 25.2004 12.9064 24.9564 13.4051C24.7124 13.9198 24.329 14.3541 24.2419 14.8528C23.841 15.2871 23.6145 15.7214 23.3705 16.2362C22.4294 18.5525 21.4883 20.8045 20.4601 23.1209C20.0592 24.1343 19.6758 25.0834 19.2053 26.0968C18.8916 26.8206 18.5779 27.6249 18.177 28.3488C17.5496 29.6517 17.0791 31.0351 16.7654 32.4828C16.6957 32.7724 16.6085 33.0619 16.3646 33.2871C16.1206 33.6571 15.9637 34.011 15.8069 34.3809C15.7372 34.4453 15.7372 34.6062 15.7372 34.6705C15.894 34.7348 15.9811 34.5257 16.138 34.5257C16.138 34.4614 16.2251 34.4614 16.2251 34.4614C16.2251 34.5257 16.2948 34.6062 16.2948 34.6866C16.0509 35.0566 15.9812 35.4104 15.5803 35.7C15.4235 35.7804 15.2666 35.9252 15.3363 36.07C15.406 36.5043 15.2492 36.7295 14.9355 36.9386C14.6915 37.0834 14.6218 37.3086 14.6218 37.5981C14.7786 38.322 14.4649 38.9815 14.0815 39.5606C13.9944 39.5606 13.9944 39.3515 13.8376 39.4962C13.9073 39.4962 13.9944 39.5606 14.0815 39.5606C13.6807 40.7188 13.2102 41.8769 12.8267 43.0351L12.1122 44.8528C12.0425 45.078 11.9554 45.2228 11.6417 45.2871C11.084 45.5123 11.084 45.6571 11.328 46.1558C11.4848 46.381 11.3977 46.5901 11.3977 46.7348C11.1711 47.3944 10.9968 48.0378 10.6831 48.6169C10.1255 49.9198 9.65492 51.2228 9.18437 52.4614C9.02752 52.9761 8.87067 53.4104 8.55697 53.7643C8.55697 53.5391 8.71382 53.33 8.48726 53.2496C8.2607 53.1692 8.24328 53.4587 8.17357 53.6196C8.01672 53.9091 7.92958 54.1986 7.92958 54.7134C8.24328 54.2791 8.40013 53.9895 8.64411 53.7643C8.40013 55.0673 7.85987 56.3059 7.38932 57.5284L6.20424 60.6491C6.13453 60.8743 6.13453 61.019 6.04739 61.1638C6.04739 61.2281 6.13453 61.3086 6.13453 61.389C6.20424 61.4533 6.29138 61.4533 6.44823 61.389C6.76193 61.2442 7.07562 61.0995 7.31961 60.8099C8.73125 59.0726 10.1429 57.2549 11.6417 55.5981C12.7396 54.3595 13.6807 53.0566 14.6218 51.834C15.8766 50.1611 17.2882 48.649 18.6302 47.0566C19.3447 46.2523 20.0418 45.4641 20.6692 44.6598C21.3837 43.7911 22.0808 42.9869 22.7954 42.1986C23.4228 41.5391 24.0502 40.8957 24.6078 40.1718C25.6361 38.8689 26.8037 37.5659 27.9888 36.3273C28.3025 35.9574 28.5465 35.523 28.8602 35.1692C29.8884 34.0753 30.8992 32.9976 31.8403 31.8394C33.0254 30.6008 34.1233 29.2335 35.2213 27.9305C35.779 27.271 36.4063 26.6276 36.9466 25.9037C37.3474 25.4694 37.7309 25.0994 38.1317 24.6008C38.5325 24.086 39.0031 23.6517 39.3865 23.1531C40.0139 22.4292 40.6413 21.8501 41.1118 21.0458C41.1815 20.9815 41.3558 20.9011 41.4255 20.7563C43.7782 18.3595 45.8173 15.7536 48.0132 13.2281C49.5119 11.6356 50.9933 10.1075 52.4049 8.45065C53.346 7.29248 54.444 6.27907 55.4722 5.18524C55.7162 4.96004 56.0299 4.75092 56.3436 4.67049C56.6573 4.59006 56.9013 4.67049 56.971 5.04047C56.971 5.33001 57.1278 5.47478 57.3718 5.61955C57.7726 5.84476 57.7726 6.05387 57.6855 6.42384L57.7378 6.19864ZM4.20006 59.0244C3.48553 59.893 3.25897 60.9064 3.10212 62.0003C2.54444 62.7241 1.84733 64.8314 1.84733 65.7643C1.91704 65.7643 2.00418 65.6196 2.00418 65.5391C2.40502 64.381 2.87556 63.2228 3.10212 61.9842C3.57267 61.0351 3.9735 60.1021 4.20006 59.0083V59.0244ZM5.07144 56.6276C4.44405 57.2871 4.20006 58.0753 4.20006 58.944C4.67061 58.2201 4.9146 57.4962 5.07144 56.6276ZM4.6009 62.9976C4.75775 62.9332 4.84489 62.9332 4.9146 62.9332C5.31543 62.5633 5.54199 62.0646 5.62913 61.5499C5.69884 61.0351 5.85569 60.5365 6.09968 60.1021C6.50051 59.2978 6.81421 58.4292 7.04077 57.641C7.04077 57.5606 7.04077 57.4158 6.88392 57.4158C6.88392 57.4158 6.79678 57.4802 6.79678 57.5606L6.32624 58.7992C6.16939 59.2335 5.9254 59.7482 5.6117 60.1021C5.05402 60.9064 4.82746 61.8394 4.58347 62.708C4.51376 62.7724 4.58347 62.8528 4.58347 62.9976H4.6009ZM9.30636 63.8662C9.30636 63.8662 9.06238 63.8662 8.99267 63.9306L7.58103 65.523C6.86649 66.4721 6.08225 67.3407 5.298 68.1289C5.14116 68.2737 4.98431 68.4185 4.82746 68.6437C4.82746 68.6437 4.75775 68.708 4.82746 68.7885C4.82746 68.8528 4.89717 68.8528 4.89717 68.9332C5.05402 68.9332 5.21087 68.8689 5.298 68.7885C5.76855 68.4185 6.16939 67.9842 6.55279 67.5499C7.33704 66.6812 8.12128 65.7322 8.90553 64.7992C9.06238 64.6544 9.21922 64.3649 9.30636 64.1397C9.3935 64.0753 9.3935 63.9145 9.30636 63.8501V63.8662ZM10.4914 59.1531C10.0209 59.523 9.7072 59.8769 9.3935 60.2469C8.60926 61.3407 7.73787 62.3541 6.72707 63.1423C6.16939 63.6571 5.78598 64.2362 5.54199 64.96C5.47228 65.2496 5.47228 65.5391 5.298 65.7643C5.22829 65.9091 5.22829 65.9734 5.38514 66.0539C5.38514 66.0539 5.45485 65.9895 5.54199 65.9895C5.94283 65.5552 6.32624 65.1209 6.63993 64.6062C7.04077 63.9466 7.51132 63.2228 8.05157 62.5793L9.3935 60.8421C9.79434 60.3434 10.1777 59.8287 10.4914 59.1692V59.1531ZM5.62913 54.8742L5.69884 54.9386L5.76855 54.8742C6.01254 54.649 6.08225 54.3595 6.16939 54.07C7.11048 51.6088 7.98186 49.1477 8.92296 46.6866C8.92296 46.6222 8.99267 46.5418 8.99267 46.397C8.99267 46.3166 9.06238 46.1718 8.92296 46.1718C8.85324 46.1718 8.76611 46.3166 8.67897 46.397C8.36527 47.2013 8.05157 47.9252 7.80759 48.7134C7.33704 49.8716 6.9362 51.1102 6.30881 52.1879L5.59427 54.3595V54.8742H5.62913ZM7.35447 55.5981H7.28476C7.28476 55.5981 7.28476 55.7429 7.35447 55.6785V55.5981ZM9.55035 50.4507C9.55035 50.4507 9.62006 50.4507 9.7072 50.3702V50.3059H9.55035C9.55035 50.3059 9.48064 50.3702 9.55035 50.4507ZM9.7072 43.7911C9.7072 43.7911 9.7072 43.9359 9.79434 43.9359C9.88148 43.9359 9.86405 43.8716 9.95119 43.8716C10.1952 43.4373 10.4217 42.9225 10.5089 42.1986C10.0383 42.7777 9.79434 43.2925 9.72463 43.7911H9.7072ZM10.2649 48.5043L10.108 48.649C10.108 48.649 10.108 48.7938 10.1777 48.7295C10.1777 48.7295 10.201 48.7027 10.2475 48.649V48.5043H10.2649ZM10.7354 46.9118C10.7354 46.9118 10.8051 47.0566 10.8923 47.0566C10.8923 47.0566 10.962 46.9922 10.962 46.9118C11.0491 46.8474 10.962 46.767 10.8923 46.767C10.8226 46.8314 10.8226 46.9118 10.7354 46.9118ZM11.1363 40.5418C11.5371 40.1075 11.7637 39.6732 11.7637 39.0137C11.45 39.448 11.206 39.9627 11.1363 40.5418ZM12.3911 56.7724C12.3911 56.7724 12.3213 56.708 12.3213 56.8528C12.2342 56.8528 12.2342 56.9171 12.2342 56.9976C11.694 57.3675 11.3628 57.8019 11.1363 58.381C11.694 58.011 12.0076 57.5767 12.2342 56.9976C12.2342 56.9332 12.3213 56.9332 12.3911 56.8528V56.7724ZM12.8616 36.263L12.9487 36.1986C12.9487 36.1986 12.9197 36.1718 12.8616 36.1182V36.263ZM15.9289 55.9681C15.6152 56.1772 15.3712 56.4024 15.3015 56.6919C15.6152 56.4828 15.772 56.2576 15.9289 55.9681ZM18.5256 53.137C18.5256 53.137 18.6824 52.9922 18.7696 52.9922C18.6999 53.0566 18.6127 53.137 18.5256 53.137ZM23.3182 47.5552C23.3182 47.5552 23.3879 47.4104 23.475 47.33C23.475 47.3944 23.4053 47.4748 23.3182 47.5552ZM23.475 47.33C23.475 47.33 23.6319 47.1852 23.719 47.1852L23.475 47.33ZM25.2875 45.1584L25.0435 45.3836C25.0435 45.3836 25.1307 45.2389 25.2875 45.1584ZM25.2178 45.1584L25.4444 44.9493C25.4444 44.9493 25.2875 45.0941 25.2875 45.1584H25.2178ZM33.4611 35.523C33.4611 35.523 33.6179 35.3783 33.7051 35.3783L33.4611 35.6035V35.523ZM36.2844 32.1129L36.5283 31.9681C36.5283 31.9681 36.3715 32.1129 36.2844 32.1129ZM37.6263 30.5204V30.1504H38.0271L37.6263 30.5204Z" fill="#E6E6E5"/>
<path d="M56.1691 43.1477C56.0123 43.3568 55.7683 43.3568 55.6114 43.4372C53.2587 44.2415 50.8188 44.8849 48.3964 45.5444C46.3573 46.0592 44.3183 46.783 42.349 47.5712C41.007 48.0699 39.5954 48.5846 38.1838 49.019C37.2427 49.3085 36.3016 49.5337 35.2733 49.7428C35.2733 49.8072 35.2036 49.8072 35.2036 49.8072C33.0775 50.0967 31.509 48.9385 31.2824 46.9761C31.2824 46.7509 31.2127 46.4613 31.2127 46.1718C30.9687 45.4479 31.2127 44.7241 31.6135 44.0645C32.5546 42.6812 33.5829 41.3139 34.7505 40.0753C35.6219 39.2066 36.319 38.338 37.1904 37.6141C37.5041 37.3246 37.9049 37.1155 38.2883 37.0351C38.846 37.0351 39.0029 37.1798 38.7589 37.6141C38.7589 37.6946 38.6717 37.7589 38.6717 37.8393C38.6717 38.0645 38.7589 38.0645 38.9157 37.9841C39.2294 37.8393 39.3863 37.9198 39.6303 38.0485C39.8568 38.2737 39.944 38.4828 39.8568 38.7723C39.8568 38.9975 39.7 39.2066 39.5431 39.4318C39.2991 39.7214 39.0726 39.9305 38.7589 40.2361C38.4452 40.6704 38.0443 41.1048 38.1315 41.6838C38.1315 42.0538 37.8875 42.3434 37.5738 42.5525C37.0161 43.0511 36.6327 43.7107 36.1622 44.2897C36.0053 44.4345 35.9356 44.7241 35.8485 44.9493C35.7613 45.094 35.9182 45.3192 36.1622 45.3192L37.1033 45.094C38.358 44.7241 39.6128 44.3702 40.7979 43.9359C41.4253 43.7267 42.0527 43.5015 42.6104 43.212C43.7955 42.6329 44.9631 42.2629 46.3051 42.0538C46.9325 41.9895 47.5599 41.8286 48.1872 41.6195C48.6578 41.4104 49.2155 41.2495 49.686 41.0404C51.2545 40.4613 52.823 40.4613 54.4786 40.1718H55.0189C55.2629 40.1718 55.4197 40.397 55.4197 40.5418C55.35 40.767 55.1757 40.8313 55.0189 40.8313C53.0496 41.1208 51.1674 41.6356 49.2852 42.1342C46.3051 42.8581 43.3946 43.8715 40.5714 45.0297C38.7589 45.7535 36.9638 46.3326 35.1514 46.767C34.9945 46.8313 34.9074 46.8313 34.8377 46.9117C34.7679 46.9117 34.6111 46.9922 34.6808 47.1369C34.6808 47.2174 34.7505 47.2817 34.9074 47.2817H35.1514C35.1514 47.2817 34.9074 47.4265 34.9074 47.4908C34.9074 47.6356 35.0642 47.6356 35.1514 47.6356C36.4061 47.4104 37.5041 47.1208 38.602 46.4774H37.9746C39.1597 45.8983 40.3274 45.3192 41.6693 45.0297L41.5996 45.094L41.1988 45.464C41.5996 45.464 41.983 45.3192 42.2967 45.0297C42.0527 45.0297 41.8262 45.094 41.5822 45.094C42.5233 44.5149 43.6212 44.2254 44.6494 43.8554C45.12 43.6302 45.6777 43.4855 46.1482 43.4211C46.0785 43.5659 45.9217 43.7107 45.7474 43.8554C45.5034 43.8554 45.2768 43.9198 45.12 44.0806C45.364 44.0002 45.5208 44.0002 45.7474 43.8554C46.2179 43.8554 46.6885 43.7107 47.0893 43.4211C47.4901 43.5015 47.8038 43.3568 48.1872 43.2763C49.8429 42.842 51.4811 42.472 53.0496 42.0377C53.4504 41.9734 53.7641 41.893 54.0778 41.7482C54.2346 41.7482 54.3044 41.6678 54.3915 41.6034L54.3218 41.4586H54.0081C54.3218 41.3139 54.6355 41.2334 55.0363 41.2334C55.35 41.2978 55.594 41.4586 55.9077 41.523C56.0646 41.6678 56.2214 41.8125 56.2214 42.0377C56.2214 42.2629 56.0646 42.4077 55.9077 42.472C55.594 42.6168 55.2803 42.6972 54.9666 42.842C52.8404 43.3568 50.7317 43.9359 48.6055 44.5149C46.0088 45.1745 43.4992 46.1879 40.9896 47.1208C39.7348 47.5552 38.5498 48.0699 37.2252 48.4238C36.441 48.6329 35.6568 48.7938 34.7854 48.9385L34.3148 49.1476C34.3148 49.1476 34.2451 49.1477 34.3148 49.212C34.3148 49.2924 34.3148 49.3568 34.402 49.3568C34.646 49.4211 34.8725 49.4211 35.1165 49.3568C36.3713 49.212 37.5564 48.842 38.6543 48.4881C40.3099 47.8286 41.8784 47.2495 43.5166 46.6704C45.7125 45.8018 48.0653 45.0779 50.3483 44.4989C52.0039 44.1289 53.5724 43.6946 55.1409 43.1959C55.2977 43.1316 55.4546 43.1316 55.5417 43.0511C55.9426 42.9868 56.326 42.9868 56.2563 43.1316L56.1691 43.1477ZM36.6153 46.8474C36.8593 46.783 37.0161 46.7026 37.2427 46.7026C37.0858 46.767 36.8418 46.767 36.6153 46.8474ZM37.8701 46.4774H37.9398L37.2252 46.7026L37.8526 46.4774H37.8701ZM46.9847 43.4372H46.1134C46.5839 43.2281 46.9847 43.0672 47.4553 43.0672C47.2984 43.212 47.1416 43.3568 46.9847 43.4372ZM46.915 26.5471C46.8279 26.338 46.915 26.0324 47.159 25.8233C48.1872 24.8099 49.0412 23.6517 50.296 22.783C50.6968 22.5578 51.0802 22.204 51.3939 21.9144C52.1782 21.2549 53.0496 20.7562 53.9035 20.3219C54.0604 20.2415 54.2172 20.1772 54.3741 20.1772C54.7749 20.0324 55.0886 20.1128 55.0886 20.3219C55.1583 20.5471 54.9318 20.6115 54.7749 20.7562L53.9907 21.4801C54.3915 21.3353 54.7052 21.2549 55.0886 21.1906C55.3326 21.1262 55.5591 21.1262 55.716 21.3353C55.7857 21.4801 55.8728 21.6249 55.7857 21.8501C55.6289 22.2844 55.3152 22.5096 55.0015 22.7991L54.2172 23.4587C54.0604 23.6034 54.0604 23.7482 54.2172 23.893H54.1475C54.0778 24.1825 53.9035 24.4077 53.5898 24.6168C52.9624 25.0511 52.4047 25.6302 51.8645 26.145C51.4636 26.4345 51.15 26.7241 50.6794 26.8688C50.5923 26.4989 50.4354 26.8045 50.2786 26.8688C49.808 27.2388 49.3375 27.5927 48.9366 28.027L48.4661 28.4613C47.9955 28.8313 47.5947 28.8313 47.1242 28.3809C46.9673 28.3166 46.8802 28.1718 46.8802 27.9466C47.037 27.5123 47.037 27.078 46.8802 26.5632L46.915 26.5471ZM48.9541 42.6329C48.4835 42.9225 48.013 43.0672 47.4553 43.0672C47.9258 42.7777 48.4835 42.6973 48.9541 42.6329ZM50.5226 42.2629C50.052 42.4881 49.4943 42.6329 48.9541 42.6329C49.4246 42.4077 49.9823 42.3434 50.5226 42.2629ZM50.296 26.8367H50.6968L50.6097 27.1262C50.6097 27.1262 50.4528 27.271 50.3831 27.271C50.2263 27.271 50.2263 27.1262 50.3134 27.0458V26.8206L50.296 26.8367ZM51.3939 42.0538C51.0802 42.1986 50.7665 42.1986 50.5226 42.2629C50.7665 42.1182 51.0802 42.0538 51.3939 42.0538ZM52.2653 41.8286C51.9516 41.893 51.7076 41.9734 51.3939 42.0538L52.2653 41.8286ZM53.1367 41.6838L52.2653 41.8286C52.4919 41.7643 52.823 41.6838 53.1367 41.6034V41.6678V41.6838Z" fill="#E6E6E5"/>
<path d="M115.667 1.71077C115.511 1.85555 115.354 2.08075 115.127 2.22552C113.628 3.67324 112.147 5.05662 110.491 6.35957L109.777 6.79388C108.906 7.30863 108.052 7.88772 107.424 8.67592L107.198 8.90112C106.1 9.33544 105.228 10.0593 104.287 10.7188L102.788 11.8126C101.917 12.3274 101.22 13.0513 100.436 13.6947H100.505L100.279 13.9038L100.035 14.129C99.0066 14.6438 98.1527 15.432 97.2813 16.1558C97.1244 16.3006 97.0373 16.4454 97.0373 16.5901C96.9676 17.1049 96.6365 17.4588 96.1659 17.7483C95.5385 18.1183 95.068 18.5526 94.5974 19.1317C94.4406 19.3569 94.1966 19.566 93.8829 19.7108C92.9418 20.2899 92.0704 21.0137 91.2165 21.8824C90.8156 22.2523 90.3451 22.6866 89.8048 22.8958L90.0488 22.3167C89.892 22.4614 89.5783 22.6062 89.8048 22.8958C89.1774 23.3944 88.6197 24.0539 88.0795 24.7135V24.9226C87.4521 25.2925 86.8247 25.7912 86.267 26.3059C85.6396 26.9655 84.8554 27.5446 84.228 28.2684C83.9143 28.7027 83.3566 28.9923 82.9732 29.2818C82.7466 29.4909 82.5026 29.6518 82.4329 29.9413C82.1889 30.3757 81.8752 30.6652 81.4047 30.8904C81.091 31.0352 80.847 31.2604 80.6205 31.4695C79.5225 32.4829 78.3374 33.5767 77.2395 34.6545L76.525 35.314C76.3681 35.4588 76.281 35.684 76.3681 35.9735C75.183 36.633 74.2419 37.566 73.4577 38.5794C72.9872 39.1585 72.6735 39.7376 72.2029 40.3167H72.2726C71.3315 40.9762 70.861 41.9092 70.2336 42.7778C70.1639 42.9226 70.1639 43.0673 70.0767 43.2925C69.9896 43.5821 70.1464 43.8073 70.4776 43.8716H70.9481C71.7324 43.8073 72.4469 43.6464 73.2311 43.2925C75.0436 42.4239 76.9258 41.6196 78.7208 40.8314C79.3482 40.5419 79.9059 40.2523 80.4462 39.8824C81.3873 39.2228 82.5724 38.8689 83.6703 38.5794C84.1408 38.4346 84.6114 38.3542 85.0819 38.0647C85.5525 37.8395 86.023 37.6947 86.4936 37.5499C87.0513 37.2604 87.6787 37.0352 88.2189 36.7456C88.3758 36.6009 88.5326 36.5204 88.6895 36.5204C89.0032 36.4561 89.404 36.7456 89.3169 36.9547C89.16 37.4695 89.3866 37.6786 89.7874 37.9038C90.1011 38.129 90.1882 38.4185 89.9442 38.7081C89.9442 38.8529 89.8571 38.9976 89.9442 39.0781C90.014 39.2228 90.2579 39.3033 90.2579 39.3676C90.2579 39.5928 89.9442 39.6572 89.7874 39.7376C86.1799 41.4748 82.6421 43.2925 79.0345 45.0941C77.3789 45.8984 75.7407 46.6223 74.0154 47.2014C72.7606 47.6357 71.4187 48.0057 70.0942 47.9252C68.4385 47.9252 67.114 47.0566 66.4867 45.6732C66.3298 45.3837 66.2427 45.0137 66.0858 44.7242C65.9987 44.4346 65.685 44.3542 65.5281 44.5794C65.2144 44.8689 64.8136 45.0137 64.343 45.0137C64.0991 45.0137 63.8725 45.1585 63.6285 45.3033C61.9032 46.1076 60.021 46.751 58.0517 47.121L56.0823 47.6357C54.5836 47.9252 53.1022 46.9762 52.8582 45.6089C52.7014 45.1746 52.6142 44.6598 52.5445 44.2255C52.4748 43.566 52.5445 42.9226 53.0151 42.3435C53.6425 41.3944 54.357 40.6062 55.3678 40.0271C55.6815 39.818 55.9952 39.5285 56.2392 39.3033C57.494 38.1451 59.0625 37.6303 60.7878 37.2765C61.4152 37.1317 62.0426 37.1317 62.67 37.3408C63.3845 37.566 63.9248 37.9199 64.3256 38.4346C64.4825 38.7242 64.6393 39.0137 64.8833 39.3033C65.1273 39.5928 65.3539 39.5928 65.6675 39.448C66.2949 39.1585 67.0095 38.7885 67.6369 38.4346C68.3514 38.0003 68.9788 37.4856 69.5191 36.8421C70.7738 35.4588 71.9589 34.0915 73.3706 32.7885C74.0851 32.2094 74.5556 31.4051 75.2528 30.8261C75.9499 30.247 76.6644 29.5874 77.3789 28.944C77.4486 28.8797 77.5358 28.7992 77.6229 28.7992C78.4943 28.3649 79.1217 27.6411 79.7491 26.9172C80.5333 26.1129 81.3176 25.3891 82.1018 24.6652C83.3566 23.4266 84.7682 22.3488 85.9533 21.1102C87.2081 19.9521 88.4629 18.8582 89.8048 17.8448C92.2447 16.0271 94.4406 13.936 96.9502 12.1987C97.9784 11.3944 98.9892 10.6706 100.087 9.88235L100.331 9.73758C102.614 7.91989 105.193 6.40782 107.546 4.67056C108.261 4.1719 108.888 3.7215 109.585 3.28718C109.829 3.14241 110.056 2.99764 110.3 2.77244C111.328 1.82337 112.652 1.09951 113.907 0.456082C114.151 0.31131 114.465 0.166538 114.779 0.0861093C114.935 0.00568035 115.179 -0.0586628 115.249 0.0861093C115.406 0.31131 115.249 0.456082 115.179 0.520426C114.935 0.745627 114.779 0.954742 114.552 1.09951C114.796 1.09951 114.953 1.03517 115.179 1.03517C115.406 1.03517 115.65 0.970828 115.737 1.17994C115.894 1.40514 115.737 1.61426 115.65 1.75903L115.667 1.71077ZM63.3845 44.6759L63.3148 44.5955L62.6874 44.8207C60.8052 45.5445 58.8359 46.0593 56.7969 46.4936L55.9255 46.7188C55.9255 46.7188 55.7686 46.8636 55.8558 46.9279C55.8558 47.0084 55.9255 47.0084 56.0126 47.0727C56.1695 47.0727 56.3263 47.0727 56.4832 47.0084C58.2957 46.7188 60.0907 46.2845 61.816 45.625C62.3737 45.3998 62.914 45.1907 63.3845 44.8207V44.6759ZM56.7097 45.1102C57.8077 45.0459 60.0036 44.4507 60.8749 44.0164L61.0318 43.8716C61.0318 43.8716 61.2758 43.8716 61.3455 43.8073C61.4152 43.8073 61.4152 43.7429 61.5023 43.7429C61.4326 43.7429 61.3455 43.6625 61.2584 43.7429C61.1886 43.7429 61.1015 43.8073 61.0144 43.8877H60.387C60.7007 43.7429 61.0144 43.5177 61.3281 43.373C61.5546 43.2282 61.8683 43.1639 62.1123 42.8582C61.7115 42.8582 61.3978 43.003 61.0841 43.1478L58.8011 43.8073C58.3305 43.9521 57.7728 44.0968 57.3023 44.2416C57.0583 44.322 56.8317 44.3864 56.9014 44.5311C56.9712 44.8207 56.5877 44.9011 56.6575 45.1102H56.7097ZM57.1106 40.2523C57.1106 40.2523 57.2674 40.1076 57.3546 40.1076C57.2674 40.1076 57.1977 40.1076 57.1977 40.1719C57.1977 40.1719 57.1745 40.1987 57.128 40.2523H57.1106ZM58.9231 38.9494C59.3936 38.885 59.7944 38.7242 60.3347 38.6598C60.3347 38.8046 60.265 39.0298 60.4915 38.9494C61.0318 38.885 61.5895 38.8046 62.1472 38.6598C62.2169 38.5955 62.304 38.3703 62.304 38.2255C62.3912 38.0807 62.2343 38.0807 62.1472 38.0164C60.9621 38.0164 59.8641 38.2255 58.9231 38.8207V38.9655V38.9494ZM59.9513 41.8448C59.9513 42.07 59.8816 42.2791 60.1081 42.2791C60.9795 42.07 61.7638 41.8448 61.9206 40.8958C60.8924 40.9601 60.0384 41.3301 59.3239 41.8448C59.2542 41.8448 59.2542 41.9092 59.2542 41.9092V41.9896L59.3239 42.0539L59.9513 41.8287V41.8448ZM62.3912 40.1076C62.3912 40.1076 62.2343 40.0432 62.0775 40.0432C61.2932 40.0432 60.509 40.3328 59.7247 40.7027C59.655 40.7027 59.5679 40.8475 59.5679 40.8475C59.5679 40.9923 59.7247 40.9923 59.7944 40.9923C60.5787 40.7671 61.2932 40.6223 61.9903 40.4132C62.06 40.4132 62.1472 40.4132 62.2169 40.3488C62.2866 40.3488 62.4609 40.2845 62.3737 40.1236L62.3912 40.1076ZM70.6344 45.1102C70.9481 45.1746 71.2618 45.1102 71.5755 45.0459C71.8892 45.0459 72.2029 44.9011 72.5166 44.9011C72.9174 44.8207 72.5863 44.9655 72.5863 45.0459C72.5166 45.1907 72.6735 45.2711 72.7432 45.1907C74.1548 44.8207 75.5664 44.322 76.7515 43.5177C76.5947 43.5177 76.4378 43.5177 76.281 43.4373C76.6818 43.2282 77.0652 43.003 77.5358 42.8582L77.2918 43.2925C77.6926 43.1478 78.076 42.9226 78.3897 42.633L77.5183 42.8421C77.6752 42.6974 77.832 42.5526 78.076 42.4078C79.3308 41.8287 80.5856 41.2496 81.7707 40.6706C82.0147 40.5258 82.2412 40.5258 82.4852 40.4454C82.5549 40.5097 82.4852 40.5901 82.6421 40.5901L82.4852 40.4454C82.7292 40.3006 83.0255 40.1558 83.3566 40.0754C83.5134 40.011 83.5832 40.1397 83.5832 40.2202C83.8969 40.1397 84.2106 40.0754 84.4545 39.8502L84.9251 39.6411C85.0819 39.5606 85.1691 39.4963 85.3259 39.4159C85.7268 39.4159 85.9533 39.2711 86.1973 39.0459C86.9815 38.9011 87.6089 38.6759 88.1666 38.2416V38.0164C88.2363 37.8716 88.3235 37.6464 88.0098 37.6464C87.9401 37.6464 87.7832 37.6464 87.6961 37.7108C85.5002 38.6598 83.2172 39.448 81.1084 40.5419C79.6968 41.3462 78.1283 41.9896 76.6295 42.7135C74.9042 43.5821 73.022 44.2416 71.1398 44.7403C70.983 44.8207 70.739 44.8207 70.6693 45.0298L70.6344 45.1102ZM85.8662 40.7671C82.8861 42.2148 79.9059 43.6625 76.9084 45.0459C75.4096 45.7698 73.8411 46.2845 72.2726 46.7188C72.0461 46.7188 71.8021 46.7832 71.5581 46.9279C71.4884 46.9279 71.4012 47.0084 71.4012 47.0727C71.471 47.0727 71.5581 47.137 71.6278 47.137H71.7846C71.9415 47.137 72.0983 47.137 72.3249 47.0727C73.5797 46.8475 74.8345 46.4132 76.0196 45.9145C77.4312 45.3354 78.7731 44.6116 80.1848 43.9521C82.8512 42.6491 85.6048 41.3462 88.2712 39.9628C88.5152 39.8984 88.7417 39.818 88.8986 39.5928V39.5285L88.8289 39.4641C88.672 39.4641 88.5152 39.4641 88.428 39.5285C87.5567 39.9628 86.7027 40.3971 85.8313 40.7671H85.8662ZM74.4859 44.322C74.2419 44.3864 74.0851 44.3864 73.8585 44.4668L74.4859 44.2416C74.6428 44.2416 74.7996 44.1773 74.9565 44.0968L74.4859 44.322ZM76.2113 43.4534H76.281L76.2113 43.5338C76.1241 43.5982 75.9673 43.5982 75.8104 43.6786C75.8801 43.6143 76.037 43.5338 76.2113 43.4534ZM95.9219 17.507L95.8348 17.4427V17.507H95.9219Z" fill="#E6E6E5"/>
<path d="M112.461 43.6625C112.304 43.7429 112.147 43.8073 111.99 43.8073C111.59 43.8073 111.276 44.0164 110.962 44.1773C108.679 45.2711 106.326 46.2845 103.904 47.1531C100.994 48.1665 98.1006 49.1799 95.0334 49.759C93.1512 50.0486 91.269 50.3381 89.2997 50.2738C87.6441 50.2094 86.2324 49.759 84.9777 48.6813C84.0366 47.8127 83.4789 46.7188 83.2523 45.4159C83.1826 44.6116 83.1826 43.7429 83.1826 42.9547C83.1826 41.137 83.8972 39.625 85.0648 38.2416C86.0059 37.1478 87.191 36.2148 88.2889 35.3462C89.3868 34.4775 90.6416 34.2523 91.9835 34.188C92.9246 34.188 93.7089 34.558 94.1794 35.2818C94.894 36.3757 95.4342 37.5338 95.5213 38.9011C95.6085 39.7054 95.3645 40.4293 94.7371 41.0084C94.2666 41.5231 93.796 41.9574 93.4823 42.6009C93.2383 42.9708 92.9246 43.1799 92.6109 43.3247C91.0425 44.129 89.474 44.7081 87.8184 45.2068C87.5744 45.2872 87.2607 45.2872 87.0341 45.2872C86.9644 45.2872 86.8076 45.2872 86.8076 45.1424C86.8076 45.0781 86.9644 44.9976 87.0341 44.9976C87.191 44.9333 87.3478 44.9333 87.5047 44.9333C88.6026 44.7081 89.6308 44.3542 90.6416 43.8395L90.9553 43.6143V43.4695L90.8682 43.4051C90.6416 43.4695 90.3976 43.4695 90.2408 43.5499C89.1428 43.9842 87.9578 44.2738 86.703 44.6438C86.5461 44.6438 86.3022 44.7242 86.1627 44.7885C85.849 44.9333 85.849 45.3033 86.0756 45.5124C86.2324 45.6572 86.4764 45.7215 86.703 45.8019C87.6441 46.0915 88.5852 46.1719 89.6134 46.1719C90.9553 46.1076 92.3669 45.9467 93.6914 45.8019C95.0334 45.5928 96.2882 45.3033 97.5429 44.8529H97.7695C99.9654 44.3542 102.092 43.4695 104.2 42.6813L107.895 41.3783C108.679 41.1531 109.463 40.8797 110.248 40.574L110.962 40.3649C111.52 40.2202 111.834 40.4293 111.834 40.944C111.834 41.314 111.99 41.5231 112.234 41.8127C112.548 42.1022 112.635 42.4722 112.322 42.7617C112.165 42.9869 112.165 43.1317 112.322 43.2765C112.391 43.4212 112.391 43.566 112.478 43.7108L112.461 43.6625ZM86.7901 43.2925C86.8598 43.5177 87.1038 43.3569 87.2607 43.3569C87.6615 43.2121 88.0449 43.0673 88.3586 42.8421C88.3586 42.7778 88.4457 42.7778 88.4457 42.7778C88.4457 42.7135 88.3586 42.633 88.3586 42.633L88.5155 42.4883L88.5852 42.3435C88.5852 42.2631 88.5155 42.1987 88.4283 42.2631C88.0275 42.3435 87.6441 42.4883 87.2432 42.633C87.0864 42.633 86.9295 42.6974 86.9295 42.8421C86.7727 42.9869 86.6856 43.1317 86.7727 43.2765L86.7901 43.2925ZM88.3586 42.633V42.6974V42.633ZM88.4457 40.3167C88.4457 40.751 88.6026 40.8958 88.9163 40.8314C89.5437 40.6866 90.1014 40.4614 90.6416 40.1719C91.269 39.8019 91.7396 39.3033 92.2101 38.7242C92.2798 38.5794 92.2798 38.3542 92.2101 38.2094C92.0533 38.0647 91.8964 38.0647 91.7396 38.1451C91.025 38.2094 90.4848 38.5794 90.0142 38.869C89.6134 39.0942 89.3868 39.3676 88.986 39.5285C88.5852 39.7537 88.3586 39.9628 88.4457 40.3328V40.3167ZM88.6897 36.8421C89.1603 36.6169 89.6308 36.4078 90.1885 36.2631C90.659 36.1183 91.2167 36.0379 91.757 35.9735C91.9138 35.8931 92.001 35.8931 92.1578 35.8931L92.4018 35.7483C92.4018 35.6035 92.245 35.6035 92.1578 35.6035C91.9313 35.5231 92.0881 35.4588 92.1578 35.4588C92.245 35.3944 92.4018 35.3944 92.3147 35.2336C92.3147 35.1692 92.245 35.1692 92.1578 35.0888C91.6873 35.0888 91.1296 35.0888 90.659 35.2979C90.5893 35.2979 90.5022 35.4427 90.5022 35.5231C90.7462 35.7483 90.659 35.8127 90.4325 35.8931C89.718 36.0379 89.0906 36.1826 88.7072 36.8421H88.6897ZM88.7594 47.3462C90.0142 47.8609 91.269 47.4909 92.5238 47.5714C91.8964 47.6357 91.3387 47.7161 90.7113 47.8609C90.781 48.0057 90.9553 48.0057 91.025 48.0057C93.1512 47.9413 95.2599 47.6357 97.299 46.9923C97.3687 46.9923 97.4558 46.9118 97.5429 46.8475C97.6127 46.8475 97.6127 46.7832 97.5429 46.7027C97.5429 46.7027 97.4732 46.7027 97.3861 46.6384H97.3164C97.6301 46.4936 97.9438 46.3488 98.2575 46.2041C98.4143 46.2041 98.5712 46.2041 98.4143 45.9145C96.8458 46.2845 95.3471 46.7188 93.7089 46.9279C92.1404 47.1531 90.4848 47.2175 88.7594 47.3623V47.3462ZM106.187 45.7537C106.03 45.6089 105.873 45.6089 105.716 45.6893C105.089 45.9145 104.375 46.0593 103.834 46.2684C102.022 46.9923 100.227 47.507 98.4143 48.0861C95.8176 48.81 93.1512 49.2443 90.4151 49.2443C90.1014 49.2443 89.7005 49.3247 89.3171 49.3247C89.23 49.3247 89.1603 49.3891 89.1603 49.5499C89.1603 49.5499 89.23 49.6143 89.3171 49.6143C90.5719 49.759 91.757 49.759 93.0118 49.6786C94.8242 49.4534 96.6193 49.0995 98.3446 48.5204C100.471 47.8609 102.58 47.1371 104.619 46.3488C105.176 46.2041 105.716 46.0593 106.187 45.7698V45.7537ZM92.4541 37.2765C91.8964 37.1317 91.3562 37.2765 90.8856 37.5017C90.4151 37.6464 90.0142 37.936 89.9445 38.4507C90.5719 38.0164 91.3561 37.7269 92.2275 37.6464C92.2972 37.6464 92.3844 37.6464 92.4715 37.5821C92.5412 37.5177 92.5412 37.4373 92.5412 37.4373C92.5412 37.373 92.4715 37.2925 92.4715 37.2925L92.4541 37.2765ZM91.1993 41.2657C91.1993 41.2657 91.1122 41.2014 91.1122 41.2657C90.8682 41.2657 90.7113 41.4909 90.5719 41.6357C90.4848 41.6357 90.4151 41.7001 90.4151 41.7001C90.2582 41.7001 90.2582 41.7805 90.3454 41.7805C90.3454 41.8448 90.4151 41.7805 90.4151 41.7805L90.5719 41.6357C90.7985 41.5714 91.0425 41.5714 91.1993 41.3462V41.2818V41.2657ZM92.4541 42.7939H92.367V42.8582L92.4541 42.7939ZM93.9529 47.3623H93.8831L93.9529 47.2979L94.0226 47.3623H93.9529ZM96.2359 46.8475L97.3338 46.6384C96.7064 47.0084 95.9919 47.0727 95.1379 47.2175C95.6085 46.9279 95.9222 46.9279 96.2359 46.8475ZM112.478 43.8716C112.322 43.8716 112.165 43.8073 112.008 43.8073C112.165 43.8073 112.322 43.8073 112.478 43.8716Z" fill="#E6E6E5"/>
<path d="M146.199 40.1076C146.443 40.6867 146.042 40.8315 145.641 40.9119C144.613 41.121 143.759 41.6358 142.818 42.0701C141.476 42.6492 140.221 43.0192 138.74 43.0192C137.328 43.0192 135.83 43.1639 134.418 43.2444C132.762 43.4535 131.194 43.3891 129.556 43.0996C128.527 42.9548 127.429 42.8101 126.419 42.5205C126.175 42.4562 125.948 42.4562 125.791 42.3757C125.164 42.2953 124.92 42.3757 124.606 42.8744C124.449 43.3087 124.292 43.743 124.048 44.1773C123.491 44.8369 122.794 45.4803 122.166 46.1398C122.097 46.2041 122.009 46.3489 122.097 46.3489C122.497 46.8637 121.94 47.0084 121.626 47.1532C120.528 47.8771 119.273 48.3114 117.931 48.6009C115.021 49.1157 112.982 47.2175 112.598 45.3355C112.529 44.6117 112.354 43.9521 112.354 43.2283C112.354 42.1345 112.755 41.2015 113.452 40.3328C114.324 39.1747 115.491 38.1613 116.677 37.2122C117.077 36.8422 117.618 36.6975 118.245 36.6331C118.559 36.5688 118.872 36.6975 118.872 36.8583C118.872 37.0674 118.559 37.0674 118.402 37.2283C118.332 37.2283 118.245 37.2283 118.245 37.2926C118.175 37.3731 118.175 37.4374 118.175 37.5178L118.402 37.743H118.559C119.186 37.5178 119.814 37.4535 120.214 36.9388C120.615 36.424 120.842 36.424 121.312 36.7136C123.979 38.3865 126.959 38.8851 130.096 39.1103C131.281 39.1747 132.449 39.2551 133.634 39.1747L138.113 38.9495C138.827 38.8851 139.524 38.8047 140.239 38.8047C140.796 38.8047 141.267 38.8047 141.738 38.6599C142.208 38.5956 142.679 38.4347 143.149 38.4347C143.463 38.5152 143.777 38.3704 144.09 38.2095L144.962 37.8396C145.502 37.6144 145.746 37.7752 145.903 38.2739C145.972 38.4991 145.972 38.7725 146.216 38.9334C146.46 39.3034 146.53 39.5929 146.216 39.9468V40.0916L146.199 40.1076ZM121.556 40.9763L120.371 39.5929C119.97 39.2229 119.587 39.1586 119.116 39.4481C118.89 39.5929 118.646 39.7377 118.489 39.8824L117.548 40.542C116.764 40.9763 116.136 41.5554 115.892 42.424C116.049 42.424 116.136 42.5688 115.962 42.7135C115.735 43.1479 115.422 43.5822 115.247 44.0969C115.178 44.5312 115.247 44.7564 115.718 44.7564C116.659 44.8208 117.531 44.7564 118.384 44.3221C119.57 43.743 120.511 43.0192 121.208 42.0701C121.365 41.9253 121.452 41.7001 121.609 41.5554C121.696 41.3302 121.696 41.121 121.539 40.9763H121.556ZM117.478 46.3328C118.036 46.558 118.419 46.3328 118.89 46.1237V46.0594L118.82 45.9789H118.262C118.576 45.8342 118.82 45.609 119.134 45.3999C118.419 45.4803 117.722 45.6251 117.095 45.8342C117.025 45.8342 117.025 45.8985 117.025 45.9789C117.025 46.1237 117.095 46.1237 117.182 46.1237C117.252 46.1881 117.339 46.1881 117.426 46.1881C117.426 46.2524 117.496 46.3328 117.496 46.3328H117.478ZM120.458 47.2015L120.301 47.0567C120.145 47.121 119.988 47.121 119.831 47.121C119.204 47.3462 118.576 47.491 117.862 47.7001L117.635 47.8449C117.635 47.8449 117.565 47.9092 117.565 47.9897C117.565 48.0701 117.635 48.054 117.722 48.1344H117.879C118.437 48.1344 118.977 47.9897 119.604 47.7645C119.848 47.684 120.232 47.5393 120.389 47.3302C120.476 47.3302 120.476 47.1854 120.476 47.1854L120.458 47.2015ZM124.153 44.5956C124.153 44.5956 123.996 44.7403 123.996 44.8208V44.7564C123.996 44.7564 124.066 44.6921 124.153 44.6117V44.5956ZM124.153 44.1613H124.31C124.24 44.306 124.153 44.4508 124.153 44.5956V44.1613ZM131.211 40.542C131.612 40.542 131.995 40.6224 132.309 40.6224H135.603C135.76 40.6224 136.004 40.542 136.23 40.8476H134.034C134.278 40.9924 134.435 40.9924 134.505 40.9924C136.474 41.0567 138.357 40.8476 140.239 40.7672C140.465 40.7672 140.796 40.7028 141.023 40.6224C141.267 40.542 141.424 40.542 141.581 40.3328C141.894 39.9629 142.295 39.8181 142.766 39.6733C143.079 39.5929 143.393 39.5286 143.707 39.3838C143.777 39.3838 143.864 39.3194 143.777 39.1747C143.777 39.1103 143.62 39.1103 143.533 39.1747C143.376 39.1747 143.219 39.239 143.132 39.239C142.347 39.609 141.563 39.7538 140.692 39.8181C139.35 39.9629 138.025 40.1076 136.683 40.1881C134.958 40.1881 133.233 40.3328 131.507 40.4133C131.438 40.4133 131.263 40.4133 131.194 40.558L131.211 40.542ZM144.16 40.9119C143.689 40.6867 143.289 41.0567 142.905 41.2015C142.191 41.491 141.494 41.7806 140.779 41.861C139.995 42.0058 139.211 42.0862 138.426 42.1505C136.3 42.2149 134.261 42.3757 132.152 42.3757C131.839 42.3757 131.525 42.3757 131.211 42.5205C131.368 42.7457 131.682 42.7457 131.926 42.7457C132.483 42.8101 133.024 42.8905 133.651 42.8101C135.533 42.8101 137.415 42.6653 139.298 42.6009C140.709 42.5205 141.964 42.231 143.149 41.5875C143.463 41.3623 143.933 41.298 144.177 40.928L144.16 40.9119ZM139.054 40.542H137.799V40.4776H139.054V40.542ZM140.552 40.3328H140.465C140.465 40.3328 140.552 40.2685 140.622 40.2685L140.692 40.3328H140.535H140.552Z" fill="#E6E6E5"/>
</svg>
