<svg width="177" height="71" viewBox="0 0 177 71" fill="none" xmlns="http://www.w3.org/2000/svg">
<path d="M43.385 15.5817H43.32C43.385 15.7333 43.4716 15.9282 43.32 16.0798C42.9735 16.4263 42.9735 16.8594 42.8219 17.2926C42.7569 17.5091 42.8219 17.7257 42.6703 17.8556C42.4537 18.0722 42.4537 18.2888 42.5187 18.5053C42.5837 18.6569 42.4537 18.7869 42.3671 18.9385C42.2155 19.155 42.0856 19.285 42.0206 19.5015C41.241 21.7105 40.5263 23.9195 39.8116 26.1935L39.5951 27.1897C39.7467 27.1247 39.8116 27.0381 39.9416 27.0381C39.8766 27.5362 39.8766 28.0993 39.5084 28.5324C39.2269 28.4674 39.3568 28.3158 39.3568 28.1859V27.7528C38.9237 28.5974 38.6422 29.3987 38.5772 30.3083C38.2957 30.958 37.9275 31.586 37.646 32.3007L37.2128 33.2969C37.2128 33.2969 37.1478 33.5135 37.3644 33.5784C37.4294 33.5784 37.516 33.5135 37.581 33.5135C37.516 33.86 37.4294 34.0765 37.1478 34.2931C36.4981 34.7262 36.3682 35.4409 36.1516 36.004V36.2205C36.3032 36.2855 36.3682 36.2205 36.4332 36.1556C36.4332 36.0906 36.4981 36.0906 36.5848 36.004C36.5848 36.0689 36.6497 36.1556 36.6497 36.1556C36.4981 36.5021 36.4332 36.9352 36.1516 37.2168C36.0867 37.3684 35.9351 37.2817 35.8701 37.2168C35.6535 37.4983 35.5236 37.7149 35.8701 37.9964H35.8051L35.5886 39.2092C35.5236 39.7073 35.5886 39.9238 36.0217 40.1404C36.0217 40.1404 36.0217 40.2054 36.0867 40.2054C37.0179 40.422 37.4294 41.2016 38.0791 41.8513C38.2957 42.0029 38.4256 42.2844 38.5122 42.566C38.5122 42.9125 38.2957 43.2157 38.0141 43.129C37.7326 43.129 37.451 43.0641 37.1478 42.9774C36.5848 42.9125 35.9351 42.9125 35.372 42.9125C34.5924 43.0641 34.0293 43.3456 33.7261 44.1253C33.5745 44.6234 33.4445 45.1864 33.0764 45.6196C32.9248 45.6845 32.7948 45.6845 32.7299 45.7712C32.4483 46.0527 32.3834 46.3342 32.2967 47.0489L33.0764 45.6196C33.0764 46.0527 32.9248 46.4642 32.7948 46.8973C31.9502 49.1063 31.1489 51.3803 30.3043 53.6542L29.2431 56.3613C29.1782 56.5779 29.0266 56.7078 28.9616 56.8594C29.1132 56.2963 29.2431 55.7982 29.3081 55.1485C28.875 55.7116 28.81 56.4263 28.5285 57.076L28.9616 56.8594C28.81 57.639 28.6151 58.3537 28.182 59.0034V58.0722C27.9654 58.4187 27.8355 58.7869 27.6839 59.22C27.6189 59.3716 27.5323 59.5665 27.5323 59.7181C27.5323 59.8697 27.6839 59.8697 27.7488 59.7831C27.8138 59.7831 27.9004 59.7181 27.9654 59.6315C27.9004 60.3461 27.6189 60.9742 27.4023 61.6889C26.6876 63.3997 26.0596 65.1756 25.3449 66.8865C25.1933 67.3196 25.0634 67.7311 24.8468 68.0343L25.0634 67.0381C25.215 66.6049 25.3449 66.2584 25.4099 65.8253C25.4099 65.7603 25.4099 65.6737 25.3449 65.6737H25.1933C24.6303 66.3234 24.4137 67.0164 24.3487 67.8177C24.2838 68.0993 24.5003 68.1642 24.8468 68.0343C24.6952 68.5974 24.5003 69.0955 24.5653 69.6802C24.5653 70.1783 24.2188 70.3949 23.9156 70.6114C23.764 70.6764 23.699 70.6114 23.634 70.5465C23.5691 70.2649 23.4175 70.2649 23.2009 70.3299C22.7028 70.4815 22.6378 70.3949 22.4862 69.9834L22.3346 69.6369C22.3346 69.4203 22.183 69.3553 22.0531 69.2904C21.49 69.0738 21.4034 68.9439 21.555 68.3591C21.8365 67.1464 22.2047 65.9336 22.6162 64.7208C22.9627 63.8762 23.1793 62.9449 23.4608 62.0787C24.0239 60.5844 24.522 59.0251 25.1067 57.4441C25.6698 56.2314 25.9513 54.9536 26.3845 53.6759C26.666 52.6147 27.0991 51.6185 27.5323 50.6223C27.8788 49.5611 28.3119 48.4783 28.6801 47.4171C28.9616 46.7024 29.1782 45.9877 29.4597 45.2731L29.6763 44.4284C29.6763 44.1469 29.4597 43.9303 29.1782 43.8654C29.0266 43.8654 28.8317 43.8654 28.6151 43.9303L21.49 45.4247C19.4326 45.9228 17.2886 46.4209 15.2312 46.854C14.0834 47.1355 13.1738 47.7203 12.3076 48.4133C12.156 48.5649 12.091 48.6948 12.026 48.8464C11.7445 49.4095 11.3114 49.9942 11.0298 50.5573C10.7483 51.0554 10.5317 51.5535 10.5317 52.1166C10.5317 52.3981 10.4668 52.6797 10.3152 52.9612C10.1636 52.8096 10.0986 52.7446 9.96865 52.8962L9.90368 52.9612C9.90368 52.9612 9.96865 53.1128 10.0553 53.0262C10.1203 53.0262 10.2069 52.9612 10.3368 52.9612L9.12404 55.1052C8.8425 55.0402 8.62594 55.2568 8.47434 55.4517C8.12783 56.2314 7.62973 57.0976 7.26156 57.8773C7.04499 58.3754 6.82843 58.8735 6.76346 59.4366C6.61186 59.5882 6.48192 59.7831 6.48192 59.9996C6.48192 60.8442 6.13541 61.5589 5.76725 62.3386C5.55068 62.6201 5.33411 62.9883 5.20417 63.3348V62.7717C5.05258 62.9883 4.92264 63.2048 4.77104 63.4214C4.70607 63.573 4.77104 63.7029 4.98761 63.7679C5.20417 64.4176 5.05258 65.0457 4.77104 65.6954C4.3379 66.8432 3.9914 67.9693 3.55826 69.1821C3.49329 69.2471 3.49329 69.3987 3.40666 69.4636C3.34169 69.7452 3.25507 70.0267 2.97353 70.1783C2.62702 70.3299 2.25886 70.2433 1.91235 70.2433C1.76075 70.1783 1.63081 70.0267 1.56584 69.8968C1.34927 69.6152 1.13271 69.2471 0.91614 68.9006C0.699573 68.619 0.699573 68.2508 0.764543 67.9043C0.829513 67.1247 0.91614 66.3451 1.19768 65.5654L2.90856 61.0825C3.06016 60.8009 3.12513 60.5194 3.40666 60.2379C3.6882 59.8914 3.90477 59.3932 4.05637 58.9601C4.61944 57.1843 5.39908 55.4734 6.26535 53.8275L6.91505 52.4847C7.19659 51.7701 7.47813 51.0554 7.91126 50.4923C8.06286 50.2108 8.12783 49.9942 8.25777 49.7777C8.32274 49.5611 8.40937 49.3445 8.25777 49.2146C8.10617 48.998 7.91126 49.063 7.6947 49.063L7.04499 49.2796C6.39529 49.5611 5.76725 49.7777 5.11755 49.9942L3.77483 50.4274C4.12134 50.2108 4.4895 50.0809 4.83601 49.8643C5.70228 49.5178 6.61186 49.2146 7.47813 48.8681C7.75967 48.7165 8.0412 48.6515 8.32274 48.5216L8.38771 48.37L8.23611 48.2184C8.08452 48.2833 7.88961 48.2833 7.73801 48.37C6.52523 48.8681 5.31246 49.3012 4.09968 49.7993C3.25507 50.1458 2.54039 50.579 1.76075 50.9471C1.41424 51.1637 1.11105 51.2936 0.894483 51.6618C0.742886 51.8134 0.894483 51.9433 1.04608 52.0083C0.98111 52.0733 0.98111 52.1599 0.894483 52.1599C0.742886 52.3765 0.742886 52.658 0.396378 52.593C0.114841 52.4414 -0.101726 51.9433 0.0498707 51.6618C0.201468 51.3153 0.483005 51.0987 0.764543 50.8821L2.25886 49.8859C2.54039 49.6694 2.90856 49.4528 3.1901 49.2362C3.5366 49.2362 3.75317 49.0846 3.96974 48.8897C4.68441 48.8248 5.24749 48.4566 5.74559 48.1101L6.39529 47.8935H6.33032L6.76346 47.677C7.04499 47.5254 7.41316 47.4604 7.75967 47.3304C8.1928 47.1139 8.53931 46.6807 9.10238 46.6807V46.7457C9.10238 46.7457 9.16735 46.5941 9.25398 46.5941C9.40558 46.5291 9.53552 46.4425 9.47055 46.3126C9.47055 46.161 9.25398 46.3126 9.12404 46.3126H9.05907C6.50358 47.1572 4.01305 48.1534 1.65247 49.5827C1.08939 49.8643 0.591289 50.2974 0.0931842 50.6439C0.439692 49.9293 0.937797 49.4312 1.5875 48.998C2.73531 48.3483 3.86146 47.6553 5.07423 47.1572C5.50737 47.0056 5.9405 46.8107 6.35198 46.6591L7.99789 46.0094C8.496 45.7928 8.9941 45.5113 9.55718 45.3597C10.4018 45.0781 10.9865 44.5151 11.398 43.8004C12.0477 42.5876 12.7407 41.4398 13.3904 40.3137C13.8236 39.534 14.3217 38.7544 14.8198 38.0397C15.4695 37.2601 15.9676 36.3288 16.4657 35.3976C16.8988 34.6829 17.3319 33.9682 17.8084 33.3402C18.025 32.9937 18.2415 32.6905 18.3715 32.344C18.8046 31.5643 19.2161 30.9146 19.8008 30.2866L20.2339 29.6369C21.7283 27.298 23.5041 25.089 25.215 22.7934C26.2762 21.364 27.4889 20.0213 28.5718 18.527C28.7234 18.3104 28.9183 18.1805 29.0699 18.0289C30.2827 16.6862 31.5604 15.3218 32.7082 13.8925C33.986 12.3981 35.3503 10.9688 36.6931 9.53945C36.9096 9.32289 37.1262 9.10632 37.3428 8.97638C38.0574 8.47827 38.7721 7.98017 39.3352 7.41709C39.6817 7.07059 40.1798 6.85402 40.6779 6.85402C41.241 6.78905 41.7391 7.00562 42.1072 7.50372C43.255 9.063 43.8831 10.7739 43.6665 12.8529C43.5149 13.7842 43.45 14.6938 43.385 15.625V15.5817ZM1.24099 51.7484L1.45756 51.5319C1.45756 51.5319 1.30596 51.6835 1.30596 51.7484H1.24099ZM1.45756 51.5319C1.60916 51.4669 1.7391 51.4669 1.89069 51.3803C1.7391 51.4452 1.60916 51.5319 1.45756 51.5319V51.5319ZM1.89069 51.3803C2.45377 50.8822 3.10347 50.6006 3.81814 50.384C3.25507 50.8172 2.60537 51.1637 1.89069 51.3803V51.3803ZM4.03471 61.2124C4.03471 61.2124 3.96974 61.2124 3.88311 61.2774C3.88311 61.429 3.88311 61.4939 3.81814 61.5589C3.81814 61.6239 3.75317 61.7105 3.66654 61.7755V61.9921L3.81814 61.8405V61.5589L4.03471 61.3423V61.1908V61.2124ZM12.156 48.9547C12.156 48.9547 12.156 48.8897 12.091 48.8031C12.156 48.8031 12.2426 48.8031 12.3076 48.8681C12.3726 48.8681 12.3726 48.933 12.3076 49.0197C12.3076 49.0197 12.257 48.998 12.156 48.9547V48.9547ZM26.1895 43.8221C24.9768 43.8221 23.699 44.0386 22.7678 44.4718C21.9232 44.4718 21.1219 44.6883 20.3422 45.0348C19.1944 45.0998 18.1332 45.3813 16.9854 45.6845C16.4224 45.8361 15.7727 45.9661 15.2746 46.2476H15.123C14.7764 46.3126 14.4733 46.4642 14.6898 46.4642C14.8414 46.5291 15.0363 46.3992 15.1879 46.3126C15.1879 46.3126 15.1879 46.2476 15.2529 46.2476C15.5344 46.2476 15.9026 46.2476 16.1841 46.1826C17.6135 45.8361 18.9562 45.5329 20.3206 45.0348C21.1652 44.9699 21.9665 44.8832 22.7461 44.4718C23.8073 44.4718 24.8901 44.1902 26.1679 43.8221H26.1895ZM40.8511 11.0554C40.418 11.0554 40.2014 11.337 39.9199 11.6185L38.3606 13.1128C38.1441 13.3294 37.9275 13.5459 37.581 13.4593C37.2994 13.4593 37.0829 13.6109 36.9313 13.8058C36.6497 14.239 36.4981 14.802 36 15.0186C35.9351 15.0186 35.9351 15.2352 35.8484 15.3651C35.6968 15.9282 35.3503 16.3613 34.7873 16.5129C34.2242 16.7295 33.7911 17.076 33.5745 17.6607C33.2929 18.4404 32.8598 19.0034 32.1451 19.3716L31.9286 19.5882C31.3655 20.1513 30.7808 20.736 30.2827 21.2991C29.7196 21.9488 29.2865 22.5768 28.8533 23.2915C28.7017 23.4431 28.6368 23.638 28.7884 23.7896C28.6368 24.0711 28.5068 24.2227 28.2253 24.2877C27.9437 24.3527 27.7272 24.5692 27.5756 24.8508L25.5182 27.4063C25.1717 27.9044 24.8685 28.4674 24.8685 29.1171C24.6519 29.4636 24.4353 29.8318 24.0888 30.0484C23.7423 30.0484 23.5258 30.2 23.3742 30.4815C22.4429 31.9109 21.5333 33.2536 20.3855 34.5313C19.9524 35.0294 19.6059 35.6791 19.5409 36.3721C19.5842 36.5598 19.5337 36.632 19.3893 36.5887C18.7396 36.9352 18.6097 37.5849 18.3931 38.148C18.3282 38.2996 18.1766 38.4295 18.1766 38.5811C18.025 39.2308 17.83 39.7939 17.1154 40.0754C16.8988 40.227 16.8988 40.5086 16.9638 40.7251C16.2491 41.2233 15.816 42.0029 15.3179 42.7825C15.2529 42.8475 15.2529 43.0641 15.3828 43.0641C15.8809 43.2806 16.3141 43.4972 16.8772 43.2806C18.3065 42.8475 19.8658 42.7825 21.2951 42.2195C21.3601 42.2195 21.4467 42.2195 21.4467 42.1545C22.8761 42.0029 24.2188 41.6564 25.5832 41.3099C25.9297 41.2449 26.2978 41.1583 26.6443 41.1583C27.1424 41.2232 27.5756 41.1583 27.9871 41.0067C28.7667 40.8551 29.5463 40.6602 30.326 40.4436C30.7591 40.3786 31.1056 40.1621 31.3222 39.7289C31.4738 39.4474 31.6687 39.1659 31.8203 38.7977C31.9719 38.3646 32.1668 37.9531 32.3184 37.5199C32.5999 36.6753 32.9681 35.8091 33.2496 34.9645C33.4662 34.0332 33.7477 33.1886 34.0943 32.3223C34.3758 31.5427 34.744 30.763 35.0255 29.9618C35.5886 28.1209 36.2383 26.3234 37.0179 24.6125C37.3644 23.8329 37.6676 23.0533 37.7976 22.187C37.9491 21.6239 38.0791 21.0392 38.2957 20.4761C39.2919 18.1155 39.9416 15.56 40.7212 13.1345L40.9378 12.1383C41.0027 11.7918 41.1543 11.3586 40.7862 10.9905L40.8511 11.0554ZM15.9026 44.4934C15.9026 44.4934 15.9676 44.5584 16.0542 44.5584L17.3969 44.3418C17.7434 44.2768 18.0466 44.1253 18.3931 43.7787C17.3969 43.8437 16.6822 44.1253 15.9676 44.3418C15.9026 44.3418 15.816 44.4068 15.9026 44.4934ZM19.7575 43.6488C20.5371 43.4972 21.2518 43.3023 22.0315 43.1507C22.0964 43.1507 22.0964 43.0857 22.183 42.9991C22.1181 42.9991 22.0315 42.9341 22.0315 42.9341C21.2518 43.0857 20.3855 43.1507 19.6925 43.4972C19.6925 43.5622 19.7575 43.6488 19.7575 43.6488ZM20.9703 34.6829C21.0352 34.5313 21.0352 34.4014 21.1219 34.3364C21.1219 34.4014 21.0569 34.553 20.9703 34.6829ZM29.7196 41.5914C29.7196 41.4398 29.6546 41.5264 29.503 41.5264L27.6622 41.743C27.0991 41.8946 26.5144 42.0245 26.1029 42.3927C25.9513 42.3277 25.8214 42.3277 25.6698 42.2411C24.8901 42.2411 24.1105 42.5227 23.3092 42.7392C23.2442 42.7392 23.2442 42.8042 23.2442 42.8042C23.3092 42.8042 23.3092 42.8692 23.3958 42.8692H23.7423C24.522 42.7176 25.3016 42.5227 26.1029 42.3711C26.601 42.3711 27.1641 42.3061 27.7488 42.1545C28.3119 41.9379 28.9616 41.7214 29.5897 41.7214C29.6546 41.7214 29.7412 41.6564 29.7412 41.5698L29.7196 41.5914ZM24.6736 62.5984C24.1105 63.4431 23.8939 64.3743 23.6774 65.3705C24.2404 64.5259 24.522 63.5946 24.6736 62.5984ZM23.9589 30.2649L24.1105 30.1133C24.1105 30.1133 24.0455 30.2649 23.9589 30.2649ZM28.5934 51.6185C28.1603 52.2682 27.8788 52.9612 27.8138 53.7625C27.5972 53.9791 27.4673 54.2606 27.3807 54.6071C26.9475 55.7549 26.601 56.8811 26.1029 57.9639C25.6698 59.1117 25.3233 60.2379 25.1067 61.3857C25.3233 61.1691 25.4532 60.8226 25.6048 60.4544C26.3845 58.527 27.0342 56.5995 27.6622 54.6071C27.7272 54.3256 27.7272 54.044 27.8138 53.7625C28.3119 53.1128 28.5285 52.3332 28.5934 51.6185V51.6185ZM26.4494 63.0099L26.0163 63.9412C25.8647 64.1577 25.7348 64.4393 25.7997 64.6558C26.1462 64.5909 26.1462 64.3093 26.2329 64.0061C26.3845 63.7246 26.3845 63.3564 26.4494 63.0099V63.0099ZM28.9399 43.2157C28.2902 43.3673 27.7272 43.2806 27.2291 43.7138C27.7272 43.5622 28.2253 43.4972 28.7884 43.3673L28.9399 43.2157V43.2157ZM29.2215 49.691C29.7846 48.9764 29.9362 48.4783 29.9362 47.6986C29.5897 48.3483 29.3731 48.9764 29.2215 49.691ZM30.7158 45.9877C30.9324 45.338 31.3655 44.775 31.2789 44.1469C31.2789 43.9303 30.9324 44.4934 30.4343 45.8578C30.3693 46.1393 30.2177 46.3559 30.3693 46.6374C30.6508 46.4858 30.6508 46.2043 30.7158 45.9877V45.9877ZM30.9324 50.8388C30.6508 51.1204 30.5859 51.4885 30.4992 51.835C30.4992 51.835 30.4992 51.9 30.5642 51.9866C30.9973 51.272 31.1273 50.6439 30.9107 50.8388H30.9324ZM33.293 44.58V44.4284C33.293 44.4284 33.228 44.4934 33.228 44.58C33.163 44.58 33.163 44.645 33.163 44.7316C33.228 44.6667 33.3146 44.6667 33.3146 44.58H33.293ZM34.2892 35.6791C34.0726 36.2422 33.7261 36.7403 33.7261 37.39C34.0076 36.8269 34.2892 36.3288 34.2892 35.6791ZM38.0791 10.1025C38.4256 9.95093 38.6422 9.75602 38.8587 9.53945C38.5122 9.60442 38.2957 9.82099 38.0791 10.1025ZM38.8587 30.3299C38.8587 30.3299 39.0103 30.1783 39.0753 30.1783L38.8587 30.3299ZM39.2052 29.8968C39.2052 29.8968 39.0536 30.0484 39.0536 30.1133C39.0536 30.0484 38.9887 29.9617 38.9887 29.8968C38.9887 29.7452 39.0536 29.6152 39.1403 29.5503C39.2919 29.4853 39.2919 29.6152 39.2052 29.8968ZM39.2702 9.10632C39.7683 9.04135 40.0498 8.82478 40.418 8.54324C39.9199 8.54324 39.5734 8.75981 39.2702 9.10632ZM39.8333 11.1637L39.7683 11.2287L39.9199 11.0771L39.8549 11.1421L39.8333 11.1637ZM40.0498 26.9731C40.0498 26.9731 39.9849 26.9731 39.9849 27.0381V26.9731H40.0498ZM40.2014 8.11011C40.2014 8.11011 40.353 8.17508 40.418 8.17508C40.5696 8.17508 40.6996 8.17508 40.8511 8.02348V7.87188C40.6996 7.80691 40.353 7.87188 40.2014 8.02348V8.08845V8.11011ZM41.1327 10.1025L40.9811 10.0376C40.7645 10.0376 40.6346 10.1025 40.548 10.2541C40.483 10.2541 40.483 10.4057 40.548 10.4057C40.6129 10.4707 40.6996 10.4707 40.8295 10.4707C40.9811 10.4057 41.111 10.3191 41.111 10.1242L41.1327 10.1025ZM42.3455 19.285C42.3455 19.1334 42.4104 19.0684 42.4104 18.9385C42.4104 19.0901 42.4754 19.155 42.4754 19.285V19.5015C42.2588 19.5015 42.3238 19.35 42.3238 19.285H42.3455Z" fill="#E6E6E5"/>
<path d="M81.5004 5.5343C81.2189 6.03241 81.0023 6.53051 80.5692 6.96365L77.7971 9.67074C76.5844 10.8185 75.4366 11.8797 74.2454 13.0275C73.0976 14.0887 71.9715 15.1715 70.8237 16.2977C70.6721 16.3627 70.5421 16.5143 70.3905 16.7308C68.9612 18.4417 67.3369 19.936 65.756 21.4953C65.4095 21.9284 65.0413 22.275 64.8248 22.7731C63.9801 23.4228 63.2655 24.2024 62.4858 24.982C62.3342 25.1336 62.2043 25.4152 62.2043 25.6967C62.2043 25.8483 62.2043 25.9783 62.1393 26.1299C61.6412 26.628 61.3597 27.2777 60.7966 27.6891C60.017 28.2522 59.4539 28.9669 58.8692 29.6816C58.5227 30.1147 58.1545 30.4612 57.7214 30.8294H57.7863C57.0717 31.3924 56.292 31.9772 55.8589 32.7568C55.7073 32.9734 55.5124 33.1899 55.3608 33.3199C53.5849 35.0308 52.004 36.9582 50.5097 38.799C50.0765 39.3621 49.5784 39.9469 49.0154 40.3583C48.4523 40.7048 48.0841 41.2896 47.8026 41.8526C47.7376 42.0042 47.8026 42.1342 47.8675 42.1991C47.7159 42.4807 47.586 42.7622 47.3694 43.0438C47.0879 43.5419 46.7197 44.04 46.1567 44.3865C46.1567 44.3865 46.0917 44.3865 46.0917 44.4514C45.7452 44.668 45.377 44.9496 45.5286 45.3827C45.5936 45.7292 45.9618 45.9458 46.3732 46.0974C46.5248 46.1623 46.7197 46.1623 46.9363 46.1623C48.2141 46.2273 49.4918 46.3139 50.7912 46.2273C52.1339 46.1623 53.5633 45.9458 54.9276 45.7292C55.2741 45.7292 55.6423 45.5776 55.9888 45.5126C57.5481 45.0795 59.129 44.668 60.6234 44.2999C62.1177 43.8667 63.612 43.5852 65.1063 43.2387C65.3878 43.1737 65.6044 43.0871 65.8859 43.0871C66.0375 43.0221 66.1675 43.0871 66.2324 43.152C66.2974 43.152 66.449 43.217 66.449 43.3686C66.449 43.4336 66.384 43.5202 66.2974 43.5852C66.2324 43.6502 66.0809 43.7368 65.9509 43.7368L65.2362 43.9533C61.9661 44.8846 58.6743 45.7292 55.4907 46.5955C54.7111 46.812 53.9314 46.942 53.1518 47.0936C52.8702 47.1585 52.5021 47.2452 52.2205 47.4401C52.5021 47.3751 52.8702 47.3751 53.1518 47.3751C53.4333 47.3101 53.7149 47.3101 53.9964 47.2235C54.7111 47.0719 55.4257 47.0069 56.1404 46.877L55.4257 47.3101C55.8589 47.3101 56.2054 47.2452 56.6385 47.1585C59.7787 46.3139 62.8973 45.5126 66.0375 44.603C66.2541 44.5381 66.4707 44.4514 66.6872 44.4514C66.9038 44.3865 67.0337 44.4514 67.1853 44.603C67.3369 44.7546 67.4019 45.0362 67.1853 45.1661C66.9688 45.3827 66.6872 45.4477 66.4057 45.5993C65.1929 45.9458 63.9801 46.3789 62.7674 46.7471C59.7787 47.5917 56.7901 48.5229 53.7149 49.086C53.5633 49.086 53.4983 49.151 53.3684 49.151L53.3034 49.2159L53.3684 49.2809C53.4333 49.3459 53.5849 49.3459 53.6499 49.3459C55.0792 49.1943 56.422 48.9994 57.7863 48.5662C60.8399 47.7866 63.9152 46.9203 66.8388 45.8591C66.9904 45.7942 67.1204 45.7942 67.1853 45.7942C67.2503 45.7942 67.3369 45.8591 67.3369 45.8591V45.9241C67.0554 46.2056 66.7739 46.2706 66.4057 46.3572C64.4133 47.0719 62.4209 47.7 60.4284 48.2847C59.4322 48.5662 58.436 48.7828 57.5698 49.2159C56.9201 49.4975 56.227 49.4975 55.5124 49.6491C54.0181 49.8656 52.4588 50.1472 50.8778 50.1472C50.8129 50.1472 50.7262 50.1472 50.6613 50.2121C50.0982 50.2121 49.9466 50.3637 50.0982 50.9268C50.7479 52.9192 50.4447 53.2874 49.6001 54.6951C49.3835 55.1932 49.102 55.6913 48.9504 56.2544C48.8854 56.6875 48.6039 57.034 48.3007 57.3155C47.0879 58.6583 45.6586 59.7411 44.0343 60.3691C41.7603 61.3004 39.6163 60.7157 38.122 58.7232C37.2774 57.5754 36.7793 56.2327 36.7793 54.7384C36.7793 54.1753 36.8443 53.6772 37.0608 53.0925C37.6239 51.4466 38.4036 49.8873 39.3348 48.4579C39.9845 47.3101 40.6125 46.184 41.3272 45.0362C41.9769 44.04 42.6699 43.0438 43.3846 42.0476C44.1642 41.0513 44.8789 39.9902 45.5936 38.9073C46.2433 37.9111 46.9363 36.9799 47.7376 35.9837C49.0154 34.5543 50.2281 33.06 51.5059 31.6307C52.004 31.0676 52.5671 30.6345 53.0002 29.9848C53.0652 29.8332 53.2817 29.6382 53.4333 29.4866C54.3646 28.8369 54.9926 27.9923 55.7073 27.2127C56.2704 26.563 56.8551 25.87 57.4182 25.3719C58.4793 24.3757 59.4755 23.3145 60.4718 22.3183C61.6196 21.1705 62.7457 20.1093 63.8286 18.8965C64.3267 18.3334 64.9764 17.9003 65.5394 17.3372C67.0337 15.8429 68.593 14.2836 70.0873 12.7027C71.3651 11.4899 72.6428 10.2771 74.0072 9.15098C74.2888 8.93441 74.5703 8.65287 74.8518 8.37134C75.0684 8.15477 75.1983 7.9382 75.4149 7.80826C76.4761 6.96365 77.4073 6.03241 78.4035 5.10117C78.9666 4.60306 79.6163 4.16993 80.331 3.88839C80.3959 3.88839 80.5475 3.82342 80.6775 3.82342C80.8941 3.75845 81.1106 3.88839 81.024 4.10496C80.8724 4.45147 80.959 4.66804 81.3055 4.81963C81.5221 4.97123 81.5871 5.25277 81.4571 5.46933L81.5004 5.5343ZM44.4674 49.2592C44.1859 49.1076 43.9693 49.0427 43.6878 48.9777C43.3413 48.8261 43.0381 48.9777 42.9082 49.1943C42.5616 49.7573 42.1935 50.2555 42.1285 50.9052C42.0635 51.4682 41.9119 51.9014 41.6304 52.3995C41.3489 53.1141 40.9807 53.7422 40.6992 54.4569C40.4826 54.8034 40.3527 55.2365 40.2011 55.6047L40.0495 55.7563C39.8979 55.6913 39.9845 55.6047 39.8979 55.4747V55.4098C39.8979 55.4098 39.7463 55.4098 39.7463 55.4747L39.5297 55.9728C39.3131 56.8391 40.0278 57.3155 40.8724 57.3155L42.4317 56.969C43.1464 56.8174 43.7744 56.4709 44.2725 55.9728C45.1171 54.9766 45.9834 54.0454 46.828 52.9842C47.1096 52.5511 47.3261 52.053 47.5427 51.5549C47.7593 50.9052 47.6077 50.5586 47.1096 50.2121C46.763 50.0605 46.3949 49.9306 46.0484 49.8656C45.4853 49.8007 44.9006 49.5841 44.4025 49.3026L44.4674 49.2592ZM42.1069 58.3767L43.168 58.1602C43.168 58.1602 43.1031 58.4417 43.3196 58.3767C43.8827 58.3118 44.3808 58.0302 44.8139 57.5971C44.9655 57.4455 44.9655 57.3155 44.9655 57.164C45.1171 56.8824 45.312 56.6658 45.312 56.3843C45.9618 56.3843 46.3732 56.1028 46.7414 55.6696C46.7414 55.6047 46.8064 55.6047 46.8064 55.518C46.8713 55.4531 46.958 55.3664 46.8064 55.3015C46.8064 55.3015 46.6548 55.3015 46.6548 55.3664C46.2216 55.713 45.8751 56.0811 45.312 56.3627C44.3158 57.0124 43.3196 57.5754 42.1718 58.0735C42.1069 58.0735 41.9553 58.1385 42.1069 58.3551V58.3767ZM47.7376 57.3805C47.2395 57.4455 46.8064 57.727 46.4599 58.0302C45.5286 58.7449 44.5324 59.308 43.4712 59.7411C43.2547 59.8061 43.1247 59.8927 42.9731 60.0226C42.9082 60.0226 42.8215 60.0876 42.9082 60.1742C42.9082 60.1742 42.9731 60.2392 43.0598 60.2392C43.6228 60.1742 44.2725 59.9577 44.7706 59.6761C45.7019 59.243 46.4815 58.615 47.3261 58.0302C47.5427 57.8137 47.6726 57.5971 47.7593 57.3805H47.7376ZM47.0229 43.0654L46.958 43.0004C46.958 43.0004 46.8064 43.0654 46.7414 43.217C46.7414 43.282 46.8064 43.3686 46.893 43.282C46.958 43.282 47.0446 43.217 47.0446 43.0654H47.0229ZM55.1442 47.4184H55.2092L55.3608 47.3535H55.2092C55.2092 47.3535 55.0576 47.4184 55.1442 47.4184ZM56.985 46.7687C56.7035 46.8337 56.422 46.9203 56.1404 46.9203C56.422 46.7687 56.7035 46.7687 56.985 46.7687ZM58.9774 46.2056C58.9774 46.2056 59.0424 46.1407 59.129 46.1407C59.129 46.1407 59.0785 46.1623 58.9774 46.2056ZM59.129 46.1407C59.4106 46.0757 59.6271 45.9891 59.9087 45.9241L60.6883 45.7725C60.4068 45.8375 60.1902 45.9241 59.9087 45.9891L59.129 46.1407ZM64.3916 23.5744C64.5432 23.2928 64.6732 23.0113 64.8248 22.7947H65.1713C65.0197 23.0763 64.8248 23.4444 64.3916 23.5744ZM69.5892 18.3118C69.3077 18.7449 69.0262 18.8749 68.7446 19.0264C68.9612 18.8099 69.1778 18.5283 69.5892 18.3118Z" fill="#E6E6E5"/>
<path d="M94.387 45.4898C94.6036 46.0528 94.2354 46.2044 93.8889 46.2694C92.9576 46.486 92.178 46.9841 91.3334 47.4172C90.1206 47.9803 88.9728 48.3485 87.6301 48.3485C86.3523 48.3485 84.988 48.5001 83.7102 48.565C82.2159 48.7816 80.7866 48.7166 79.2922 48.4134C78.361 48.2618 77.3648 48.1319 76.4336 47.8504C76.217 47.7854 76.0004 47.7854 75.8705 47.6988C75.3074 47.6338 75.0908 47.6988 74.8093 48.1969C74.6577 48.63 74.5278 49.0415 74.3112 49.4746C73.8131 50.1243 73.1634 50.7524 72.6003 51.4021C72.5353 51.467 72.4487 51.6186 72.5353 51.6186C72.8819 52.1167 72.3837 52.2683 72.1022 52.3983C71.106 53.1129 69.9582 53.5461 68.7454 53.8276C66.1033 54.3257 64.2625 52.4849 63.8943 50.6224C63.8293 49.9077 63.6777 49.2797 63.6777 48.565C63.6777 47.5039 64.0242 46.5726 64.6739 45.7063C65.4536 44.5585 66.5148 43.5623 67.5976 42.6527C67.9441 42.3062 68.4422 42.1546 69.0269 42.0897C69.3085 42.0247 69.59 42.1546 69.59 42.3062C69.59 42.5228 69.3085 42.5228 69.1569 42.6527C69.0919 42.6527 69.0053 42.6527 69.0053 42.7177C68.9403 42.7827 68.9403 42.8693 68.9403 42.9343L69.1569 43.1508H69.3085C69.8716 42.9343 70.4563 42.8693 70.8028 42.3712C71.1493 41.8731 71.3659 41.8731 71.799 42.1546C74.2246 43.8006 76.9317 44.2987 79.7687 44.4936C80.8299 44.5585 81.9127 44.6452 82.9739 44.5585L87.0237 44.342C87.6734 44.277 88.3014 44.1904 88.9511 44.1904C89.4492 44.1904 89.8824 44.1904 90.2939 44.0388C90.727 43.9738 91.1385 43.8222 91.5716 43.8222C91.8531 43.8872 92.1347 43.7572 92.4162 43.6056L93.1959 43.2591C93.694 43.0426 93.9105 43.1942 94.0405 43.6923C94.1054 43.9088 94.1054 44.1904 94.322 44.342C94.5386 44.6885 94.6035 44.9917 94.322 45.3382V45.4898H94.387ZM72.0156 46.3344L70.9544 44.9917C70.6079 44.6452 70.2397 44.5585 69.8066 44.8401C69.59 44.9917 69.3735 45.1216 69.2435 45.2732L68.3989 45.9229C67.6842 46.356 67.1212 46.9191 66.9046 47.7637C67.0562 47.7637 67.1212 47.9153 66.9696 48.0453C66.753 48.4784 66.4715 48.8899 66.3199 49.388C66.2549 49.8211 66.3199 50.0377 66.753 50.0377C67.5976 50.1027 68.3989 50.0377 69.1785 49.6046C70.2397 49.0415 71.106 48.3268 71.734 47.3956C71.8856 47.244 71.9506 47.0491 72.0805 46.8975C72.1455 46.6809 72.1455 46.4643 72.0156 46.3344V46.3344ZM68.3123 51.597C68.8104 51.8135 69.1569 51.597 69.59 51.3804V51.3154L69.5251 51.2505H69.0269C69.3085 51.0989 69.5251 50.904 69.8066 50.6874C69.1569 50.7524 68.5288 50.904 67.9658 51.1205C67.9008 51.1205 67.9008 51.1855 67.9008 51.2721C67.9008 51.4237 67.9658 51.4237 68.0524 51.4237C68.1174 51.4887 68.204 51.4887 68.269 51.4887C68.269 51.5537 68.3339 51.6403 68.3339 51.6403L68.3123 51.597ZM71.0194 52.4632L70.8678 52.3116C70.7162 52.3766 70.5862 52.3766 70.4346 52.3766C69.8716 52.5932 69.2868 52.7231 68.6588 52.9397L68.4422 53.0913C68.4422 53.0913 68.3772 53.1563 68.3772 53.2429C68.3772 53.3295 68.4422 53.3079 68.5288 53.3945H68.6804C69.1785 53.3945 69.6767 53.2429 70.2397 53.048C70.4563 52.983 70.8028 52.8314 70.9544 52.6148C71.0194 52.6148 71.0194 52.4632 71.0194 52.4632V52.4632ZM74.3762 49.9077C74.3762 49.9077 74.2246 50.0593 74.2246 50.1243V50.0593C74.2246 50.0593 74.2895 49.9944 74.3762 49.9077ZM74.3762 49.4746H74.5278C74.4628 49.6262 74.3762 49.7562 74.3762 49.9077V49.4746ZM80.7866 45.9229C81.1331 45.9229 81.5012 45.9879 81.7828 45.9879H84.7714C84.923 45.9879 85.1179 45.9229 85.3345 46.2044H83.342C83.5586 46.356 83.6886 46.356 83.7752 46.356C85.551 46.421 87.2619 46.2044 88.9728 46.1395C89.1894 46.1395 89.4709 46.0745 89.6875 45.9879C89.904 45.9229 90.034 45.9229 90.1856 45.7063C90.4671 45.3598 90.8353 45.2082 91.2468 45.0566C91.5283 44.9917 91.8098 44.905 92.113 44.7751C92.178 44.7751 92.2646 44.7101 92.178 44.5585C92.178 44.4936 92.0264 44.4936 91.9614 44.5585C91.8098 44.5585 91.6799 44.6235 91.6149 44.6235C90.9002 44.97 90.1856 45.1216 89.4059 45.1866C88.1932 45.3382 86.9804 45.4681 85.7676 45.5331C84.2083 45.5331 82.6274 45.6847 81.0681 45.7497C81.0031 45.7497 80.8515 45.7497 80.7866 45.9013V45.9229ZM92.5462 46.2694C92.113 46.0529 91.7665 46.421 91.3984 46.551C90.7487 46.8325 90.1206 47.114 89.4709 47.2007C88.7562 47.3523 88.0416 47.4172 87.3269 47.4822C85.3994 47.5472 83.5586 47.6988 81.6312 47.6988C81.3496 47.6988 81.0681 47.6988 80.7866 47.8504C80.9381 48.0669 81.2197 48.0669 81.4363 48.0669C81.9344 48.1319 82.4325 48.2185 82.9955 48.1319C84.7064 48.1319 86.4173 47.9803 88.1282 47.9153C89.4059 47.8504 90.5537 47.5688 91.6149 46.9191C91.8965 46.7026 92.3296 46.6376 92.5462 46.2694V46.2694ZM87.9116 45.9229H86.7638V45.8579H87.9116V45.9229ZM89.2543 45.7063H89.1894C89.1894 45.7063 89.2543 45.6414 89.341 45.6414L89.4059 45.7063H89.2543Z" fill="#E6E6E5"/>
<path d="M126.005 46.3338C125.853 46.5504 125.788 46.6154 125.723 46.6803C125.225 46.9619 124.727 47.33 124.164 47.6765C122.02 48.8893 119.897 50.0155 117.818 51.2282C115.978 52.2894 114.18 53.3723 112.274 54.3685C111.278 54.9316 110.217 55.2131 109.069 55.3647C107.726 55.5813 106.514 55.1481 105.582 54.022C104.868 53.1774 104.37 50.9684 104.586 49.8206C104.651 49.604 104.738 49.3874 104.738 49.1709C104.803 49.0193 104.803 48.8244 104.803 48.6728C104.803 48.3912 104.521 48.2396 104.305 48.3263C104.153 48.3912 104.088 48.4778 103.958 48.4778C102.464 49.1925 100.97 49.8206 99.4752 50.4703C99.0421 50.6868 98.6306 50.9034 98.1975 51.0333C97.4178 51.3798 96.4866 51.5314 95.642 51.683C94.3642 51.8996 93.4979 51.3365 92.8699 50.3403C92.4368 49.6906 92.2202 49.0626 92.0253 48.3479C91.9603 47.8498 91.9603 47.3517 92.0253 46.8536C92.3718 45.6408 92.8699 44.5147 93.6712 43.4968C93.9527 43.1503 94.2343 42.8471 94.6674 42.6522C95.0139 42.5006 95.3171 42.5006 95.5986 42.8038L95.8152 43.0204C96.5299 43.4535 96.5299 44.0815 96.1617 44.7312C95.7286 45.4459 95.7286 46.2255 95.5986 47.0052C95.5986 47.2867 95.7502 47.5033 96.0967 47.5683C96.5299 47.5683 96.963 47.5683 97.3095 47.3517C97.656 47.2001 97.9592 47.0702 98.3057 46.8536C99.6485 46.1389 101.164 45.5758 102.572 45.0128C103.005 44.7962 103.417 44.6663 103.85 44.3631C105.063 43.5185 106.34 42.7172 107.618 41.9375C108.268 41.591 108.766 41.2228 109.112 40.5082C109.177 40.2916 109.394 40.075 109.611 39.9451C110.174 39.6636 110.888 39.7935 111.105 40.4432C111.256 40.8763 111.538 41.1579 111.885 41.3744C112.166 41.591 112.318 41.8725 112.231 42.219C112.079 42.5656 112.231 42.7172 112.578 42.8688C112.794 43.0204 112.794 43.4318 112.578 43.6484C112.231 44.1465 111.798 44.5796 111.365 44.9261C111.018 45.1427 110.715 45.4242 110.65 45.8574C110.65 46.0739 110.498 46.2905 110.369 46.4205C109.805 47.3517 109.372 48.3479 108.874 49.3441C108.593 49.9072 108.376 50.5569 107.813 50.9034C107.661 50.9684 107.748 51.1849 107.878 51.2499C108.225 51.4665 108.593 51.5314 109.026 51.4015C109.524 51.12 110.087 50.9034 110.672 50.6868C111.733 50.1887 112.881 49.6906 113.812 48.976C113.964 48.8244 114.093 48.7594 114.245 48.6944C115.739 47.9148 117.104 46.9835 118.598 46.2039C120.092 45.4242 121.587 44.493 123.233 43.9949C123.514 43.9299 123.796 43.7783 124.164 43.8433C124.38 43.8433 124.51 43.9083 124.51 44.1248C124.575 44.2764 124.445 44.4064 124.294 44.4714C124.229 44.5363 124.077 44.6229 123.947 44.6879C121.392 45.8357 118.966 47.2434 116.541 48.6728C115.609 49.2358 114.7 49.8206 113.769 50.3187C112.123 51.2499 110.498 52.0295 108.723 52.5277L108.376 52.6792L108.311 52.8309C108.311 52.8958 108.376 52.9824 108.376 52.9824C109.524 53.0474 110.585 52.9824 111.646 52.4843C113.076 51.7697 114.418 50.9251 115.783 50.0588C115.934 49.9938 116.064 49.8422 116.129 49.7123L115.35 49.9288C115.631 49.6473 115.999 49.4307 116.346 49.3658L116.129 49.7989C117.06 49.5174 117.84 49.0193 118.555 48.3696C118.988 48.3696 119.334 48.088 119.768 47.8715L123.817 45.6625C124.164 45.5109 124.467 45.3809 124.814 45.2293C124.965 45.1644 125.16 45.1644 125.312 45.1644C125.528 45.1644 125.658 45.316 125.745 45.5109C125.745 45.6625 125.68 45.7924 125.528 45.944C125.312 46.0956 125.095 46.2905 124.814 46.4421C123.752 47.0052 122.67 47.6549 121.673 48.218C119.962 49.1492 118.252 50.0588 116.627 51.0767C115.48 51.7913 114.353 52.3544 113.206 53.0041C112.274 53.5022 111.365 53.9353 110.347 54.2169C110.065 54.2818 109.784 54.4334 109.416 54.5634C109.416 54.5634 109.351 54.6284 109.351 54.715C109.351 54.8016 109.502 54.8666 109.567 54.8666C110.282 54.8016 111.062 54.585 111.776 54.3035C112.556 54.022 113.336 53.5888 114.05 53.1557C117.537 51.0117 121.24 49.1709 124.727 46.9619C125.073 46.7453 125.507 46.4638 126.07 46.3988L126.005 46.3338ZM95.1005 43.4751C95.1005 43.4751 95.0356 43.5401 95.0356 43.6267C95.0356 43.6267 95.0572 43.6051 95.1005 43.5618V43.4968V43.4751ZM107.142 43.4751C107.142 43.4751 106.99 43.4102 106.99 43.4751L105.496 44.2548C104.218 45.0994 102.854 45.8141 101.446 46.3988C99.6051 47.2434 97.7427 48.0447 95.8152 48.7594L95.4687 48.911L95.4037 49.0626C95.4687 49.1275 95.5553 49.2142 95.5553 49.1275L96.6165 48.911V49.1275L97.1796 48.911C97.5261 48.911 97.8943 48.7594 98.1758 48.5645C98.5223 48.5645 98.8905 48.4129 99.172 48.218C99.4535 48.153 99.7351 48.0664 100.017 47.9364C101.229 47.4383 102.442 46.8752 103.655 46.2905C104.153 46.0739 104.716 45.8574 105.084 45.5109C105.647 45.2293 106.297 45.0128 106.644 44.4497H106.21C106.362 44.3847 106.492 44.2981 106.644 44.2331L107.142 43.735C107.142 43.735 107.207 43.5834 107.142 43.5185V43.4751ZM105.214 47.1135L105.063 47.0485C104.781 47.1135 104.565 47.2001 104.283 47.33C101.944 48.4778 99.4319 49.539 96.9414 50.4703C96.6598 50.5352 96.4433 50.6219 96.1617 50.7518C96.0968 50.7518 96.0101 50.8168 96.0967 50.9034C96.0967 50.9684 96.1617 50.9684 96.2483 50.9684C96.6815 50.9684 97.1146 50.8168 97.4611 50.6868L101.316 49.1925C102.377 48.7594 103.46 48.2613 104.456 47.7632C104.738 47.6982 105.019 47.5466 105.171 47.33C105.236 47.2651 105.236 47.1784 105.236 47.1135H105.214ZM107.986 49.9722C107.986 49.9722 108.051 50.0371 108.051 49.9722V49.9072H107.986V49.9722ZM112.123 51.683C112.123 51.683 111.906 51.8346 111.776 51.8996L112.123 51.683ZM112.902 51.3365L112.556 51.4881C112.707 51.4232 112.772 51.3365 112.902 51.3365ZM113.899 50.6868L114.332 50.4703V50.5352C114.18 50.6002 114.05 50.6002 113.899 50.6868ZM114.332 50.4703C114.483 50.3187 114.678 50.1887 114.895 50.1238C114.678 50.2754 114.548 50.4053 114.332 50.4703ZM114.895 50.1238L115.241 49.9072C115.241 49.9072 115.025 50.0588 114.895 50.1238ZM116.671 49.1275C116.822 48.9759 117.017 48.846 117.234 48.781C117.082 48.9326 116.887 49.0626 116.671 49.1275ZM117.234 48.781C117.385 48.7161 117.515 48.6294 117.58 48.5645H117.645L117.212 48.781H117.234ZM118.382 48.3479H118.446L117.602 48.5645C117.883 48.2829 118.252 48.0664 118.598 48.0014C118.533 48.0664 118.446 48.218 118.382 48.3479ZM119.378 47.5683C119.529 47.4167 119.724 47.3517 119.876 47.2867C119.724 47.4383 119.529 47.5033 119.378 47.5683ZM119.876 47.2867C119.876 47.2867 119.941 47.2218 119.941 47.1351C120.092 47.1351 120.222 47.0702 120.374 46.9835L119.941 47.2001C119.941 47.2001 119.876 47.2001 119.876 47.2651V47.2867ZM120.807 46.7886L121.154 46.5721C121.154 46.5721 120.937 46.7237 120.807 46.7886ZM121.154 46.5721L121.587 46.3555V46.4205C121.435 46.4854 121.305 46.4854 121.154 46.5721ZM121.652 46.3555L121.717 46.2905H121.782C121.782 46.2905 121.717 46.2905 121.63 46.3555H121.652ZM122.929 45.5758C123.081 45.5758 123.211 45.5109 123.363 45.4242L122.929 45.6408C122.778 45.6408 122.648 45.7058 122.496 45.7924L122.929 45.5758ZM123.709 45.2293L123.363 45.4459C123.363 45.4459 123.579 45.2943 123.709 45.2293Z" fill="#E6E6E5"/>
<path d="M175.925 22.2736C175.86 22.4902 175.643 22.4902 175.426 22.4252C175.275 22.2736 175.08 22.1437 174.928 21.9271C174.365 21.364 173.651 21.0825 172.871 20.8659C171.593 20.5194 170.229 20.3029 168.951 20.1513C166.742 19.8697 164.533 19.5882 162.259 19.5016C162.043 19.4366 161.761 19.4366 161.544 19.4366C158.404 19.3716 155.286 19.0901 152.21 19.0901C151.712 19.0901 151.279 19.1551 150.868 19.3716C150.37 19.5882 149.806 19.6532 149.222 19.8048C149.005 19.8697 148.724 20.0213 148.875 20.3678C148.94 20.4328 148.875 20.5844 148.81 20.6494L147.749 21.7105C147.533 21.9271 147.186 21.6456 147.034 21.9271C146.883 22.1437 147.099 22.3602 146.969 22.5768C146.818 22.8584 146.623 23.1399 146.32 23.3565C146.103 23.5081 145.887 23.703 146.038 24.0711H145.973L144.912 24.8508C144.566 25.0673 144.349 25.2839 144.197 25.6304H144.262C143.266 26.2801 142.487 27.0598 141.923 27.9693L141.707 28.1859C141.425 28.4674 141.057 28.684 140.776 28.9656C139.563 30.1783 138.35 31.3911 137.224 32.7338C136.942 33.0154 136.726 33.2969 136.574 33.6651C136.358 33.8816 136.141 34.0116 136.011 34.3148C135.946 34.3148 135.86 34.3797 135.795 34.4664C135.578 34.6829 135.361 34.8129 135.232 35.0294L131.961 38.4512C131.68 38.7327 131.398 39.1659 131.182 39.5124C130.467 40.357 129.752 41.2233 128.908 41.9379V41.5914L128.626 41.873C128.475 42.0246 128.561 42.1545 128.691 42.1545C128.626 42.3711 128.54 42.501 128.345 42.5876C127.348 43.0208 126.915 43.8654 126.417 44.7317C126.201 45.2298 125.984 45.6629 125.573 46.0094C125.356 46.161 125.421 46.3559 125.573 46.5075C125.508 46.789 125.226 46.9406 124.923 47.0706C124.706 47.1355 124.641 47.2871 124.641 47.5037C124.706 47.9368 124.49 48.2834 124.208 48.6515C123.927 48.4999 123.862 48.5866 123.775 48.8031V49.0847C123.775 49.3662 123.71 49.7344 123.71 50.0159C123.645 50.2325 123.862 50.449 124.057 50.3624C124.208 50.3624 124.338 50.3624 124.49 50.2974C125.334 50.0159 126.266 49.8643 127.045 49.3662L127.327 49.3012C129.384 48.8031 131.312 47.9585 133.456 47.6553C133.954 47.5903 134.452 47.4387 134.885 47.3088C136.379 46.6591 137.874 46.3126 139.368 45.8145C140.083 45.5979 140.862 45.533 141.577 45.3814C141.642 45.3164 141.729 45.3164 141.793 45.3814C141.858 45.3814 142.01 45.4463 142.01 45.533C142.01 45.6196 142.01 45.7495 141.945 45.8145C141.729 45.8795 141.512 46.0311 141.295 46.096C137.874 47.3088 134.387 48.435 130.835 49.4528C128.28 50.1025 125.703 51.0121 123.212 52.0083L122.649 52.2249C122.649 52.2249 122.497 52.3765 122.584 52.5064C122.649 52.5714 122.736 52.5714 122.866 52.5714L122.432 53.0045C123.364 52.8529 126.287 51.7917 127.197 51.2287H127.132C127.348 51.2287 127.565 51.1637 127.782 51.0121C127.998 51.0121 128.215 50.9471 128.345 50.8605C128.128 50.8605 127.912 50.9255 127.782 51.0121H127.132C127.695 50.7306 128.28 50.514 128.908 50.449V50.6656L129.059 50.6006C129.124 50.449 128.994 50.449 128.908 50.449C130.25 49.886 131.615 49.5178 133.044 49.2363V49.4528L133.196 49.3879C133.196 49.3229 133.131 49.3229 133.044 49.3229C133.607 48.9764 134.257 48.8248 134.82 48.6732L134.474 49.1063C134.907 49.0413 135.253 48.8897 135.621 48.6732C135.838 48.6732 135.968 48.6082 136.184 48.5216C136.401 48.4566 136.618 48.37 136.834 48.305C137.051 48.305 137.267 48.24 137.397 48.0884L137.96 47.8719C138.177 47.8719 138.393 47.8069 138.61 47.6553V47.7203C139.043 47.6553 139.39 47.5037 139.823 47.3738L142.032 46.6591C142.248 46.5941 142.53 46.5941 142.746 46.5075C142.898 46.5075 142.963 46.6591 143.028 46.7241C143.093 46.9406 143.093 47.0706 142.963 47.2222C142.746 47.4387 142.4 47.5687 142.097 47.6553C140.537 48.2184 138.956 48.8681 137.397 49.3662C134.842 50.2974 132.265 51.142 129.644 51.8567C128.15 52.2899 126.655 52.8529 125.161 53.416C124.381 53.6975 123.515 54.0657 122.671 54.3472L122.021 54.5638C122.021 54.5638 121.869 54.7804 121.869 54.8453C121.869 54.9103 122.021 54.9969 122.086 54.9969C122.302 54.932 122.432 54.932 122.584 54.932C123.147 54.7154 123.645 54.5855 124.143 54.3689C127.067 53.2211 129.991 52.2249 132.979 51.3803C136.119 50.5357 139.173 49.3229 142.162 48.1751C142.443 48.0235 142.725 47.8935 143.093 47.8935C143.093 48.1101 142.876 48.1751 142.746 48.24C141.88 48.5866 141.036 48.9547 140.191 49.2363L137.982 50.0809C137.202 50.4274 136.336 50.7306 135.491 51.0121C133.651 51.6618 131.788 52.2899 129.861 52.723C128.518 53.0695 127.219 53.5676 125.876 54.0657C124.815 54.5638 123.667 54.9969 122.606 55.2785C122.043 55.495 121.458 55.625 120.895 55.2785C120.18 54.932 119.552 54.4988 119.249 53.7192C119.032 53.2211 118.902 52.723 118.751 52.2249C118.534 51.5752 118.599 50.9471 118.902 50.3841C119.249 49.6044 119.682 48.7381 120.115 48.0451C121.046 46.6158 121.956 45.1864 122.974 43.7788C123.255 43.2807 123.624 42.7825 123.97 42.3494C125.031 40.9201 126.179 39.5774 127.24 38.148L127.457 37.9314C128.799 36.8703 129.666 35.3759 130.814 34.0765C131.745 33.0803 132.589 32.0841 133.586 31.1529C134.149 30.5898 134.798 30.0917 135.232 29.377C135.383 29.0955 135.665 28.8789 135.881 28.6624C136.531 28.0127 137.159 27.4496 137.722 26.7349C137.874 26.5833 138.069 26.3884 138.22 26.3018C139.368 25.5221 140.213 24.461 141.057 23.4431C141.49 22.88 141.988 22.3819 142.487 21.9488C143.201 21.2341 143.829 20.6061 144.479 19.8914C144.544 19.7398 144.631 19.6098 144.631 19.4582C144.696 19.2417 144.566 19.0251 144.349 18.9601H143.699C140.429 18.8952 137.137 19.0251 133.867 19.1767C130.943 19.3933 128.02 19.6748 125.183 20.0213C122.692 20.3678 120.267 20.801 117.928 21.2991C116.282 21.5806 114.788 22.0137 113.228 22.4469C112.795 22.5985 112.384 22.6634 111.886 22.7284C112.167 22.5118 112.535 22.3819 112.882 22.2953C115.242 21.5806 117.581 21.0825 119.942 20.5844C122.216 20.1513 124.49 19.8048 126.785 19.5232C128.561 19.3716 130.424 19.1767 132.265 19.0251C134.409 18.8735 136.618 18.7436 138.805 18.6786H145.064C145.41 18.6786 145.562 18.527 145.497 18.3971C145.432 18.1805 145.215 18.1805 145.064 18.1805H144.284C141.23 18.1155 138.155 18.1805 135.102 18.3321C128.843 18.6786 122.562 19.3933 116.433 20.8876C114.658 21.3207 112.795 21.8188 111.084 22.4469H110.933C110.218 22.7284 110.001 22.5118 110.001 21.7972C110.001 21.5806 110.001 21.4507 109.85 21.2341C109.568 20.9526 109.785 20.736 110.066 20.5844C110.348 20.4328 110.716 20.3029 111.063 20.2379C111.994 19.9564 112.903 19.5882 113.835 19.2417C114.549 18.9601 115.329 18.7436 116.044 18.592L121.588 17.3142C122.649 17.0977 123.645 16.8811 124.728 16.7512C126.071 16.5996 127.37 16.4046 128.713 16.1881C128.994 16.1881 129.276 16.1231 129.557 16.1231C130.489 16.1881 131.398 16.0581 132.33 15.9065C132.546 15.8416 132.763 15.7549 132.979 15.7549C134.538 15.9065 136.119 15.5384 137.679 15.6033C138.458 15.6033 139.173 15.4518 139.953 15.4518C140.299 15.4518 140.732 15.4518 141.1 15.5167C141.75 15.5817 142.313 15.5817 142.876 15.4518C143.374 15.3868 143.938 15.3868 144.436 15.3868C145.583 15.4518 146.71 15.4518 147.857 15.3868C149.005 15.3868 150.001 14.9536 150.781 14.109C151.777 12.9612 152.925 11.9 154.051 10.9038L155.762 9.40953C157.256 8.13178 158.751 6.85403 160.397 5.64125C161.458 4.86161 162.541 4.14694 163.537 3.30233L166.396 1.37488C166.894 1.09334 167.327 0.876773 167.825 0.660206C168.323 0.595236 168.54 0.660206 168.821 1.09334C169.384 2.15452 169.384 2.43606 168.475 3.30233C168.258 3.45392 168.128 3.64883 167.912 3.8654L167.695 4.08197V4.017C167.197 4.29854 166.699 4.58007 166.201 5.01321C165.919 5.22978 165.551 5.44634 165.486 5.85782C165.486 6.13936 165.269 6.29096 165.139 6.4209C164.706 6.7674 164.208 7.20054 163.645 7.35214C163.364 7.41711 163.082 7.50373 162.995 7.85024C162.844 8.13178 162.649 8.28337 162.346 8.28337C161.783 8.34834 161.35 8.62988 161.003 9.12799C160.137 9.69106 159.357 10.4057 158.642 11.1204L158.296 11.4669L158.079 11.6835C157.581 11.965 157.083 12.1816 157.018 12.8313C157.018 13.1128 156.802 13.2644 156.585 13.481C156.304 13.6976 156.087 13.9141 155.74 14.0441C155.596 14.0008 155.524 14.0729 155.524 14.2606C155.524 14.2606 155.459 14.4772 155.372 14.5422C155.091 15.1919 155.156 15.4734 155.87 15.69C156.217 15.7549 156.585 15.8416 156.932 15.7549C158.144 15.7549 159.27 15.9065 160.483 15.9715C162.129 15.9715 163.753 16.1881 165.464 16.318C165.811 16.318 166.244 16.383 166.612 16.4696C166.959 16.4696 167.262 16.5346 167.608 16.5346C169.882 16.6862 172.091 17.1843 174.235 17.8773C175.167 18.1588 175.795 18.7436 175.946 19.8048C176.011 20.1513 176.163 20.5194 176.228 20.9526C176.293 21.3857 176.228 21.8838 176.011 22.2953L175.925 22.2736ZM110.694 22.9883C111.128 22.7068 111.474 22.7068 111.756 22.7068C111.474 22.8584 111.193 22.9883 110.694 22.9883ZM147.294 16.5129C147.294 16.5129 147.294 16.448 147.229 16.448C147.164 16.383 147.013 16.2964 146.883 16.2964C146.103 16.2964 145.324 16.2314 144.522 16.2314C141.252 16.2964 137.895 16.2964 134.625 16.5129C132.568 16.6645 130.575 16.7295 128.583 17.011C126.027 17.2926 123.537 17.6607 121.111 18.0722C118.556 18.5703 116.065 19.1334 113.64 19.8481C113.207 19.9997 112.795 20.1946 112.362 20.4111C112.145 20.4761 112.015 20.9092 112.08 20.9742C112.297 21.1258 112.427 20.9742 112.579 20.9742L113.142 20.7577C115.632 19.978 118.188 19.4149 120.765 18.9168C123.537 18.4187 126.244 18.0722 129.016 17.769C131.16 17.4875 133.369 17.2709 135.491 17.2709C138.848 17.1193 142.248 16.9894 145.605 17.0544C145.887 17.0544 146.168 16.9894 146.536 16.9894C146.601 16.9894 146.688 16.9894 146.688 16.8378C146.688 16.7728 146.623 16.7728 146.536 16.6862H140.278L140.213 16.6212H146.406C146.688 16.6212 146.969 16.6862 147.273 16.5562C147.338 16.5562 147.338 16.4913 147.338 16.4913L147.294 16.5129ZM123.364 52.3981C123.147 52.4631 122.93 52.5497 122.801 52.5497C122.952 52.4848 123.147 52.4848 123.364 52.3981ZM123.797 52.1816L123.364 52.3981C123.515 52.3332 123.645 52.2465 123.71 52.1816H123.775H123.797ZM124.36 51.965C124.511 51.9 124.706 51.8134 124.923 51.7484L124.36 51.965ZM125.356 51.6185C125.204 51.6835 125.075 51.7701 124.923 51.7701C125.075 51.7051 125.204 51.6185 125.356 51.6185ZM127.067 50.9688V51.1854H126.504L127.067 50.9688ZM128.626 42.1328C128.626 42.1328 128.778 41.9812 128.843 41.9163C128.778 41.9812 128.691 42.0679 128.691 42.1328H128.626ZM132.33 17.076H132.546C132.546 17.076 132.394 17.141 132.265 17.076H132.33ZM133.542 32.8854C133.477 33.037 133.391 33.037 133.326 33.167C133.261 33.2319 133.044 33.3186 133.174 33.3835C133.174 33.4485 133.326 33.3186 133.391 33.2319C133.456 33.167 133.542 33.0154 133.542 32.8854ZM135.535 48.6299H134.755L135.535 48.4133V48.6299ZM136.098 48.4133H135.535C135.751 48.4133 135.968 48.3483 136.098 48.2617V48.4133ZM136.747 48.2617H136.098L136.747 48.0451V48.2617ZM136.184 48.4133C136.184 48.4133 136.119 48.4133 136.119 48.4783V48.4133H136.184ZM137.332 48.0668H136.769L137.332 47.8502V48.0668ZM137.895 47.8502H137.332L137.895 47.6337V47.8502ZM145.02 21.1475C144.739 21.2991 144.522 21.429 144.371 21.7105C144.219 21.7755 144.089 21.9271 144.024 22.0571C144.176 21.9921 144.306 21.8405 144.371 21.7105C144.717 21.6456 144.869 21.429 145.02 21.1475ZM145.952 20.1513C145.735 20.3029 145.518 20.4978 145.389 20.7143C145.67 20.6494 145.887 20.4328 145.952 20.1513ZM148.161 20.801C148.161 20.801 148.009 20.8659 147.944 20.9526C148.009 20.8876 148.096 20.8876 148.161 20.8876V20.8226V20.801ZM173.651 20.4545C173.499 20.0213 173.152 20.1729 172.936 20.0213C172.784 19.9564 172.589 19.9564 172.438 19.9564C170.099 19.4582 167.673 19.1117 165.248 18.9601C162.259 18.7436 159.27 18.527 156.412 18.3971C154.982 18.3321 153.705 18.3321 152.492 18.3321C152.21 18.3321 151.929 18.2671 151.777 18.5487C151.626 18.7003 151.994 18.8302 152.492 18.8302L158.253 19.0468C159.964 19.1117 161.609 19.1984 163.299 19.2633C166.504 19.5449 169.709 19.8264 172.849 20.4111C173.066 20.4761 173.347 20.6277 173.629 20.4761L173.651 20.4545ZM173.932 18.6786L173.586 18.462C172.936 18.2455 172.308 18.0289 171.593 17.9639C169.947 17.7474 168.323 17.4009 166.677 17.2493C164.836 17.0977 163.039 16.9028 161.263 16.7512C159.119 16.5996 156.997 16.5346 154.788 16.4696C154.441 16.4696 154.073 16.318 153.791 16.6862C154.008 17.0327 154.441 16.8378 154.723 16.9028H155.372C155.156 16.9677 154.939 16.9677 154.809 16.9677H153.878C153.878 16.9677 153.813 17.0327 153.726 17.1193C153.791 17.1193 153.791 17.1843 153.878 17.1843C153.943 17.2493 154.095 17.2493 154.224 17.2493C156.498 17.4009 158.707 17.5308 160.981 17.5958C164.187 17.7474 167.327 18.0939 170.445 18.4404C170.878 18.5054 171.29 18.5054 171.723 18.592C171.94 18.592 172.07 18.7436 172.286 18.7436C172.784 18.8952 173.282 19.0251 173.845 18.9601L173.91 18.8952C173.91 18.8952 173.91 18.7436 173.91 18.6786H173.932ZM154.419 12.1383C155.134 11.7051 155.697 11.3586 156.13 10.579C155.481 10.9255 154.917 11.4236 154.419 12.1383ZM162.887 5.22978C163.104 5.16481 163.234 5.07818 163.385 4.88327C163.169 4.94824 163.039 5.03487 162.887 5.22978ZM163.667 4.6667C163.883 4.60173 164.1 4.45013 164.23 4.23357C164.013 4.29854 163.797 4.45013 163.667 4.6667ZM164.23 6.65912H164.165V6.72409C164.165 6.72409 164.165 6.65912 164.23 6.65912ZM164.446 4.017C165.096 3.80043 165.594 3.3673 166.006 2.86919C165.443 3.15073 164.858 3.51889 164.446 4.017ZM166.655 2.45771C167.219 2.30612 167.652 2.02458 168.085 1.6131C168.15 1.6131 168.15 1.4615 168.15 1.4615C168.085 1.39653 167.998 1.39653 167.933 1.39653C167.435 1.67807 167.002 2.04624 166.655 2.45771Z" fill="#E6E6E5"/>
</svg>
