<svg width="231" height="70" viewBox="0 0 231 70" fill="none" xmlns="http://www.w3.org/2000/svg">
<path d="M43.238 16.4048L43.0242 17.2592C42.9631 17.5338 42.8103 17.7473 42.6881 17.9609C42.3521 18.2965 42.1382 18.6627 41.9244 19.0899L39.8776 23.0259C39.6637 23.453 39.4499 23.9412 39.236 24.3684C38.9611 24.582 38.7472 24.9176 38.5334 25.2837C37.4031 27.1144 36.1505 28.7926 34.9591 30.5317C34.4092 31.3861 33.7677 32.1489 33.065 32.9117L32.8512 33.2473C32.8512 33.2473 32.5762 33.5219 32.3624 33.3998C32.1485 33.3388 32.0874 33.1252 32.1485 32.9727C32.1485 32.6981 32.2096 32.4235 32.2096 32.0573V31.8437C32.4235 31.2945 32.6373 30.7148 32.9123 30.1656C34.0426 28.2739 35.1424 26.3211 36.3338 24.3684C38.014 21.7139 39.4193 18.9068 40.6718 16.0387C40.9468 15.4895 41.0995 14.9098 41.3134 14.3605C41.3745 14.147 41.3745 13.9334 41.4661 13.7198C41.5272 13.2316 41.405 12.957 40.9162 12.7434C39.7248 12.3163 38.5945 12.2552 37.4031 12.6824C36.2727 13.018 35.234 13.4452 34.1648 13.9334C33.0345 14.6351 31.9347 15.2759 30.8044 16.0387C29.063 17.1676 27.4439 18.4796 25.8248 19.8221C25.5499 20.0967 25.336 20.3103 24.9083 20.5239C25.1222 20.0967 25.4582 19.8221 25.7637 19.5475C26.4663 18.9983 27.1079 18.4186 27.7189 17.8694C27.9938 17.5948 28.2077 17.3812 28.3604 17.0151C29.2158 16.7405 29.8879 16.3133 30.4683 15.6725C29.6129 15.8861 28.8492 16.2218 28.3604 17.0151C28.1466 17.0761 27.9327 17.1676 27.7189 17.2897C26.9551 18.0525 25.8859 18.5406 25.2749 19.456C25.2138 19.6086 25.0611 19.6086 25 19.6696C24.3584 20.0052 24.2973 20.1578 24.5112 20.8595C24.1751 21.4087 23.8085 21.8359 23.3197 22.2631L21.4257 24.2158C21.1507 24.4904 20.9369 24.765 20.6619 24.9176V24.3684C20.2343 24.643 19.8982 25.0091 19.6844 25.4973C20.0204 25.4363 20.3259 25.1617 20.6619 24.9481C20.5092 25.2837 20.3259 25.4973 20.1121 25.7109C17.8819 28.3044 15.8351 31.0199 14.0022 33.9796C12.8107 35.8103 11.6193 37.6105 10.7028 39.6547C10.214 40.6311 9.66413 41.5465 9.17534 42.5228C9.0226 42.7974 8.9004 43.011 8.68655 43.2856C8.5338 44.201 8.13666 44.9028 7.77007 45.6655C7.34237 46.5199 7.00633 47.3437 6.73139 48.259C6.67029 48.5947 6.45644 49.0218 6.30369 49.388C5.8149 50.5779 5.38721 51.7069 5.11226 52.9578C4.89842 53.9342 4.62347 54.8496 4.34853 55.8259C4.28743 56.0395 4.13468 56.3141 4.01248 56.5277C3.95138 56.6803 3.85974 56.8633 3.95138 57.0769C4.01248 57.3515 3.95138 57.6261 3.67644 57.8397C3.52369 57.9923 3.46259 58.1143 3.52369 58.2669C3.85973 58.9686 3.67644 59.6704 3.46259 60.3722V60.5247C3.52369 60.7383 3.46259 60.9519 3.40149 61.1655C3.24875 61.4401 3.12655 61.6537 3.12655 61.9283C3.06545 63.0572 3.06545 64.1556 3.34039 65.2235C3.40149 65.6507 3.55424 66.0779 3.89028 66.3525H3.82919L4.04303 66.6881C4.37908 67.1153 4.89842 67.1763 5.38721 67.0237C6.15095 66.8102 6.85358 66.5355 7.55622 66.1694C8.25886 65.7422 8.9004 65.3151 9.60304 64.9795C10.1529 64.6438 10.7334 64.3387 11.0694 63.7895C11.0694 63.7285 11.2222 63.6369 11.2833 63.6369C12.1997 63.0877 12.8107 62.2944 13.6661 61.6842C13.9411 61.5316 14.1549 61.3486 14.3688 61.135C14.9186 60.6468 15.4991 60.0976 16.1101 59.6704C16.3239 59.6094 16.4461 59.3958 16.5989 59.2432C17.3626 58.6025 18.1263 57.9923 18.9206 57.2905C19.4094 56.8633 19.9593 56.3752 20.4481 55.887C20.998 55.3378 21.5784 54.758 22.1894 54.2698C22.4033 54.0563 22.6782 53.7817 22.8921 53.507C23.2281 53.0189 23.6558 52.6527 24.1446 52.3171C24.4195 52.1035 24.6945 51.8899 25 51.5543C25.7637 50.639 26.6191 49.7236 27.5967 49.0218C27.9327 48.7472 28.2382 48.4726 28.5132 48.1065C28.8492 47.6183 29.3685 47.1301 29.8573 46.7029C30.3461 46.3673 30.7738 45.9401 31.1099 45.452C31.3237 45.2384 31.5376 45.0248 31.8125 44.9028C32.0263 44.7502 32.3624 44.9028 32.3624 45.1774C32.3624 45.3909 32.3624 45.6045 32.3013 45.8181C32.0874 46.0317 31.9652 46.2453 31.8125 46.5809C32.0263 46.4283 32.2402 46.1537 32.3013 45.8181C32.5762 45.7571 32.8512 45.6655 33.1567 45.6655C33.5844 45.6655 33.7982 45.9402 33.7066 46.3063C33.6149 46.6724 33.4927 47.0081 33.1567 47.2827C32.2402 48.0455 31.5376 48.9608 30.7738 49.7236C29.5824 50.9136 28.4521 52.0425 27.2606 53.1409C25.0916 55.1852 22.9837 57.26 20.7536 59.3043C18.0958 61.8367 15.438 64.2167 12.4747 66.444C11.772 66.9322 11.0083 67.4204 10.2446 67.9086C10.0918 68.0611 9.90853 68.1222 9.75578 68.2442L9.69468 68.3968C9.69468 68.3968 9.84743 68.5493 9.90853 68.4578C10.1835 68.3968 10.3973 68.3052 10.6723 68.1832C11.2222 67.8475 11.8637 67.4814 12.4136 67.0542C13.8189 66.0779 15.0714 65.01 16.2628 63.9726C18.3096 62.2334 20.2037 60.4027 22.1589 58.6635C23.778 57.1379 25.3971 55.5818 26.9246 54.0563L30.3461 50.7C31.1099 49.9372 31.9652 49.0218 32.729 48.1675C33.065 47.8319 33.3705 47.5268 33.8593 47.2522C33.7982 47.5268 33.5233 47.8014 33.2178 48.1065C32.5762 48.8693 31.9652 49.571 31.2626 50.2728L24.114 57.26C21.8839 59.4873 19.5011 61.5927 17.1182 63.698C15.438 65.1625 13.6967 66.6271 11.8637 67.9696C10.8861 68.6714 9.75578 69.3121 8.56435 69.7088C6.73138 70.4105 4.13468 69.7698 2.94325 68.5798C2.39336 68.0306 1.81292 67.5424 1.32413 66.9017C0.774238 66.1999 0.468743 65.4371 0.346546 64.5218C0.0105014 63.1793 -0.081147 61.7757 0.0716003 60.4027C0.132699 60.2501 0.132699 60.1281 0.132699 59.9755C0.0716003 57.8092 0.68259 55.7649 1.17138 53.6596L1.81292 50.9136C1.96567 50.5779 2.08787 50.1508 2.30171 49.7846C2.57666 49.2354 2.7905 48.6557 2.94325 48.0455C3.2182 46.9165 3.58479 45.8181 4.28743 44.9028C4.44017 44.6892 4.50127 44.4146 4.56237 44.201C5.11226 42.4618 5.96765 40.8447 6.79248 39.2276C6.94523 39.075 7.06743 38.8919 7.12853 38.6784C7.61732 37.1528 8.5949 35.8713 9.35864 34.5593C9.69468 33.9185 10.1224 33.3693 10.489 32.7286C10.9167 32.1794 11.3444 31.5997 11.5277 30.8979L11.8026 30.4707C12.4441 29.5554 13.0551 28.7316 13.6967 27.8162C14.0327 27.389 14.3382 26.9619 14.6131 26.5652L15.0408 26.077C15.9573 25.2227 16.5683 24.2463 17.271 23.27C17.4237 23.0564 17.607 22.8428 17.8208 22.6292C18.7984 21.6528 19.776 20.7375 20.6314 19.7001C21.3951 18.8458 22.2505 18.083 23.0754 17.3202L23.9307 16.6794C24.3584 16.4048 24.7861 16.0387 25.1833 15.642C25.336 15.4285 25.5193 15.2149 25.7332 15.1538C26.6496 14.5131 27.4745 13.9029 28.391 13.2011C28.5437 13.0485 28.727 12.9875 28.9408 12.8655C29.1547 12.7434 29.3685 12.6519 29.4907 12.5298C29.9184 12.1027 30.4683 11.767 31.1099 11.6755L31.5376 11.4619C32.0874 10.9737 32.7901 10.6991 33.4927 10.4245L33.7066 10.272C34.898 9.5702 36.1505 9.2956 37.4336 8.92946C38.3501 8.71588 39.3277 8.65485 40.2442 8.86844C41.0995 9.08202 41.7105 9.5702 42.1382 10.272C43.3297 12.1637 43.8184 14.269 43.2686 16.4353L43.238 16.4048ZM3.43204 50.2423C2.94325 51.0051 2.7294 51.8594 2.66831 52.7748C2.60721 52.7748 2.60721 52.8358 2.60721 52.9273C2.54611 52.9273 2.54611 52.9883 2.54611 52.9883C2.60721 53.0494 2.60721 52.9883 2.60721 52.9273C2.66831 52.8663 2.66831 52.7748 2.66831 52.7748C3.096 51.9204 3.30984 51.0966 3.43204 50.2423ZM4.13468 55.3683C4.13468 55.3683 4.07358 55.2157 3.98193 55.3072C3.98193 55.3072 3.92083 55.3683 3.92083 55.4598C3.92083 55.5513 3.98193 55.5208 4.07358 55.5208C4.07358 55.4598 4.13468 55.4598 4.13468 55.3683ZM5.7538 44.2925C4.99007 45.2079 4.62347 46.3368 4.40963 47.5268C4.34853 47.5878 4.25688 47.6793 4.19578 47.8014V47.9539C4.19578 47.9539 4.34853 47.8929 4.34853 47.8014C4.34853 47.7098 4.34853 47.5878 4.40963 47.5268C4.95952 46.4894 5.44831 45.4825 5.7538 44.2925ZM4.50127 53.4765H4.44018L4.37908 53.5376C4.44018 53.5986 4.53182 53.5986 4.53182 53.5376V53.4765H4.50127ZM4.83732 52.3476L4.77622 52.2866C4.77622 52.2866 4.71512 52.2866 4.71512 52.3476C4.71512 52.3476 4.77622 52.3476 4.77622 52.4086C4.77622 52.4086 4.83732 52.4086 4.83732 52.3476ZM6.18149 48.6252L6.02875 48.4116C5.8149 48.9608 5.6927 49.449 5.6927 50.0287C5.90655 49.5405 6.02875 49.1134 6.18149 48.6252ZM7.03688 41.76C7.52567 40.8447 8.01446 39.9293 8.28941 39.014C7.52567 39.9293 7.03688 40.9057 6.76193 42.0957C6.42589 42.3093 6.27314 42.7364 6.1204 43.072C6.1204 43.1331 6.0593 43.2246 6.18149 43.2856C6.24259 43.2856 6.33424 43.2246 6.33424 43.1331C6.54809 42.7974 6.67029 42.4313 6.76193 42.0957C6.82303 41.9431 6.97578 41.8821 7.03688 41.76ZM7.25073 67.5424C7.25073 67.5424 7.31183 67.6035 7.40347 67.6035C7.61732 67.4509 7.89227 67.3288 8.16721 67.2678C8.50325 67.0542 8.93095 66.8407 9.29754 66.7186V66.8712C9.29754 66.8712 9.57249 66.8102 9.72523 66.7186C10.214 66.5661 10.7028 66.2304 11.1305 65.9558C13.1773 64.4913 14.9797 62.9352 16.8127 61.257C17.0266 61.0434 17.3015 60.7688 17.4542 60.4942C18.0958 60.2196 18.4929 59.7314 18.9817 59.1517H18.554C18.9817 58.6635 19.4094 58.2364 19.9593 57.9618L19.5316 58.6025C20.2953 58.2669 20.7841 57.6261 21.2729 57.0769H20.8452C21.3951 56.4362 21.8839 55.8259 22.5866 55.4598V55.6734C23.0143 55.5208 23.2892 55.2462 23.5641 54.9716C23.7169 54.8191 23.7169 54.697 23.5641 54.5444C23.778 54.3309 23.9918 54.1173 24.114 53.9037C24.389 53.9647 24.6028 53.8427 24.8167 53.6901C25.5804 53.2019 26.1608 52.5002 26.6496 51.7984L26.8635 51.5848L27.0162 51.4323H26.8635L27.0773 51.2187L27.4134 50.7915L27.6272 50.5779V50.7915L27.78 50.639H27.6272L27.8411 50.4254C28.116 49.9982 28.4826 49.7236 28.6048 49.2354C28.1771 49.449 27.9022 49.6626 27.6272 49.9982C26.9857 50.7 26.283 51.3407 25.5804 51.951L23.6252 53.9037C22.3727 55.0326 21.0896 56.1311 19.8982 57.26C17.7292 59.3043 15.5602 61.257 13.2384 63.0572C11.4971 64.4607 9.72523 65.8033 7.83117 66.8407L7.18963 67.3289V67.4814L7.25073 67.5424ZM8.01446 44.2925C8.01446 44.2925 7.95336 44.14 7.86172 44.2315V44.2925L7.92281 44.3535L7.98391 44.2925H8.01446ZM9.84743 40.1734C9.20589 41.0888 8.7171 41.9126 8.31996 42.9195C8.25886 42.8585 8.16721 42.8585 8.10611 42.9195H8.31996C8.31996 43.1331 8.4727 43.2551 8.656 43.2551C8.7171 42.828 8.93095 42.4923 9.14479 42.1262C9.48084 41.4854 9.69468 40.8752 9.84743 40.1734ZM11.6804 33.5219L14.491 29.2502C14.7048 28.9756 14.827 28.701 14.9186 28.3959C15.1936 28.1823 15.3463 27.9077 15.4685 27.6331C15.1936 27.8467 14.9797 28.0603 14.9186 28.3959C14.6437 28.6095 14.4299 28.8841 14.216 29.1587L11.6804 32.9422C11.4055 33.2778 11.1916 33.705 11.0389 34.1931C10.6112 34.5288 10.3362 34.9559 10.2751 35.5357C9.41974 36.451 8.86985 37.4884 8.5338 38.6173C9.29754 37.702 9.87798 36.6646 10.2751 35.5357C10.7028 35.2 10.9167 34.7729 11.0389 34.1931C11.3138 33.9796 11.4666 33.766 11.6804 33.4914V33.5219ZM9.63358 66.6271C9.63358 66.6271 9.35864 66.6271 9.29754 66.6881C9.45029 66.5355 9.63358 66.4135 9.84743 66.2609L9.63358 66.5966V66.6271ZM11.2527 65.2846L11.0389 65.4981L11.1916 65.2846C11.4055 65.132 11.6193 65.071 11.8331 64.9489L11.2833 65.2846H11.2527ZM12.5969 35.5357C12.2608 35.7492 12.047 36.0238 11.8331 36.2985V36.7256H11.6193V37.0612C11.6193 37.0612 11.772 36.7866 11.8331 36.7256C12.1692 36.39 12.4747 36.0238 12.5969 35.5357ZM12.047 64.7354L11.8331 64.9489C11.8331 64.9489 11.9859 64.7964 11.9859 64.7354H12.047ZM12.5969 64.3997C12.383 64.4608 12.1692 64.6133 11.9553 64.7354L12.5969 64.3082C12.5969 64.3082 12.7496 64.2472 12.8107 64.1556L12.5969 64.3692V64.3997ZM12.9329 63.9726L12.7802 64.1861C12.7802 64.1861 12.8413 64.0336 12.9329 63.9726ZM13.4828 63.5454L13.6967 63.3928C13.6967 63.3928 13.6356 63.5454 13.4828 63.5454ZM16.0184 30.1351C15.5907 30.1961 15.2547 30.4707 15.0408 30.8979H15.1019C14.6131 31.325 14.2466 31.8132 13.9716 32.3014C13.8189 32.515 13.7578 32.7286 13.6967 32.9422C13.6356 33.0032 13.6967 33.1557 13.7578 33.1557C13.8189 33.3083 13.9716 33.2168 14.0938 33.1557L14.4299 32.7286C14.8575 32.0878 15.2852 31.5386 15.6213 30.8979C15.774 30.6233 15.8962 30.3487 15.9573 30.1351H16.0184ZM14.6742 62.63L14.1244 62.9657C14.3382 62.8131 14.4604 62.6911 14.6742 62.63ZM15.3158 61.9893L15.1019 62.2029C15.1019 62.2029 15.163 62.0503 15.2547 61.9893H15.3158ZM16.4461 61.074C16.1101 61.4096 15.7435 61.7757 15.2547 61.9893C15.5907 61.6537 15.9573 61.2265 16.4461 61.074ZM17.2099 25.4973L17.271 25.4363V25.3753C17.271 25.3753 17.2099 25.4363 17.2099 25.5278C16.7211 25.7414 16.4461 26.1686 16.2323 26.6568C16.0795 26.8093 15.9573 26.9924 15.8962 27.206C16.049 27.0534 16.1712 26.8703 16.2323 26.6568C16.7211 26.3822 16.996 26.016 17.2099 25.5278V25.4973ZM16.7822 60.6468L16.996 60.4332C16.996 60.4332 16.9349 60.5858 16.8433 60.6468L16.6294 60.8604C16.6294 60.8604 16.7822 60.7078 16.7822 60.6468ZM17.3321 28.579C17.3321 28.579 17.3321 28.518 17.271 28.4264C17.271 28.4264 17.2099 28.4264 17.1182 28.4875C16.9044 28.64 16.9044 28.9146 16.8433 29.1282C16.996 28.9756 17.1793 28.8536 17.3321 28.579ZM17.3931 60.4332H16.9655L17.3931 60.2196V60.4332ZM18.3707 27.0229C18.3707 27.0229 18.1569 27.0839 18.1569 27.1755C18.0958 27.2365 18.0041 27.328 18.0041 27.389C18.0041 27.4501 18.0652 27.4501 18.0652 27.4501C18.218 27.389 18.2791 27.2975 18.3402 27.1144V27.0534L18.3707 27.0229ZM29.1547 14.208C28.6659 14.3605 28.2993 14.5436 28.0244 14.9708H27.5967L27.3828 15.1844C27.3828 15.1844 27.3217 15.459 27.2301 15.6115C26.8024 15.6725 26.4663 15.9471 26.2525 16.3743C25.8248 16.5269 25.4888 16.7099 25.2749 17.1371C25.2138 17.1981 25.1222 17.2897 25.0611 17.2897C24.4195 17.5643 23.9307 18.0525 23.5336 18.6322C23.1975 18.7847 22.8921 19.0593 22.6782 19.2729L20.6314 21.2257C19.9899 21.8664 19.3789 22.4767 18.7984 23.1784C18.5846 23.453 18.3096 23.6666 18.0958 23.8802V24.3074C18.3096 24.0938 18.5235 23.9717 18.7373 23.7581C19.44 22.9038 20.2037 22.2326 20.9063 21.4393L23.5641 18.6932C24.114 18.3576 24.6028 17.9304 25.0305 17.3507L25.2444 17.1371C25.6721 16.9845 25.947 16.6489 26.2219 16.3743C26.6496 16.1607 26.9246 15.9471 27.1995 15.6115C27.4745 15.459 27.7494 15.3369 27.9633 14.9708C28.391 14.9098 28.8187 14.5436 29.0936 14.208H29.1547ZM19.4705 25.6804H19.4094V25.7414C19.4094 25.7414 19.4094 25.6804 19.4705 25.6804ZM21.8534 22.9343C21.8534 22.9343 21.7006 22.9954 21.6395 23.0869C21.5784 23.1784 21.6395 23.1479 21.7006 23.2394C21.7617 23.1784 21.8534 23.0869 21.8534 23.0259C21.9145 23.0259 21.8534 22.9648 21.8534 22.9648V22.9343ZM23.6863 21.1036C23.1365 21.4393 22.7699 21.7444 22.556 22.2326V22.2936C22.831 22.2326 23.2586 21.8054 23.6863 21.1036ZM24.3279 53.6596C24.3279 53.6596 24.1751 53.8122 24.114 53.8122C24.1751 53.7511 24.2668 53.6596 24.3279 53.6596ZM24.7556 20.5544L24.9694 20.4019C24.9694 20.4019 24.8167 20.5544 24.7556 20.5544ZM26.8635 51.2797V51.4933H26.6496L26.8635 51.2797ZM29.4602 13.9029C30.4989 13.4757 31.4154 12.9875 32.2707 12.2857H31.9347V12.0722H31.8736C31.8736 12.0722 31.8736 12.2247 31.9347 12.2857L31.0793 12.7739C30.5294 13.0485 29.949 13.4147 29.4602 13.9029ZM29.6129 48.2285H29.674V48.1675L29.6129 48.2285ZM30.5905 47.4657V47.8014C30.9266 47.5878 31.2321 47.3132 31.2932 46.947L30.5905 47.4352V47.4657ZM32.8206 14.0554C32.2707 14.0554 31.9042 14.269 31.4154 14.4826C31.0793 14.6962 30.7738 14.9708 30.7127 15.3979C31.5681 15.1233 32.1791 14.6962 32.8206 14.0554ZM32.6679 12.1027L33.0956 11.8891C33.5233 11.8281 33.951 11.6145 34.287 11.2483C34.4398 11.0348 34.6231 10.9127 34.7758 10.7602L35.9672 10.5466C35.8145 10.8212 35.9672 10.8822 36.2422 10.8212C37.2809 10.6076 38.4112 10.394 39.5415 10.1194C39.5415 10.1194 39.6026 10.1194 39.6943 10.0584C39.6332 10.0584 39.6332 9.99737 39.5415 9.99737C39.5415 9.93634 39.3277 9.99737 39.4804 9.84481C39.5415 9.78379 39.6332 9.78379 39.7554 9.78379C39.7554 9.78379 39.8165 9.72276 39.9081 9.72276L39.7554 9.5702C39.5415 9.5702 39.3277 9.50918 39.1138 9.50918C37.8613 9.50918 36.5782 9.84481 35.3868 10.272C35.1729 10.4245 34.9591 10.5466 34.7452 10.7602C33.9815 10.8212 33.2789 11.1873 32.6373 11.6755L33.065 11.8891H32.6373V12.1027H32.6679ZM40.1831 11.6145L39.9692 11.4619C39.4193 11.4009 38.8389 11.4619 38.289 11.523C36.6088 11.7976 35.1424 12.4993 33.5844 13.2621C33.3094 13.4757 33.0956 13.6893 32.8817 13.9639C33.5233 13.9639 34.0121 13.5367 34.562 13.2621C36.0283 12.5604 37.5863 12.0722 39.2666 11.9196C39.4804 11.9196 39.6943 11.8586 39.9081 11.8586C40.0609 11.7976 40.1831 11.7976 40.1831 11.584V11.6145ZM33.8593 47.1301C33.8593 47.1301 33.7982 47.1301 33.7982 47.1911V47.1301H33.8593Z" fill="#E6E6E5"/>
<path d="M66.5774 44.0179C66.7913 44.5671 66.4247 44.7197 66.0886 44.7807C65.1721 44.9943 64.4084 45.4825 63.553 45.9096C62.3616 46.4589 61.2312 46.825 59.9176 46.825C58.6651 46.825 57.3209 46.9776 56.0684 47.0386C54.602 47.2522 53.1967 47.1911 51.7304 46.886C50.8139 46.7335 49.8363 46.6114 48.9198 46.3368C48.706 46.2758 48.4921 46.2758 48.3699 46.1842C47.82 46.1232 47.6062 46.1842 47.3312 46.6724C47.1785 47.0996 47.0563 47.5268 46.8424 47.9234C46.3537 48.5642 45.7121 49.1744 45.1622 49.8151C45.1011 49.8762 45.0095 50.0287 45.1011 50.0287C45.4372 50.5169 44.9484 50.6695 44.6734 50.7915C43.6959 51.4933 42.5655 51.9204 41.3741 52.195C38.7774 52.6832 36.9444 50.8525 36.6084 49.0523C36.5473 48.3506 36.3945 47.7098 36.3945 47.0081C36.3945 45.9707 36.7306 45.0553 37.3721 44.201C38.1359 43.0721 39.2051 42.0957 40.2438 41.1803C40.5798 40.8447 41.0991 40.6921 41.649 40.6311C41.924 40.5701 42.1989 40.6921 42.1989 40.8447C42.1989 41.0583 41.924 41.0583 41.7712 41.1803C41.7101 41.1803 41.6185 41.1803 41.6185 41.2414C41.5574 41.3024 41.5574 41.3939 41.5574 41.4549L41.7712 41.6685H41.924C42.4739 41.4549 43.0543 41.3939 43.3904 40.9057C43.7264 40.4175 43.9403 40.4175 44.3679 40.6921C46.7508 42.3093 49.4086 42.7974 52.2192 43.011C53.2578 43.0721 54.3271 43.1636 55.3657 43.0721L59.3677 42.8585C60.0093 42.7974 60.6203 42.7059 61.2618 42.7059C61.7506 42.7059 62.1783 42.7059 62.606 42.5534C63.0337 42.4923 63.4614 42.3398 63.8585 42.3398C64.1334 42.4008 64.4084 42.2787 64.7139 42.1262L65.4776 41.7906C65.9664 41.577 66.1803 41.7295 66.333 42.2177C66.3941 42.4313 66.3941 42.7059 66.608 42.8585C66.8218 43.1941 66.8829 43.4992 66.608 43.8348V43.9874L66.5774 44.0179ZM44.5512 44.8722L43.5126 43.5297C43.1765 43.1941 42.8099 43.1026 42.3822 43.3772C42.1684 43.5297 41.9545 43.6518 41.8323 43.8043L40.977 44.4451C40.2743 44.8722 39.7244 45.4215 39.5106 46.2758C39.6633 46.2758 39.7244 46.4283 39.5717 46.5504C39.3578 46.9776 39.0829 47.4047 38.9301 47.8929C38.869 48.3201 38.9301 48.5336 39.3578 48.5336C40.2132 48.5947 40.977 48.5336 41.7407 48.1065C42.7794 47.5573 43.6348 46.8555 44.2763 45.9402C44.429 45.7876 44.4901 45.6045 44.6123 45.452C44.6734 45.2384 44.6734 45.0248 44.5512 44.9028V44.8722ZM40.9159 50.0592C41.4046 50.2728 41.7712 50.0592 42.1684 49.8456V49.7846L42.1073 49.7236H41.6185C41.8934 49.571 42.1073 49.388 42.3822 49.1744C41.7407 49.2354 41.1297 49.388 40.5493 49.6016C40.4882 49.6016 40.4882 49.6626 40.4882 49.7541C40.4882 49.9067 40.5493 49.9067 40.6409 49.9067C40.702 49.9677 40.7937 49.9677 40.8548 49.9677C40.8548 50.0287 40.9159 50.1203 40.9159 50.1203V50.0592ZM43.5737 50.9136L43.4209 50.761C43.2682 50.822 43.146 50.822 42.9932 50.822C42.4433 51.0356 41.8629 51.1576 41.2519 51.3712L41.0381 51.5238C41.0381 51.5238 40.977 51.5848 40.977 51.6763C40.977 51.7679 41.0381 51.7374 41.1297 51.8289H41.2824C41.7712 51.8289 42.26 51.6764 42.8099 51.4933C43.0238 51.4323 43.3598 51.2797 43.5126 51.0661C43.5737 51.0661 43.5737 50.9136 43.5737 50.9136ZM46.873 48.3811C46.873 48.3811 46.7203 48.5336 46.7203 48.5947V48.5336C46.7203 48.5336 46.7814 48.4726 46.873 48.3811ZM46.873 47.9539H47.0257C47.0257 47.9539 46.873 48.2285 46.873 48.3811V47.9539ZM53.1967 44.4451C53.5328 44.4451 53.8994 44.5061 54.1743 44.5061H57.1071C57.1071 44.5061 57.4431 44.4451 57.657 44.7197H55.7018C55.9156 44.8722 56.0378 44.8722 56.1295 44.8722C57.8708 44.9333 59.551 44.7197 61.2618 44.6587C61.4756 44.6587 61.7506 44.5976 61.9644 44.5061C62.1783 44.4146 62.3005 44.4451 62.4532 44.2315C62.7282 43.8959 63.0948 43.7433 63.4919 43.5908C63.7669 43.5297 64.0418 43.4382 64.3473 43.3161C64.4084 43.3161 64.5 43.2551 64.4084 43.1026C64.4084 43.0415 64.2556 43.0415 64.1945 43.1026C64.0418 43.1026 63.9196 43.1636 63.8585 43.1636C63.1559 43.4992 62.4532 43.6518 61.6895 43.7128C60.4981 43.8654 59.3066 43.9874 58.1152 44.0484C56.5877 44.0484 55.0297 44.201 53.5022 44.262C53.4411 44.262 53.2884 44.262 53.2273 44.4146L53.1967 44.4451ZM64.775 44.7807C64.3473 44.5671 64.0113 44.9333 63.6447 45.0553C63.0031 45.3299 62.3921 45.6045 61.7506 45.6961C61.048 45.8486 60.3453 45.9096 59.6427 45.9707C57.7486 46.0317 55.9156 46.1842 54.0216 46.1842C53.7466 46.1842 53.4717 46.1842 53.1662 46.3368C53.3189 46.5504 53.5939 46.5504 53.8077 46.5504C54.2965 46.6114 54.7853 46.7029 55.3352 46.6114C57.0154 46.6114 58.6956 46.4589 60.3759 46.3978C61.6284 46.3368 62.7587 46.0622 63.7974 45.4215C64.0723 45.2079 64.5 45.1468 64.7139 44.7807H64.775ZM60.2231 44.4451H59.0928V44.3841H60.2231V44.4451ZM61.5673 44.2315H61.5062C61.5062 44.2315 61.5673 44.1705 61.6589 44.1705L61.72 44.2315H61.5673Z" fill="#E6E6E5"/>
<path d="M100.732 48.2896C100.457 48.4421 100.09 48.5642 99.8152 48.6252L96.0882 49.6626C93.4914 50.3644 91.0475 51.4933 88.5119 52.4086C87.3816 52.8968 86.1901 53.385 84.9987 53.8122C84.2961 54.0868 83.5323 54.3004 82.7686 54.514C82.5547 54.575 82.3409 54.575 82.127 54.7275C82.0659 54.7275 81.9743 54.7886 81.9743 54.8801C81.9743 55.0327 82.127 55.0937 82.1881 55.0937C82.5242 55.0327 82.9519 55.0327 83.3185 54.8801C84.0822 54.6665 84.7849 54.4529 85.5486 54.1783L90.8642 52.012C92.6972 51.2492 94.4996 50.6085 96.3936 50.1203C97.5851 49.7846 98.7765 49.4185 99.9679 48.9913C100.182 48.9303 100.396 48.7778 100.609 48.8388C100.609 48.8388 100.63 48.8591 100.671 48.8998V48.9608C100.671 48.9608 100.457 49.1744 100.396 49.1744C99.6319 49.449 98.8682 49.7236 98.0739 49.9372C96.1798 50.4864 94.2857 50.9746 92.4528 51.7679L87.687 53.6596C86.0679 54.3614 84.4488 54.9106 82.7686 55.3988C82.127 55.5514 81.5772 55.6734 80.9356 55.3378C80.2941 54.9106 79.5914 54.4224 79.4081 53.5986C79.2554 53.0494 79.1943 52.4697 79.1332 51.9815C78.9805 51.1272 79.1332 50.4559 79.622 49.7541L81.3022 47.5268L82.5547 46.0622C82.8908 45.7266 83.0435 45.2994 83.1963 44.8112C82.9213 44.7502 82.7686 44.8112 82.5547 44.8723C81.2106 45.3604 79.958 45.9097 78.6139 46.4894C75.8033 47.7404 72.9928 49.2354 70.2128 50.5474C68.4714 51.4018 66.7912 52.2256 64.8971 52.7138L64.1945 52.9273C63.6446 52.9884 63.1558 52.8663 62.7281 52.5917C61.9644 52.0425 61.4756 51.4018 61.4756 50.4254C61.4756 50.2728 61.4145 50.1508 61.4145 50.0898C61.1396 48.9608 61.4145 47.9845 61.9644 47.0081C63.1558 45.1774 64.4084 43.4992 65.9053 41.8821C66.1802 41.5465 66.4552 41.2414 66.8218 40.9668C67.0967 40.7532 67.3106 40.8142 67.5244 41.1193L67.8604 41.6685C68.1354 42.1567 68.1354 42.6449 67.8604 43.1331L66.944 44.5977C66.7301 44.9333 66.4552 45.2384 66.4552 45.6351C65.8136 46.1843 65.4165 46.9776 64.9277 47.5878C64.8666 47.7404 64.8666 47.8624 64.9888 47.9234C65.4776 48.198 65.9664 48.2591 66.4552 48.076C67.0967 47.7404 67.7077 47.4352 68.4103 47.3132C68.5631 47.3132 68.6242 47.2522 68.6853 47.1606C69.8156 46.4589 71.007 46.0317 72.1068 45.4215C73.3593 44.7197 74.7035 44.2315 75.9561 43.5297C77.0864 42.9805 78.2778 42.5534 79.4692 42.0042C80.3246 41.577 81.3022 41.3634 82.127 40.8752C82.5547 40.6616 82.9824 40.6006 83.3796 40.4481L84.9987 40.0209C86.129 39.7463 86.9539 40.0819 87.4426 41.1498C87.5954 41.4855 87.7787 41.7906 87.9314 42.1262C88.3591 43.0416 88.3591 43.9569 87.6565 44.7807C86.8011 45.8181 85.9152 46.825 85.2125 47.9234C85.0598 48.198 84.7849 48.4726 84.5099 48.6862C84.3572 48.8998 84.4488 49.0218 84.7849 49.1134C84.571 49.449 84.4488 49.8762 84.235 50.2423C84.1739 50.4559 84.3877 50.6695 84.571 50.578H84.7238C85.7624 49.9372 86.9539 49.8152 88.0231 49.327C89.1534 48.8388 90.2532 48.4726 91.3835 47.9234C92.3611 47.4963 93.4914 47.1606 94.5301 46.886C95.8743 46.4589 97.1879 46.1232 98.5932 45.7571C98.9292 45.6045 99.3569 45.6045 99.7235 45.5435C99.9985 45.4825 100.212 45.5435 100.365 45.7571C100.518 45.9097 100.518 46.0927 100.365 46.2453C100.304 46.4589 100.365 46.6725 100.579 46.7945L100.793 46.9471C101.343 47.4352 101.282 47.9845 100.64 48.2896H100.732ZM83.624 44.079C83.8989 43.9264 84.1739 43.8654 84.3877 43.6518V43.4382H83.8989C82.0048 44.201 80.0497 44.9028 78.1556 45.7571C75.4978 47.0081 72.9011 48.3506 70.2433 49.6016C68.5631 50.4559 66.8218 51.2797 64.9277 51.7679C64.7139 51.8289 64.5917 51.8289 64.4389 51.9205C64.3778 51.9815 64.2862 52.073 64.3778 52.1951C64.3778 52.1951 64.4389 52.1951 64.5306 52.2561C65.1721 52.2561 65.722 52.0425 66.2719 51.8289C67.6771 51.2797 69.0213 50.7915 70.2739 50.0898C73.9092 48.137 77.6974 46.4589 81.4855 44.9028L83.6545 44.0484L83.624 44.079ZM64.4084 50.3949C64.4084 50.3949 64.5611 50.6695 64.6833 50.6085C65.447 50.4559 66.2108 50.2728 66.8523 49.6931H66.3024C66.5774 49.4795 66.944 49.3575 67.28 49.2659V49.4795C67.28 49.4795 67.3411 49.4795 67.3411 49.4185C67.28 49.4185 67.28 49.3575 67.28 49.3575C67.8299 48.8693 68.5325 48.6557 69.1741 48.3811C69.1741 48.5337 69.113 48.5947 69.0213 48.7167C69.2963 48.6557 69.5101 48.5032 69.7851 48.3811C70.7626 48.1065 71.6791 47.6793 72.1068 46.6419C71.2514 46.9165 70.4877 47.1911 69.7851 47.6183C68.3187 48.3811 66.8523 49.1439 65.2332 49.6626L64.6833 49.8762C64.4695 50.0287 64.4084 50.2118 64.4084 50.4254V50.3949ZM69.8156 48.1675V48.3811H69.1741L69.8156 48.1675ZM72.4734 46.4284L73.451 46.2148C74.0009 46.3673 74.4897 46.0622 74.9174 45.7876C75.1312 45.6351 75.1312 45.452 74.9785 45.2994C74.062 45.452 73.2371 45.8486 72.4429 46.4284H72.4734ZM75.0701 45.2384C75.4978 45.1774 75.8339 45.0248 76.2004 44.6892C75.7117 44.7502 75.3451 44.9028 75.0701 45.2384ZM76.9642 44.323L77.5141 44.5366C78.0029 44.4756 78.4306 44.262 78.7666 43.8959C79.0415 43.6213 79.4081 43.4077 79.8053 43.3467V43.5603C80.569 43.3467 81.3328 43.2246 81.9743 42.7975C82.127 42.7364 82.2492 42.7975 82.402 42.7364C83.4407 42.4008 84.4488 42.0347 85.4875 41.8211C85.5486 41.8211 85.5486 41.7601 85.6402 41.7601C85.8541 41.6075 85.8541 41.2719 86.0679 41.1193C85.9152 40.8447 85.6402 40.9057 85.4264 40.9668C84.571 41.0278 83.8073 41.3024 83.0435 41.6685C81.4244 42.3093 79.8053 42.9195 78.2167 43.6213C77.789 43.7738 77.3002 43.9569 76.9642 44.323ZM82.3714 42.3703L81.9438 42.7975C81.9438 42.7975 81.7299 42.6449 81.9438 42.5229C82.0048 42.4618 82.2187 42.4618 82.3714 42.3703ZM83.3796 42.0347C83.1046 42.2483 82.738 42.3703 82.402 42.3703C82.6769 42.1567 83.0435 42.0347 83.3796 42.0347ZM99.3569 46.7945C99.3569 46.7945 99.1431 46.7945 99.0209 46.8555C96.638 47.4963 94.2552 48.1065 91.9334 48.9608C91.5974 49.1134 91.2308 49.2965 90.9558 49.51C90.1921 49.5711 89.5506 49.8457 89.0007 50.2728C88.1453 50.4254 87.3205 50.761 86.5567 51.1272C85.6402 51.5543 84.6627 51.89 83.7462 52.2561L83.1046 52.4697C83.1046 52.4697 82.8297 52.6222 82.9519 52.7443C82.9519 52.8053 83.1046 52.8053 83.1657 52.8053C83.1046 52.8663 82.9519 52.9579 82.8297 53.0189C82.7686 53.0189 82.6158 53.0799 82.6158 53.2325C82.6158 53.2935 82.8297 53.2935 82.8908 53.2935C83.4407 53.1409 84.0822 53.0189 84.571 52.6527C84.907 52.5917 85.2125 52.4392 85.4875 52.2256C85.1514 52.2866 84.7849 52.3781 84.5099 52.5612L83.1657 52.7748C84.2961 52.3476 85.3958 51.8594 86.5262 51.4323C86.9539 51.2187 87.3816 51.0966 87.8703 51.0051L87.8092 51.0661L87.4732 51.4018C87.1372 51.4018 86.8317 51.5543 86.5567 51.7374C86.8928 51.7374 87.1983 51.5848 87.4732 51.4018C87.8092 51.4018 88.1758 51.2492 88.4508 50.9746C88.2369 50.9746 88.0231 50.9746 87.8092 51.0356L89.0007 50.1813C89.3367 50.1203 89.7644 50.0287 90.1921 50.0287C90.0394 50.0898 89.9172 50.2423 89.7644 50.3644C89.7033 50.3644 89.6117 50.3644 89.4895 50.4254L89.4284 50.4864C89.4284 50.4864 89.4895 50.5474 89.5811 50.4864C89.6422 50.4864 89.7339 50.4254 89.795 50.3339C90.3449 50.2728 90.9253 50.1203 91.3224 49.7846C91.6585 49.7236 92.0251 49.6321 92.3 49.3575C92.6361 49.3575 92.9416 49.2965 93.2165 49.2049C93.9191 48.9303 94.6218 48.7167 95.3244 48.5032L98.471 47.6488C98.807 47.5878 99.1126 47.4963 99.3875 47.3132C99.5402 47.1606 99.3875 47.0996 99.2347 47.0386H99.2958C99.2958 47.0386 99.4486 46.886 99.4486 46.825C99.5097 46.764 99.5097 46.6725 99.3875 46.6114L99.3569 46.7945ZM92.6361 49.1744L92.3 49.51C91.964 49.51 91.5974 49.6626 91.3224 49.9372L90.131 50.1508L90.9864 49.51C91.5363 49.51 92.1167 49.2354 92.6666 49.1744H92.6361ZM93.8275 48.7472C93.8275 48.7472 94.1635 48.5947 94.3163 48.5947C94.1635 48.6557 93.9802 48.7472 93.8275 48.7472ZM94.3774 48.5337C94.5912 48.5337 94.8051 48.4726 95.0189 48.3811L94.3774 48.5947H94.3163L94.3774 48.5337ZM95.0189 48.3811L95.7827 48.1675C95.5077 48.3201 95.2328 48.3201 95.0189 48.3811ZM95.7216 48.1675L96.3631 47.9539L95.8132 48.1675H95.7521H95.7216ZM96.3631 47.9539C96.5769 47.8014 96.8519 47.8014 97.1268 47.7404C96.8519 47.8929 96.638 47.9539 96.3631 47.9539Z" fill="#E6E6E5"/>
<path d="M152.452 21.1646C152.391 21.3782 152.177 21.3782 151.964 21.3172C151.811 21.1646 151.628 21.0426 151.475 20.829C150.925 20.2798 150.222 19.9747 149.428 19.7916C148.175 19.456 146.831 19.2424 145.579 19.0899C143.41 18.8152 141.241 18.5406 138.98 18.4491C138.766 18.3881 138.491 18.3881 138.277 18.3881C135.192 18.3271 132.106 18.0525 129.082 18.0525C128.593 18.0525 128.166 18.1135 127.738 18.3271C127.249 18.5406 126.699 18.6017 126.119 18.7542C125.905 18.8152 125.63 18.9678 125.783 19.3034C125.844 19.3645 125.783 19.517 125.722 19.578L124.683 20.6154C124.469 20.829 124.133 20.5544 123.98 20.829C123.828 21.0426 124.041 21.2562 123.919 21.4698C123.766 21.7444 123.583 22.019 123.278 22.2326C123.064 22.3851 122.85 22.5682 123.003 22.9343H122.942L121.903 23.6971C121.567 23.9107 121.353 24.1243 121.2 24.4599H121.261C120.284 25.1007 119.52 25.8634 118.94 26.7788L118.726 26.9924C118.451 27.267 118.084 27.4806 117.809 27.7552C116.618 28.9451 115.426 30.1351 114.296 31.4776C114.021 31.7522 113.807 32.0268 113.655 32.393C113.441 32.6065 113.227 32.7286 113.105 33.0337C113.044 33.0337 112.952 33.0947 112.891 33.1863C112.677 33.3998 112.463 33.5219 112.341 33.7355L109.103 37.0918C108.828 37.3664 108.553 37.7935 108.339 38.1292C107.636 38.9835 106.934 39.8073 106.109 40.5091V40.1734L105.834 40.448C105.834 40.448 105.773 40.7226 105.895 40.7226C105.834 40.9362 105.742 41.0583 105.559 41.1498C104.581 41.577 104.154 42.4008 103.665 43.2551C103.451 43.7433 103.237 44.1705 102.81 44.5061C102.596 44.6587 102.657 44.8417 102.81 44.9943C102.748 45.2689 102.474 45.4214 102.168 45.5435C101.954 45.6045 101.893 45.7571 101.893 45.9707C101.954 46.3978 101.74 46.7334 101.465 47.0996C101.19 46.947 101.129 47.0386 101.038 47.2521V47.5268C101.038 47.8014 100.977 48.1675 100.977 48.4421C100.915 48.6557 101.129 48.8693 101.313 48.7777C101.465 48.7777 101.588 48.7777 101.74 48.7167C102.596 48.4421 103.482 48.2895 104.276 47.8014L104.551 47.7403C106.598 47.2521 108.492 46.3978 110.569 46.1232C111.058 46.0622 111.547 45.9096 111.974 45.7876C113.441 45.1468 114.907 44.8112 116.404 44.323C117.107 44.1094 117.87 44.0484 118.573 43.8959C118.634 43.8348 118.726 43.8348 118.787 43.8959C118.848 43.8959 119.001 43.9569 119.001 44.0484C119.001 44.14 119.001 44.262 118.94 44.323C118.726 44.384 118.512 44.5366 118.298 44.5976C114.938 45.7876 111.486 46.9165 108.003 47.8929C105.467 48.5336 102.962 49.4185 100.488 50.4254L99.9379 50.6389C99.9379 50.6389 99.7851 50.7915 99.8768 50.9135C99.9379 50.9746 100.03 50.9746 100.152 50.9746L99.724 51.4017C100.641 51.2492 103.512 50.2118 104.429 49.6626H104.368C104.581 49.6626 104.795 49.6015 105.009 49.449C105.223 49.449 105.437 49.388 105.559 49.2964C105.345 49.2964 105.131 49.3575 105.009 49.449H104.368C104.917 49.1744 105.498 48.9608 106.109 48.8998V49.1134L106.262 49.0523C106.323 48.8998 106.201 48.8998 106.109 48.8998C107.453 48.3506 108.767 47.9844 110.172 47.7098V47.9234L110.325 47.8624C110.325 47.8014 110.264 47.8014 110.172 47.8014C110.722 47.4657 111.363 47.3132 111.913 47.1606L111.577 47.5878C112.005 47.5268 112.341 47.3742 112.708 47.1606C112.921 47.1606 113.044 47.0996 113.257 47.0081L113.899 46.7945C114.113 46.7945 114.327 46.7335 114.449 46.5809L114.999 46.3673C115.213 46.3673 115.426 46.3063 115.64 46.1537V46.2147C116.068 46.1537 116.404 46.0012 116.832 45.8791L119.001 45.1774C119.215 45.1163 119.49 45.1163 119.703 45.0248C119.856 45.0248 119.917 45.1774 119.978 45.2384C120.039 45.452 120.039 45.574 119.917 45.7266C119.703 45.9401 119.367 46.0622 119.062 46.1537C117.534 46.7029 115.976 47.3437 114.449 47.8319C111.913 48.7472 109.408 49.571 106.812 50.2728C105.345 50.7 103.879 51.2492 102.382 51.7984C101.618 52.073 100.763 52.4391 99.9379 52.7137L99.2963 52.9273C99.2963 52.9273 99.1436 53.1409 99.1436 53.2019C99.1436 53.2629 99.2964 53.3545 99.3574 53.3545C99.5713 53.2935 99.6935 53.2935 99.8462 53.2935C100.396 53.0799 100.885 52.9578 101.374 52.7443C104.245 51.6153 107.117 50.6389 110.08 49.8151C113.166 48.9608 116.19 47.7708 119.123 46.6724C119.398 46.5199 119.673 46.3978 120.039 46.3978C120.039 46.6114 119.826 46.6724 119.703 46.7334C118.848 47.0691 118.023 47.4352 117.168 47.7098L114.999 48.5642C114.235 48.8998 113.38 49.2049 112.555 49.4795C110.722 50.1202 108.919 50.7305 107.025 51.1576C105.681 51.4933 104.429 52.012 103.084 52.5002C102.046 52.9883 100.915 53.4155 99.8462 53.6901C99.2964 53.9037 98.7159 54.0257 98.166 53.6901C97.4634 53.3545 96.8218 52.9273 96.5469 52.1645C96.3331 51.6763 96.2109 51.1882 96.0581 50.7C95.8443 50.0592 95.9054 49.449 96.2109 48.8693C96.5469 48.1065 96.9746 47.2521 97.4023 46.5504C98.3188 45.1468 99.2353 43.7433 100.213 42.3398C100.488 41.8516 100.854 41.3634 101.19 40.9362C102.229 39.5327 103.359 38.1902 104.429 36.8171L104.643 36.6036C105.987 35.5662 106.812 34.0711 107.942 32.8201C108.858 31.8437 109.683 30.8674 110.691 29.952C111.241 29.4028 111.883 28.9146 112.31 28.2128C112.463 27.9382 112.738 27.7247 112.952 27.5111C113.594 26.8703 114.204 26.3211 114.785 25.6194C114.938 25.4668 115.121 25.2837 115.274 25.1922C116.404 24.4294 117.229 23.3615 118.084 22.3851C118.512 21.8359 119.001 21.3477 119.49 20.9206C120.192 20.2188 120.834 19.578 121.445 18.8763C121.506 18.7237 121.597 18.6017 121.597 18.4491C121.659 18.2355 121.536 18.0219 121.323 17.9609H120.681C117.443 17.8999 114.235 18.0219 110.997 18.1745C108.125 18.3881 105.254 18.6627 102.443 19.0288C99.999 19.3645 97.6161 19.7916 95.2944 20.2798C93.6752 20.5544 92.2089 20.9816 90.6814 21.4087C90.2537 21.5613 89.826 21.6223 89.3372 21.6833C89.6122 21.4698 89.9788 21.3477 90.3148 21.2562C92.6366 20.5544 94.9278 20.0662 97.2495 19.578C99.4797 19.1509 101.74 18.8152 103.97 18.5406C105.712 18.3881 107.545 18.205 109.378 18.0525C111.486 17.8999 113.655 17.7778 115.824 17.7168H121.995C122.331 17.7168 122.483 17.5643 122.422 17.4422C122.361 17.2286 122.147 17.2286 121.995 17.2286H121.231C118.206 17.1676 115.213 17.2286 112.188 17.3812C106.017 17.7168 99.8462 18.4186 93.828 19.9137C92.0867 20.3408 90.2537 20.829 88.5735 21.4393H88.4207C87.7181 21.7139 87.5043 21.5003 87.5043 20.7985C87.5043 20.5849 87.5043 20.4629 87.3515 20.2493C87.0766 19.9747 87.2904 19.7611 87.5654 19.6086C87.8403 19.456 88.2069 19.3339 88.5429 19.2729C89.4594 18.9983 90.3759 18.6322 91.2924 18.2965C91.995 18.0219 92.7588 17.8084 93.4614 17.6558L98.9298 16.4048C99.9684 16.1912 100.977 15.9777 102.015 15.8556C103.359 15.7031 104.612 15.52 105.956 15.3064C106.231 15.3064 106.506 15.2454 106.812 15.2454C107.728 15.3064 108.644 15.1844 109.561 15.0318C109.775 14.9708 109.989 14.8792 110.203 14.8792C111.73 15.0318 113.288 14.6657 114.815 14.7267C115.579 14.7267 116.282 14.5741 117.046 14.5741C117.382 14.5741 117.809 14.5741 118.176 14.6351C118.817 14.6962 119.367 14.6962 119.917 14.5741C120.406 14.5131 120.956 14.5131 121.445 14.5131C122.575 14.5741 123.675 14.5741 124.805 14.5131C125.935 14.5131 126.913 14.0859 127.677 13.2621C128.654 12.1332 129.785 11.0958 130.915 10.1194L132.595 8.65485C134.062 7.40387 135.528 6.12238 137.147 4.93243C138.186 4.16963 139.255 3.46786 140.233 2.61354L143.043 0.721811C143.532 0.447205 143.96 0.233624 144.448 0.0200417C144.937 -0.0409817 145.151 0.0200417 145.426 0.447205C145.976 1.4846 145.976 1.78972 145.09 2.61354C144.876 2.76609 144.754 2.94916 144.54 3.16275L144.326 3.37633V3.3153C143.837 3.58991 143.349 3.86452 142.86 4.29168C142.585 4.50526 142.218 4.71884 142.157 5.14601C142.157 5.42061 141.943 5.57317 141.821 5.69522C141.394 6.03085 140.905 6.45801 140.355 6.61057C140.08 6.67159 139.805 6.76313 139.713 7.09875C139.561 7.37336 139.377 7.52592 139.072 7.52592C138.522 7.58694 138.094 7.86155 137.728 8.38025C136.872 8.92946 136.108 9.63123 135.406 10.333L135.07 10.6686L134.856 10.8822C134.367 11.1568 133.878 11.3704 133.817 12.0111C133.817 12.2857 133.603 12.4383 133.39 12.6519C133.115 12.8655 132.901 13.079 132.534 13.2011C132.392 13.1604 132.32 13.2316 132.32 13.4147C132.32 13.4147 132.259 13.6283 132.168 13.6893C131.893 14.33 131.954 14.6046 132.656 14.8182C132.992 14.8792 133.359 14.9708 133.695 14.8792C134.886 14.8792 136.017 15.0318 137.208 15.0928C138.827 15.0928 140.446 15.3064 142.127 15.4284C142.463 15.4284 142.89 15.4895 143.257 15.581C143.593 15.581 143.899 15.642 144.235 15.642C146.465 15.7946 148.664 16.2828 150.742 16.9845C151.658 17.2592 152.269 17.8389 152.422 18.8763C152.483 19.2119 152.636 19.578 152.697 20.0052C152.758 20.4324 152.697 20.9206 152.483 21.3477L152.452 21.1646ZM88.2374 21.8664C88.6651 21.5918 89.0012 21.5918 89.2761 21.5918C89.0012 21.7444 88.7262 21.8664 88.2374 21.8664ZM124.286 15.4895C124.286 15.4895 124.286 15.4284 124.225 15.4284C124.164 15.3674 124.011 15.2759 123.889 15.2759C123.125 15.2759 122.361 15.2149 121.567 15.2149C118.329 15.2759 115.06 15.2759 111.822 15.4895C109.775 15.642 107.82 15.7031 105.864 15.9777C103.329 16.2523 100.885 16.6184 98.5021 17.0151C95.9665 17.5032 93.5225 18.0525 91.1396 18.7542C90.712 18.9068 90.2843 19.0899 89.8871 19.3034C89.6733 19.3645 89.5511 19.7916 89.6122 19.8526C89.826 20.0052 89.9482 19.8526 90.101 19.8526L90.6509 19.6391C93.0948 18.8763 95.6304 18.2965 98.166 17.8084C100.915 17.3202 103.573 16.954 106.292 16.6794C108.4 16.4048 110.569 16.1912 112.677 16.1912C115.976 16.0387 119.337 15.9166 122.636 15.9777C122.911 15.9777 123.186 15.9166 123.553 15.9166C123.614 15.9166 123.705 15.9166 123.705 15.7641C123.705 15.7031 123.644 15.7031 123.553 15.6115H117.382L117.321 15.5505H123.43C123.705 15.5505 123.98 15.6115 124.286 15.4895C124.347 15.4895 124.347 15.4284 124.347 15.4284L124.286 15.4895ZM100.732 50.7915C100.518 50.8525 100.304 50.9441 100.182 50.9441C100.335 50.883 100.518 50.883 100.732 50.7915ZM101.16 50.5779L100.732 50.7915C100.732 50.7915 101.007 50.6389 101.068 50.5779H101.129H101.16ZM101.71 50.3643C101.71 50.3643 102.046 50.2118 102.26 50.1508L101.71 50.3643ZM102.687 50.0287C102.687 50.0287 102.412 50.1813 102.26 50.1813C102.412 50.1202 102.535 50.0287 102.687 50.0287ZM104.368 49.388V49.6015H103.818L104.368 49.388ZM105.895 40.6921L106.109 40.4786C106.109 40.4786 105.956 40.6311 105.956 40.6921H105.895ZM109.53 16.0387H109.744C109.744 16.0387 109.592 16.0997 109.469 16.0387H109.53ZM110.722 31.5691C110.722 31.5691 110.569 31.7217 110.508 31.8437C110.447 31.9048 110.233 31.9963 110.355 32.0573C110.355 32.1183 110.508 31.9963 110.569 31.9048C110.63 31.8132 110.722 31.6912 110.722 31.5691ZM112.677 47.0386H111.913L112.677 46.825V47.0386ZM113.227 46.825H112.677C112.891 46.825 113.105 46.764 113.227 46.6724V46.825ZM113.868 46.6724H113.227L113.868 46.4588V46.6724ZM113.319 46.825C113.319 46.825 113.257 46.825 113.257 46.886V46.825H113.319ZM114.449 46.4894H113.899L114.449 46.2758V46.4894ZM114.999 46.2758H114.449L114.999 46.0622V46.2758ZM121.995 20.0052C121.72 20.1578 121.506 20.2798 121.353 20.5544C121.2 20.6154 121.078 20.768 121.017 20.89C121.17 20.829 121.292 20.6765 121.353 20.5544C121.689 20.4934 121.842 20.2798 121.995 20.0052ZM122.911 19.0288C122.697 19.1814 122.483 19.3645 122.361 19.578C122.636 19.517 122.85 19.3034 122.911 19.0288ZM125.08 19.6696C125.08 19.6696 124.927 19.7306 124.866 19.8221C124.927 19.7611 125.019 19.7611 125.08 19.7611V19.7001V19.6696ZM150.192 19.3339C150.039 18.9068 149.703 19.0593 149.489 18.9068C149.336 18.8458 149.153 18.8458 149 18.8458C146.679 18.3576 144.296 17.9914 141.913 17.8694C138.98 17.6558 136.017 17.4422 133.206 17.3202C131.801 17.2591 130.548 17.2591 129.357 17.2591C129.082 17.2591 128.807 17.1981 128.654 17.4727C128.502 17.6253 128.868 17.7473 129.357 17.7473L135.039 17.9609C136.719 18.0219 138.339 18.1135 140.019 18.1745C143.165 18.4491 146.343 18.7237 149.428 19.3034C149.642 19.3645 149.917 19.517 150.192 19.3645V19.3339ZM150.467 17.5948L150.131 17.3812C149.489 17.1676 148.878 16.954 148.176 16.893C146.556 16.6794 144.937 16.3438 143.349 16.1912C141.516 16.0387 139.774 15.8556 138.033 15.7031C135.925 15.5505 133.817 15.4895 131.648 15.4284C131.312 15.4284 130.946 15.2759 130.671 15.642C130.884 15.9777 131.312 15.7946 131.587 15.8556H132.229C132.015 15.9166 131.801 15.9166 131.679 15.9166H130.762C130.762 15.9166 130.701 15.9777 130.61 16.0692C130.671 16.0692 130.671 16.1302 130.762 16.1302C130.823 16.1912 130.976 16.1912 131.098 16.1912C133.328 16.3438 135.528 16.4658 137.758 16.5269C140.905 16.6794 143.99 17.0151 147.076 17.3812C147.503 17.4422 147.931 17.4422 148.328 17.5338C148.542 17.5338 148.664 17.6863 148.878 17.6863C149.367 17.8389 149.856 17.9609 150.406 17.8999L150.467 17.8389C150.467 17.8389 150.467 17.6863 150.467 17.6253V17.5948ZM131.251 11.1568C131.954 10.7296 132.504 10.394 132.931 9.63123C132.29 9.96686 131.74 10.4856 131.251 11.1568ZM139.591 4.3527C139.805 4.29168 139.927 4.20014 140.08 4.01707C139.866 4.0781 139.744 4.16963 139.591 4.3527ZM140.355 3.80349C140.569 3.74247 140.783 3.58991 140.905 3.37633C140.691 3.43735 140.477 3.58991 140.355 3.80349ZM140.905 5.75624H140.844V5.81726C140.844 5.81726 140.844 5.75624 140.905 5.75624ZM141.119 3.16275C141.76 2.94916 142.249 2.522 142.646 2.03381C142.096 2.30842 141.516 2.67456 141.119 3.16275ZM143.288 1.63716C143.837 1.4846 144.265 1.21 144.693 0.782834C144.754 0.782834 144.754 0.630276 144.754 0.630276C144.693 0.569252 144.601 0.569252 144.54 0.569252C144.051 0.843858 143.624 1.21 143.288 1.60665V1.63716Z" fill="#E6E6E5"/>
<path d="M149.795 43.7128C149.795 43.7128 149.734 43.9874 149.795 44.14C149.795 44.3535 149.642 44.5671 149.52 44.6892C149.245 44.8417 149.031 44.9638 148.817 45.1773C148.389 45.452 147.901 45.6655 147.626 46.0927C147.412 46.1537 147.198 46.2453 146.984 46.3673C144.448 47.8929 141.852 49.2964 139.286 50.7915C137.667 51.7069 136.047 52.4696 134.245 53.0189C133.756 53.1714 133.206 53.2324 132.626 53.2324C132.137 53.1714 131.77 53.0189 131.434 52.6832C130.579 52.0425 130.09 51.2187 130.029 50.1508C130.029 49.7236 130.029 49.2964 129.815 48.8998C129.663 48.6862 129.54 48.6252 129.327 48.6862C129.052 48.8388 128.838 48.8998 128.624 49.0218C127.494 49.6626 126.394 50.2728 125.202 50.8525C123.247 51.8899 121.261 52.9578 119.092 53.507C118.665 53.6596 118.237 53.7206 117.748 53.7816C117.198 53.8427 116.618 53.6291 116.221 53.1409C116.068 52.9273 115.885 52.8053 115.732 52.5917C115.243 52.1035 115.029 51.5543 114.968 50.8525C114.907 50.5169 114.907 50.1508 114.816 49.8151C114.663 48.4726 115.09 47.2827 116.007 46.2453C116.221 45.9707 116.496 45.696 116.771 45.3909C117.901 44.0484 119.215 42.8585 120.773 41.9736C121.261 41.638 121.75 41.3329 122.178 40.9362C122.514 40.6006 123.033 40.2955 123.43 40.0819C124.469 39.4411 125.599 38.8309 126.852 38.4648C126.852 38.4648 126.913 38.4648 127.005 38.4038C127.341 38.3427 129.815 38.1291 130.151 38.1902C131.129 38.3427 131.77 38.953 132.259 39.8073C132.412 40.0819 132.534 40.5091 132.687 40.8447C132.84 41.0583 132.901 41.3329 133.023 41.5465C133.084 41.699 133.237 41.76 133.451 41.699C133.512 41.699 133.603 41.638 133.726 41.5465C134.276 41.3939 134.764 41.6075 134.856 42.1872C134.948 42.7669 135.009 43.1636 135.406 43.5297C135.467 43.5907 135.559 43.7433 135.559 43.8653C135.711 44.1399 135.406 44.3535 135.406 44.6281C135.345 44.9027 135.681 45.1163 135.681 45.4825C135.62 45.635 135.528 45.7571 135.406 45.8181C134.489 46.4588 134.214 47.4962 133.726 48.4116C133.665 48.4726 133.665 48.6252 133.726 48.7472C133.878 48.8082 133.939 48.8082 134.062 48.8082C134.978 48.5336 135.895 48.259 136.658 47.7708C137.911 47.008 139.255 46.3063 140.508 45.6045L140.996 45.3909C142.127 44.6281 143.379 44.1399 144.51 43.4382C144.785 43.2856 144.998 43.1636 145.273 43.1026C146.037 42.95 146.679 42.6144 147.381 42.2482C147.717 42.0346 148.145 41.8211 148.573 41.699C148.787 41.638 149 41.8516 149 41.9736C148.939 42.2482 148.848 42.4008 148.725 42.6144C148.787 42.6144 148.878 42.6144 148.939 42.6754C149.856 42.7364 149.917 42.889 149.795 43.7128ZM117.84 51.7069C118.39 51.7069 118.97 51.4933 119.52 51.2797C119.948 51.1271 120.162 50.7915 120.162 50.3643C120.589 50.6389 121.078 50.6389 121.506 50.2118L121.842 49.9982C121.2 49.8456 120.65 49.9372 120.162 50.3338C119.306 50.3949 118.543 50.6695 117.718 50.883C117.504 50.883 117.382 51.0356 117.443 51.2187C117.443 51.4933 117.596 51.7068 117.87 51.6458L117.84 51.7069ZM128.624 48.4726C128.624 48.4726 128.471 48.3201 128.41 48.3201C128.349 48.3201 128.196 48.3201 128.135 48.3811C127.371 48.7167 126.608 49.0828 125.905 49.51C124.714 50.2728 123.369 50.8525 122.117 51.4628C120.864 52.012 119.581 52.5917 118.176 52.8053L117.748 53.0189C117.748 53.0189 117.687 53.0799 117.687 53.1714C117.687 53.2629 117.748 53.2324 117.748 53.324H118.084C118.726 53.324 119.215 53.1714 119.765 52.9883C120.895 52.6527 121.995 52.134 123.064 51.5848L126.088 50.1202C126.852 49.6931 127.555 49.1439 128.41 48.7777C128.471 48.7167 128.563 48.7167 128.563 48.6252C128.624 48.5641 128.624 48.4726 128.624 48.4726ZM117.901 49.1744L118.054 49.1134C118.054 49.1134 118.054 49.0523 118.115 49.0523C118.054 49.0523 117.962 49.0523 117.901 49.1134V49.1744ZM130.579 41.6075C130.304 41.5465 130.029 41.4549 129.724 41.5465C128.043 41.76 126.424 42.3092 125.111 43.4382C125.05 43.4992 124.958 43.4992 124.958 43.5907C124.622 43.6518 124.316 43.8653 124.041 44.0789C123.125 44.7807 122.208 45.4214 121.384 46.1842C120.559 46.947 119.703 47.8014 118.94 48.6252C118.787 48.7777 118.726 48.8998 118.726 49.0523C118.665 49.1134 118.726 49.2659 118.787 49.3269C118.787 49.388 118.94 49.388 119.001 49.388C119.154 49.388 119.276 49.3269 119.337 49.2354C119.826 48.9608 120.314 48.8082 120.864 48.6862C121.506 48.4726 122.056 48.198 122.606 47.8319C122.758 47.6793 122.942 47.5573 123.156 47.4962C124.561 46.7334 125.966 45.9707 127.432 45.2689C128.135 44.8417 128.838 44.4146 129.54 43.9264C130.09 43.4992 130.518 42.95 130.885 42.4008C131.098 42.0652 130.946 41.76 130.548 41.638L130.579 41.6075ZM122.3 49.7236C122.3 49.7236 122.361 49.6626 122.453 49.571H122.3C122.3 49.571 122.086 49.7236 122.025 49.7846C122.178 49.7236 122.239 49.7236 122.3 49.7236ZM123.553 41.4549C124.103 41.3024 124.591 41.1193 124.958 40.6921C125.172 40.6311 125.386 40.6311 125.599 40.5396C126.852 40.2039 128.196 39.8378 129.449 39.6242C129.663 39.6242 129.876 39.5632 130.151 39.4717C130.212 39.4106 130.212 39.3191 130.212 39.2581C130.212 39.1055 130.212 38.9835 130.06 38.9225C129.907 38.9225 129.785 38.8614 129.632 38.8614C128.868 38.8614 128.105 39.075 127.249 39.2886C126.394 39.5022 125.569 39.7768 124.927 40.4785V40.6921C124.377 40.8447 123.889 41.0278 123.522 41.4549H123.553ZM130.06 40.7532H129.846C128.807 40.7532 126.974 41.2413 126.119 41.7295L125.905 41.9431V42.0041C125.905 42.0041 125.905 42.0652 125.966 42.0652C126.241 42.1262 126.455 42.0652 126.669 41.9126C127.646 41.577 128.624 41.2718 129.693 41.1498C129.846 41.1498 129.968 41.0888 130.121 41.0888C130.274 41.0888 130.335 41.0278 130.335 40.8752C130.274 40.8142 130.182 40.7226 130.06 40.7226V40.7532ZM140.996 49.2964C140.996 49.0828 140.783 49.1439 140.721 49.1439C140.385 49.2049 140.08 49.3575 139.805 49.571C139.469 49.7846 139.163 50.0592 138.766 50.2118C137.911 50.4254 137.147 50.8525 136.383 51.2492C135.406 51.7374 134.428 52.1035 133.359 52.2255C133.145 52.2255 133.023 52.2866 132.809 52.3781C132.748 52.3781 132.748 52.4391 132.748 52.5307C132.748 52.6222 132.748 52.6832 132.809 52.6832L133.084 52.7442C133.726 52.8053 134.276 52.6832 134.764 52.4696C136.17 51.9204 137.514 51.4322 138.766 50.7305L139.622 50.1813C139.836 50.0287 139.836 49.8456 139.836 49.6321C140.172 49.6931 140.477 49.7846 140.813 49.571C140.874 49.571 141.088 49.51 141.027 49.3574L140.996 49.2964ZM132.992 50.4864L133.145 50.5474C133.481 50.5474 133.848 50.3948 134.123 50.2728C134.184 50.2728 134.184 50.2118 134.184 50.2118L134.031 50.0592C133.695 50.1202 133.328 50.1202 133.054 50.3338C132.992 50.3338 132.992 50.3948 132.992 50.4864ZM133.054 50.822C133.054 50.822 133.054 50.9746 133.115 50.9746C133.267 51.0356 133.39 50.9746 133.542 50.9135V50.761C133.542 50.761 133.115 50.7 133.054 50.822ZM139.225 48.0149C139.438 47.9539 139.652 47.8014 139.774 47.5878C139.561 47.7403 139.347 47.8014 139.225 48.0149ZM148.114 42.9805C148.114 42.9805 148.053 42.9805 147.962 43.0415C147.901 43.0415 147.901 43.1026 147.901 43.1026H147.962L148.114 42.95V42.9805Z" fill="#E6E6E5"/>
<path d="M176.158 46.886C176.311 47.5268 175.822 47.5878 175.394 47.8014C174.05 48.3506 172.584 48.8388 171.179 49.2659C167.054 50.6695 162.839 51.7984 158.623 52.7748C156.301 53.324 154.01 53.6901 151.627 53.8122H150.283C149.427 53.6596 148.602 53.6596 147.747 53.6596C146.983 53.6596 146.281 53.5986 145.578 53.385C144.234 53.0494 143.134 51.7679 142.981 50.4559C142.92 49.6016 142.92 48.8388 142.981 48.0149C143.042 47.5878 143.195 47.1606 143.409 46.764C143.745 45.9096 144.173 45.2384 144.753 44.5366C145.517 43.6213 146.281 42.7974 147.075 41.9431C147.991 41.0888 148.816 40.326 150.008 39.9904C150.222 39.9293 150.344 39.7768 150.497 39.7158C151.26 39.075 152.177 38.953 153.032 38.8004H154.56C155.323 38.8004 155.965 39.075 156.606 39.4412C156.942 39.6547 157.248 39.9293 157.37 40.3565C157.706 41.1193 158.012 41.9736 158.012 42.7974C158.073 43.4382 157.951 43.9264 157.523 44.323C157.248 44.7502 156.881 45.1774 156.668 45.574C156.515 45.8486 156.331 46.0012 156.118 46.1232C155.629 46.3978 155.14 46.1232 154.987 45.635C154.926 45.0858 154.987 44.5976 155.262 44.1094L155.69 43.4077C155.965 42.9195 155.843 42.6449 155.415 42.4923C154.926 42.3398 154.437 42.2787 153.949 42.2787C153.093 42.4313 152.33 42.6144 151.566 43.1331C151.016 43.4687 150.435 43.8348 149.947 44.323C148.602 45.574 147.289 46.8555 146.311 48.3811C145.822 49.0829 145.822 49.571 146.8 49.6321C147.93 49.8456 149.03 49.7846 150.527 49.8456C151.78 49.9067 153.338 49.7846 154.957 49.51C156.148 49.2964 157.34 49.0218 158.531 48.7472C159.875 48.4726 161.128 48.1065 162.472 47.8319C164.305 47.4962 165.985 46.9165 167.726 46.4894C168.215 46.3368 168.704 46.2148 169.193 45.9402C169.346 45.8791 169.529 45.7266 169.682 45.7266L174.447 44.4756C174.783 44.4146 175.089 44.323 175.425 44.323C175.761 44.262 176.28 44.5976 176.066 45.0248C176.005 45.3604 176.128 45.6655 176.341 45.9402C176.555 46.1537 176.555 46.4283 176.341 46.7029C176.28 46.764 176.128 46.8555 176.189 46.9165L176.158 46.886ZM146.159 50.9441C148.205 51.2187 150.222 51.2187 152.268 51.2187H153.185C153.185 51.2187 152.91 51.2797 152.696 51.2797C152.055 51.2797 151.352 51.2797 150.649 51.3407C150.497 51.3407 150.374 51.4017 150.222 51.4017C150.222 51.4017 150.16 51.4628 150.222 51.4628V51.5238C150.435 51.6763 150.649 51.6763 150.924 51.6763C152.757 51.6153 154.56 51.4628 156.393 51.0356C156.729 50.9746 157.095 50.883 157.431 50.7C157.706 50.7 157.981 50.639 158.195 50.4864C157.981 50.5474 157.706 50.5474 157.431 50.7H156.301C157.217 50.3643 158.195 50.2118 159.111 49.9372C159.325 49.8762 159.539 49.9372 159.753 49.6626C159.325 49.6016 158.989 49.7236 158.714 49.8151C155.14 50.6695 151.566 51.1577 147.839 50.7915C147.289 50.7305 146.8 50.7305 146.22 50.7305C146.067 50.7305 145.945 50.6695 145.945 50.7915C145.945 50.8525 146.097 50.9441 146.159 50.9441ZM168.246 49.5405L168.093 49.4795C167.879 49.4795 167.665 49.5405 167.543 49.6321C165.16 50.3338 162.777 50.9746 160.333 51.5238C156.973 52.3781 153.521 53.0494 150.038 52.8663C149.275 52.8663 148.511 52.8053 147.717 52.8053C147.228 52.7443 146.8 52.7443 146.372 52.7443C146.311 52.7443 146.22 52.8053 146.159 52.8053C146.22 52.8663 146.22 52.9578 146.311 52.9578L147.075 53.1714C149.244 53.446 151.413 53.446 153.582 53.324C155.629 53.1714 157.584 52.6832 159.539 52.195C161.983 51.5543 164.458 50.8525 166.84 50.2423L168.185 49.8151C168.185 49.8151 168.337 49.6626 168.246 49.6016V49.5405ZM147.289 46.3063C147.289 46.3063 147.289 46.3673 147.228 46.4589C147.289 46.4589 147.289 46.3978 147.38 46.3978V46.3368C147.38 46.3368 147.38 46.2758 147.319 46.3368L147.289 46.3063ZM149.397 44.3535C149.397 44.3535 149.397 44.2925 149.458 44.2925C149.458 44.2925 149.519 44.2315 149.519 44.14C149.519 44.201 149.458 44.201 149.366 44.201C149.366 44.201 149.366 44.2518 149.366 44.3535H149.397ZM149.947 41.2719H150.008C150.008 41.2719 150.344 41.2108 150.497 41.1193C151.413 40.6311 152.329 40.4175 153.307 40.3565C153.857 40.3565 154.499 40.3565 155.048 40.2955H155.384C155.384 40.2955 155.598 40.1429 155.598 40.0819C155.598 40.0209 155.537 39.8683 155.446 39.8073C155.354 39.7463 155.293 39.6547 155.171 39.6547C154.835 39.5937 154.468 39.5022 154.315 39.5022C153.399 39.4412 152.788 39.6547 152.085 39.7768C151.932 39.8378 151.749 39.9293 151.596 40.0514C151.26 40.387 150.833 40.5396 150.466 40.7532C150.252 40.8142 150.038 40.9667 149.916 41.0888V41.2414L149.947 41.2719ZM155.568 41.699C155.568 41.699 155.415 41.5465 155.293 41.5465C154.315 41.3329 153.399 41.4854 152.421 41.8211C152.207 41.8821 151.932 42.0347 151.719 42.3703C152.268 42.2177 152.635 42.1567 153.063 42.0957C153.765 41.9431 154.529 41.8821 155.232 41.8821C155.384 41.8821 155.568 41.8821 155.568 41.6685V41.699ZM154.59 51.0966H154.529L154.59 51.0356H154.743L154.59 51.0966ZM156.057 50.822C156.057 50.822 156.27 50.822 156.331 50.761C156.27 50.822 156.118 50.822 156.057 50.9136H155.904C155.904 50.9136 155.965 50.8525 156.057 50.8525V50.822ZM160.883 49.4185C161.158 49.4185 161.433 49.3575 161.739 49.2049C161.464 49.2659 161.097 49.2049 160.883 49.4185ZM172.156 48.4421C171.667 48.5031 171.24 48.6557 170.751 48.7167C170.69 48.7167 170.537 48.7167 170.537 48.8693C170.812 49.0218 171.026 48.8693 171.24 48.8083C171.576 48.7472 171.881 48.6557 172.156 48.4726V48.4421ZM172.584 46.3368C172.584 46.3368 172.584 46.1842 172.431 46.2758L172.37 46.3368C172.37 46.3368 172.37 46.3978 172.431 46.3978L172.584 46.3368Z" fill="#E6E6E5"/>
<path d="M229.773 21.1646C229.712 21.3782 229.498 21.3782 229.284 21.3172C229.131 21.1646 228.948 21.0426 228.795 20.829C228.245 20.2798 227.543 19.9747 226.748 19.7916C225.496 19.456 224.152 19.2424 222.899 19.0899C220.73 18.8152 218.561 18.5406 216.3 18.4491C216.087 18.3881 215.812 18.3881 215.598 18.3881C212.512 18.3271 209.427 18.0525 206.402 18.0525C205.914 18.0525 205.486 18.1135 205.058 18.3271C204.569 18.5406 204.02 18.6017 203.439 18.7542C203.225 18.8152 202.95 18.9678 203.103 19.3034C203.164 19.3645 203.103 19.517 203.042 19.578L202.003 20.6154C201.789 20.829 201.453 20.5544 201.301 20.829C201.148 21.0426 201.362 21.2562 201.24 21.4698C201.087 21.7444 200.904 22.019 200.598 22.2326C200.384 22.3851 200.17 22.5682 200.323 22.9343H200.262L199.223 23.6971C198.887 23.9107 198.673 24.1243 198.521 24.4599H198.582C197.604 25.1007 196.84 25.8634 196.26 26.7788L196.046 26.9924C195.771 27.267 195.405 27.4806 195.13 27.7552C193.938 28.9451 192.747 30.1351 191.616 31.4776C191.342 31.7522 191.128 32.0268 190.975 32.393C190.761 32.6065 190.547 32.7286 190.425 33.0337C190.364 33.0337 190.272 33.0947 190.211 33.1863C189.997 33.3998 189.783 33.5219 189.661 33.7355L186.423 37.0918C186.148 37.3664 185.873 37.7935 185.659 38.1292C184.957 38.9835 184.254 39.8073 183.429 40.5091V40.1734L183.154 40.448C183.154 40.448 183.093 40.7226 183.215 40.7226C183.154 40.9362 183.063 41.0583 182.879 41.1498C181.902 41.577 181.474 42.4008 180.985 43.2551C180.771 43.7433 180.558 44.1705 180.13 44.5061C179.916 44.6587 179.977 44.8417 180.13 44.9943C180.069 45.2689 179.794 45.4214 179.488 45.5435C179.274 45.6045 179.213 45.7571 179.213 45.9707C179.274 46.3978 179.061 46.7334 178.786 47.0996C178.511 46.947 178.45 47.0386 178.358 47.2521V47.5268C178.358 47.8014 178.297 48.1675 178.297 48.4421C178.236 48.6557 178.45 48.8693 178.633 48.7777C178.786 48.7777 178.908 48.7777 179.061 48.7167C179.916 48.4421 180.802 48.2895 181.596 47.8014L181.871 47.7403C183.918 47.2521 185.812 46.3978 187.889 46.1232C188.378 46.0622 188.867 45.9096 189.295 45.7876C190.761 45.1468 192.227 44.8112 193.724 44.323C194.427 44.1094 195.191 44.0484 195.893 43.8959C195.954 43.8348 196.046 43.8348 196.107 43.8959C196.168 43.8959 196.321 43.9569 196.321 44.0484C196.321 44.14 196.321 44.262 196.26 44.323C196.046 44.384 195.832 44.5366 195.618 44.5976C192.258 45.7876 188.806 46.9165 185.323 47.8929C182.788 48.5336 180.283 49.4185 177.808 50.4254L177.258 50.6389C177.258 50.6389 177.105 50.7915 177.197 50.9135C177.258 50.9746 177.35 50.9746 177.472 50.9746L177.044 51.4017C177.961 51.2492 180.832 50.2118 181.749 49.6626H181.688C181.902 49.6626 182.116 49.6015 182.329 49.449C182.543 49.449 182.757 49.388 182.879 49.2964C182.665 49.2964 182.452 49.3575 182.329 49.449H181.688C182.238 49.1744 182.818 48.9608 183.429 48.8998V49.1134L183.582 49.0523C183.643 48.8998 183.521 48.8998 183.429 48.8998C184.773 48.3506 186.087 47.9844 187.492 47.7098V47.9234L187.645 47.8624C187.645 47.8014 187.584 47.8014 187.492 47.8014C188.042 47.4657 188.684 47.3132 189.234 47.1606L188.898 47.5878C189.325 47.5268 189.661 47.3742 190.028 47.1606C190.242 47.1606 190.364 47.0996 190.578 47.0081L191.219 46.7945C191.433 46.7945 191.647 46.7335 191.769 46.5809L192.319 46.3673C192.533 46.3673 192.747 46.3063 192.961 46.1537V46.2147C193.388 46.1537 193.724 46.0012 194.152 45.8791L196.321 45.1774C196.535 45.1163 196.81 45.1163 197.024 45.0248C197.176 45.0248 197.238 45.1774 197.299 45.2384C197.36 45.452 197.36 45.574 197.238 45.7266C197.024 45.9401 196.688 46.0622 196.382 46.1537C194.855 46.7029 193.297 47.3437 191.769 47.8319C189.234 48.7472 186.729 49.571 184.132 50.2728C182.665 50.7 181.199 51.2492 179.702 51.7984C178.938 52.073 178.083 52.4391 177.258 52.7137L176.617 52.9273C176.617 52.9273 176.464 53.1409 176.464 53.2019C176.464 53.2629 176.617 53.3545 176.678 53.3545C176.892 53.2935 177.014 53.2935 177.167 53.2935C177.716 53.0799 178.205 52.9578 178.694 52.7443C181.566 51.6153 184.437 50.6389 187.401 49.8151C190.486 48.9608 193.511 47.7708 196.443 46.6724C196.718 46.5199 196.993 46.3978 197.36 46.3978C197.36 46.6114 197.146 46.6724 197.024 46.7334C196.168 47.0691 195.343 47.4352 194.488 47.7098L192.319 48.5642C191.555 48.8998 190.7 49.2049 189.875 49.4795C188.042 50.1202 186.24 50.7305 184.346 51.1576C183.002 51.4933 181.749 52.012 180.405 52.5002C179.366 52.9883 178.236 53.4155 177.167 53.6901C176.617 53.9037 176.036 54.0257 175.486 53.6901C174.784 53.3545 174.142 52.9273 173.867 52.1645C173.653 51.6763 173.531 51.1882 173.378 50.7C173.165 50.0592 173.226 49.449 173.531 48.8693C173.867 48.1065 174.295 47.2521 174.723 46.5504C175.639 45.1468 176.556 43.7433 177.533 42.3398C177.808 41.8516 178.175 41.3634 178.511 40.9362C179.549 39.5327 180.68 38.1902 181.749 36.8171L181.963 36.6036C183.307 35.5662 184.132 34.0711 185.262 32.8201C186.179 31.8437 187.003 30.8674 188.012 29.952C188.562 29.4028 189.203 28.9146 189.631 28.2128C189.783 27.9382 190.058 27.7247 190.272 27.5111C190.914 26.8703 191.525 26.3211 192.105 25.6194C192.258 25.4668 192.441 25.2837 192.594 25.1922C193.724 24.4294 194.549 23.3615 195.405 22.3851C195.832 21.8359 196.321 21.3477 196.81 20.9206C197.512 20.2188 198.154 19.578 198.765 18.8763C198.826 18.7237 198.918 18.6017 198.918 18.4491C198.979 18.2355 198.857 18.0219 198.643 17.9609H198.001C194.763 17.8999 191.555 18.0219 188.317 18.1745C185.445 18.3881 182.574 18.6627 179.763 19.0288C177.319 19.3645 174.936 19.7916 172.615 20.2798C170.996 20.5544 169.529 20.9816 168.002 21.4087C167.574 21.5613 167.146 21.6223 166.658 21.6833C166.932 21.4698 167.299 21.3477 167.635 21.2562C169.957 20.5544 172.248 20.0662 174.57 19.578C176.8 19.1509 179.061 18.8152 181.291 18.5406C183.032 18.3881 184.865 18.205 186.698 18.0525C188.806 17.8999 190.975 17.7778 193.144 17.7168H199.315C199.651 17.7168 199.804 17.5643 199.743 17.4422C199.682 17.2286 199.468 17.2286 199.315 17.2286H198.551C195.527 17.1676 192.533 17.2286 189.509 17.3812C183.338 17.7168 177.167 18.4186 171.148 19.9137C169.407 20.3408 167.574 20.829 165.894 21.4393H165.741C165.038 21.7139 164.825 21.5003 164.825 20.7985C164.825 20.5849 164.825 20.4629 164.672 20.2493C164.397 19.9747 164.611 19.7611 164.886 19.6086C165.161 19.456 165.527 19.3339 165.863 19.2729C166.78 18.9983 167.696 18.6322 168.613 18.2965C169.315 18.0219 170.079 17.8084 170.782 17.6558L176.25 16.4048C177.289 16.1912 178.297 15.9777 179.336 15.8556C180.68 15.7031 181.932 15.52 183.276 15.3064C183.551 15.3064 183.826 15.2454 184.132 15.2454C185.048 15.3064 185.965 15.1844 186.881 15.0318C187.095 14.9708 187.309 14.8792 187.523 14.8792C189.05 15.0318 190.608 14.6657 192.136 14.7267C192.9 14.7267 193.602 14.5741 194.366 14.5741C194.702 14.5741 195.13 14.5741 195.496 14.6351C196.138 14.6962 196.688 14.6962 197.238 14.5741C197.726 14.5131 198.276 14.5131 198.765 14.5131C199.895 14.5741 200.995 14.5741 202.125 14.5131C203.256 14.5131 204.233 14.0859 204.997 13.2621C205.975 12.1332 207.105 11.0958 208.235 10.1194L209.916 8.65485C211.382 7.40387 212.848 6.12238 214.467 4.93243C215.506 4.16963 216.575 3.46786 217.553 2.61354L220.364 0.721811C220.852 0.447205 221.28 0.233624 221.769 0.0200417C222.258 -0.0409817 222.471 0.0200417 222.746 0.447205C223.296 1.4846 223.296 1.78972 222.41 2.61354C222.196 2.76609 222.074 2.94916 221.86 3.16275L221.647 3.37633V3.3153C221.158 3.58991 220.669 3.86452 220.18 4.29168C219.905 4.50526 219.539 4.71884 219.478 5.14601C219.478 5.42061 219.264 5.57317 219.142 5.69522C218.714 6.03085 218.225 6.45801 217.675 6.61057C217.4 6.67159 217.125 6.76313 217.034 7.09875C216.881 7.37336 216.698 7.52592 216.392 7.52592C215.842 7.58694 215.414 7.86155 215.048 8.38025C214.193 8.92946 213.429 9.63123 212.726 10.333L212.39 10.6686L212.176 10.8822C211.687 11.1568 211.199 11.3704 211.138 12.0111C211.138 12.2857 210.924 12.4383 210.71 12.6519C210.435 12.8655 210.221 13.079 209.854 13.2011C209.712 13.1604 209.641 13.2316 209.641 13.4147C209.641 13.4147 209.58 13.6283 209.488 13.6893C209.213 14.33 209.274 14.6046 209.977 14.8182C210.313 14.8792 210.679 14.9708 211.015 14.8792C212.207 14.8792 213.337 15.0318 214.529 15.0928C216.148 15.0928 217.767 15.3064 219.447 15.4284C219.783 15.4284 220.211 15.4895 220.577 15.581C220.913 15.581 221.219 15.642 221.555 15.642C223.785 15.7946 225.985 16.2828 228.062 16.9845C228.978 17.2592 229.589 17.8389 229.742 18.8763C229.803 19.2119 229.956 19.578 230.017 20.0052C230.078 20.4324 230.017 20.9206 229.803 21.3477L229.773 21.1646ZM165.558 21.8664C165.985 21.5918 166.322 21.5918 166.596 21.5918C166.322 21.7444 166.047 21.8664 165.558 21.8664ZM201.606 15.4895C201.606 15.4895 201.606 15.4284 201.545 15.4284C201.484 15.3674 201.331 15.2759 201.209 15.2759C200.445 15.2759 199.682 15.2149 198.887 15.2149C195.649 15.2759 192.38 15.2759 189.142 15.4895C187.095 15.642 185.14 15.7031 183.185 15.9777C180.649 16.2523 178.205 16.6184 175.822 17.0151C173.287 17.5032 170.843 18.0525 168.46 18.7542C168.032 18.9068 167.605 19.0899 167.207 19.3034C166.994 19.3645 166.871 19.7916 166.932 19.8526C167.146 20.0052 167.269 19.8526 167.421 19.8526L167.971 19.6391C170.415 18.8763 172.951 18.2965 175.486 17.8084C178.236 17.3202 180.894 16.954 183.613 16.6794C185.72 16.4048 187.889 16.1912 189.997 16.1912C193.297 16.0387 196.657 15.9166 199.956 15.9777C200.231 15.9777 200.506 15.9166 200.873 15.9166C200.934 15.9166 201.026 15.9166 201.026 15.7641C201.026 15.7031 200.965 15.7031 200.873 15.6115H194.702L194.641 15.5505H200.751C201.026 15.5505 201.301 15.6115 201.606 15.4895C201.667 15.4895 201.667 15.4284 201.667 15.4284L201.606 15.4895ZM178.052 50.7915C177.839 50.8525 177.625 50.9441 177.503 50.9441C177.655 50.883 177.839 50.883 178.052 50.7915ZM178.48 50.5779L178.052 50.7915C178.052 50.7915 178.327 50.6389 178.389 50.5779H178.45H178.48ZM179.03 50.3643C179.03 50.3643 179.366 50.2118 179.58 50.1508L179.03 50.3643ZM180.008 50.0287C180.008 50.0287 179.733 50.1813 179.58 50.1813C179.733 50.1202 179.855 50.0287 180.008 50.0287ZM181.688 49.388V49.6015H181.138L181.688 49.388ZM183.215 40.6921L183.429 40.4786C183.429 40.4786 183.276 40.6311 183.276 40.6921H183.215ZM186.851 16.0387H187.065C187.065 16.0387 186.912 16.0997 186.79 16.0387H186.851ZM188.042 31.5691C188.042 31.5691 187.889 31.7217 187.828 31.8437C187.767 31.9048 187.553 31.9963 187.676 32.0573C187.676 32.1183 187.828 31.9963 187.889 31.9048C187.951 31.8132 188.042 31.6912 188.042 31.5691ZM189.997 47.0386H189.234L189.997 46.825V47.0386ZM190.547 46.825H189.997C190.211 46.825 190.425 46.764 190.547 46.6724V46.825ZM191.189 46.6724H190.547L191.189 46.4588V46.6724ZM190.639 46.825C190.639 46.825 190.578 46.825 190.578 46.886V46.825H190.639ZM191.769 46.4894H191.219L191.769 46.2758V46.4894ZM192.319 46.2758H191.769L192.319 46.0622V46.2758ZM199.315 20.0052C199.04 20.1578 198.826 20.2798 198.673 20.5544C198.521 20.6154 198.398 20.768 198.337 20.89C198.49 20.829 198.612 20.6765 198.673 20.5544C199.009 20.4934 199.162 20.2798 199.315 20.0052ZM200.231 19.0288C200.018 19.1814 199.804 19.3645 199.682 19.578C199.956 19.517 200.17 19.3034 200.231 19.0288ZM202.4 19.6696C202.4 19.6696 202.248 19.7306 202.187 19.8221C202.248 19.7611 202.339 19.7611 202.4 19.7611V19.7001V19.6696ZM227.512 19.3339C227.359 18.9068 227.023 19.0593 226.809 18.9068C226.657 18.8458 226.473 18.8458 226.321 18.8458C223.999 18.3576 221.616 17.9914 219.233 17.8694C216.3 17.6558 213.337 17.4422 210.527 17.3202C209.121 17.2591 207.869 17.2591 206.677 17.2591C206.402 17.2591 206.127 17.1981 205.975 17.4727C205.822 17.6253 206.189 17.7473 206.677 17.7473L212.36 17.9609C214.04 18.0219 215.659 18.1135 217.339 18.1745C220.486 18.4491 223.663 18.7237 226.748 19.3034C226.962 19.3645 227.237 19.517 227.512 19.3645V19.3339ZM227.787 17.5948L227.451 17.3812C226.809 17.1676 226.198 16.954 225.496 16.893C223.877 16.6794 222.258 16.3438 220.669 16.1912C218.836 16.0387 217.095 15.8556 215.353 15.7031C213.245 15.5505 211.138 15.4895 208.969 15.4284C208.633 15.4284 208.266 15.2759 207.991 15.642C208.205 15.9777 208.633 15.7946 208.907 15.8556H209.549C209.335 15.9166 209.121 15.9166 208.999 15.9166H208.083C208.083 15.9166 208.022 15.9777 207.93 16.0692C207.991 16.0692 207.991 16.1302 208.083 16.1302C208.144 16.1912 208.296 16.1912 208.419 16.1912C210.649 16.3438 212.848 16.4658 215.078 16.5269C218.225 16.6794 221.311 17.0151 224.396 17.3812C224.824 17.4422 225.251 17.4422 225.649 17.5338C225.862 17.5338 225.985 17.6863 226.198 17.6863C226.687 17.8389 227.176 17.9609 227.726 17.8999L227.787 17.8389C227.787 17.8389 227.787 17.6863 227.787 17.6253V17.5948ZM208.571 11.1568C209.274 10.7296 209.824 10.394 210.252 9.63123C209.61 9.96686 209.06 10.4856 208.571 11.1568ZM216.911 4.3527C217.125 4.29168 217.247 4.20014 217.4 4.01707C217.186 4.0781 217.064 4.16963 216.911 4.3527ZM217.675 3.80349C217.889 3.74247 218.103 3.58991 218.225 3.37633C218.011 3.43735 217.797 3.58991 217.675 3.80349ZM218.225 5.75624H218.164V5.81726C218.164 5.81726 218.164 5.75624 218.225 5.75624ZM218.439 3.16275C219.08 2.94916 219.569 2.522 219.966 2.03381C219.416 2.30842 218.836 2.67456 218.439 3.16275ZM220.608 1.63716C221.158 1.4846 221.585 1.21 222.013 0.782834C222.074 0.782834 222.074 0.630276 222.074 0.630276C222.013 0.569252 221.922 0.569252 221.86 0.569252C221.372 0.843858 220.944 1.21 220.608 1.60665V1.63716Z" fill="#E6E6E5"/>
</svg>
